<svg width="31" height="42" viewBox="0 0 31 42" fill="none" xmlns="http://www.w3.org/2000/svg">
<path d="M19.7524 12.8695C11.8425 10.8204 3.77307 15.5736 1.72775 23.4854C-0.317561 31.3992 4.43354 39.4748 12.3435 41.5238C20.2535 43.5729 28.3229 38.8197 30.3682 30.9079C32.4135 22.9941 27.6604 14.9186 19.7524 12.8695Z" fill="#FF8D24"/>
<path d="M18.5043 12.547C10.5943 10.4979 2.52489 15.2511 0.479579 23.1629C-1.56573 31.0767 3.18741 39.1523 11.0954 41.2013C19.0054 43.2504 27.0747 38.4972 29.12 30.5854C31.1654 22.6716 26.4122 14.5961 18.5043 12.547Z" fill="#FFE27C"/>
<path d="M15.1089 19.0499C10.649 19.0693 7.04921 22.7037 7.07013 27.1661C7.09104 31.6296 10.7245 35.2316 15.1844 35.2121C19.6443 35.1927 23.2441 31.5583 23.2231 27.0959C23.2022 22.6324 19.5698 19.0304 15.1089 19.0499Z" fill="#FF9D43"/>
<path d="M18.1733 24.9989L17.8716 25.9144L12.1162 25.9144L12.4178 24.9989L18.1733 24.9989ZM15.4752 31.1703L12.2233 27.6348L12.2053 26.9719L13.8218 26.9719C14.2422 26.9719 14.6005 26.9193 14.8965 26.814C15.1925 26.7062 15.419 26.5457 15.5758 26.3326C15.7326 26.1169 15.811 25.846 15.8109 25.5198C15.8107 25.0384 15.6478 24.6609 15.322 24.3873C14.9963 24.1111 14.4959 23.973 13.8208 23.973L12.1155 23.973L12.4172 23.0891L13.8206 23.0891C14.543 23.0891 15.1351 23.1957 15.597 23.4087C16.0619 23.6192 16.4055 23.9085 16.6276 24.2768C16.8528 24.6425 16.9654 25.0568 16.9655 25.5198C16.9657 25.938 16.8622 26.3234 16.6551 26.6759C16.4509 27.0258 16.1224 27.3073 15.6694 27.5204C15.2195 27.7334 14.6244 27.84 13.8843 27.84L13.8576 27.84L16.8608 31.1072L16.8608 31.1703L15.4752 31.1703ZM18.1727 23.0891L17.871 24.0046L13.3412 23.973L13.6429 23.0891L18.1727 23.0891Z" fill="#F7DE61"/>
<path d="M14.754 40.5306C13.639 40.5306 12.5056 40.3914 11.3762 40.0987C7.89178 39.196 4.96547 36.9893 3.13953 33.8839C1.31156 30.7786 0.802989 27.1492 1.70407 23.6631C2.60516 20.177 4.81168 17.2498 7.91262 15.4218C11.0156 13.5938 14.6427 13.0861 18.1271 13.9888C21.6136 14.8916 24.5379 17.0983 26.3658 20.2036C28.1918 23.309 28.7024 26.9384 27.8013 30.4244C26.2321 36.4939 20.7484 40.5286 14.7561 40.5306L14.754 40.5306ZM14.727 14.3573C12.495 14.3573 10.2959 14.953 8.32202 16.1157C5.40517 17.8332 3.33156 20.5864 2.4836 23.8637C1.63564 27.1431 2.11549 30.5555 3.83293 33.4745C5.55037 36.3936 8.30276 38.4693 11.5805 39.3188C12.6424 39.5931 13.7083 39.7262 14.7558 39.7262C20.3922 39.7262 25.5486 35.931 27.0238 30.2238C28.7749 23.4543 24.6932 16.521 17.9269 14.7688C16.8671 14.4945 15.7929 14.3594 14.727 14.3594L14.727 14.3573Z" fill="#FF9D43"/>
<path fill-rule="evenodd" clip-rule="evenodd" d="M10.3043 1.90212C16.2432 2.98913 17.3263 10.5691 17.3263 10.5691C17.3263 10.5691 10.9804 7.99378 9.76643 5.69573C8.5525 3.39768 10.3043 1.90212 10.3043 1.90212Z" fill="url(#paint0_linear_67_2681)"/>
<path fill-rule="evenodd" clip-rule="evenodd" d="M29.1233 6.74561C26.54 12.2215 18.9644 11.3097 18.9644 11.3097C18.9644 11.3097 23.0854 5.82433 25.6114 5.24229C28.1373 4.66025 29.1233 6.74561 29.1233 6.74561Z" fill="url(#paint1_linear_67_2681)"/>
<path fill-rule="evenodd" clip-rule="evenodd" d="M21.9081 0.831502C23.9395 6.53682 17.9403 11.2682 17.9403 11.2682C17.9403 11.2682 16.9896 4.46491 18.3656 2.26077C19.7416 0.0566418 21.9081 0.831502 21.9081 0.831502Z" fill="url(#paint2_linear_67_2681)"/>
<defs>
<linearGradient id="paint0_linear_67_2681" x1="14.3991" y1="15.7335" x2="-7.95907" y2="-14.1166" gradientUnits="userSpaceOnUse">
<stop stop-color="#205B45"/>
<stop offset="1" stop-color="#46B78D"/>
</linearGradient>
<linearGradient id="paint1_linear_67_2681" x1="14.7516" y1="7.13534" x2="49.3492" y2="-6.60698" gradientUnits="userSpaceOnUse">
<stop stop-color="#205B45"/>
<stop offset="1" stop-color="#46B78D"/>
</linearGradient>
<linearGradient id="paint2_linear_67_2681" x1="12.0204" y1="11.3062" x2="26.8075" y2="-22.9617" gradientUnits="userSpaceOnUse">
<stop stop-color="#205B45"/>
<stop offset="1" stop-color="#46B78D"/>
</linearGradient>
</defs>
</svg>
