<svg width="32" height="32" viewBox="0 0 32 32" fill="none" xmlns="http://www.w3.org/2000/svg">
<mask id="path-1-outside-1_67_3409" maskUnits="userSpaceOnUse" x="4.66699" y="6" width="21" height="22" fill="black">
<rect fill="white" x="4.66699" y="6" width="21" height="22"/>
<path d="M18.5861 9.41421L8.39204 19.6083C8.19739 19.8029 8.10006 19.9003 8.03309 20.0185C7.96612 20.1368 7.93273 20.2704 7.86597 20.5374L6.86911 24.5249C6.77885 24.8859 6.73372 25.0664 6.83381 25.1665C6.9339 25.2666 7.11441 25.2215 7.47544 25.1312L11.4629 24.1344C11.73 24.0676 11.8635 24.0342 11.9818 23.9672C12.1001 23.9003 12.1974 23.8029 12.392 23.6083L22.5861 13.4142C23.2528 12.7475 23.5861 12.4142 23.5861 12C23.5861 11.5858 23.2528 11.2525 22.5861 10.5858L22.5861 10.5858L21.4145 9.41421C20.7479 8.74755 20.4145 8.41421 20.0003 8.41421C19.5861 8.41421 19.2528 8.74755 18.5861 9.41421Z"/>
</mask>
<path d="M8.39204 19.6083L9.80625 21.0225L9.80625 21.0225L8.39204 19.6083ZM18.5861 9.41421L20.0003 10.8284H20.0003L18.5861 9.41421ZM21.4145 9.41421L22.8288 8V8L21.4145 9.41421ZM22.5861 10.5858L21.1719 12L21.2026 12.0307L21.2347 12.0601L22.5861 10.5858ZM22.5861 13.4142L24.0003 14.8284V14.8284L22.5861 13.4142ZM7.86597 20.5374L5.92568 20.0524L5.92568 20.0524L7.86597 20.5374ZM6.86911 24.5249L4.92882 24.0398L6.86911 24.5249ZM7.47544 25.1312L7.96051 27.0715H7.96052L7.47544 25.1312ZM11.4629 24.1344L10.9778 22.1941H10.9778L11.4629 24.1344ZM6.83381 25.1665L5.41959 26.5807L5.4196 26.5807L6.83381 25.1665ZM11.9818 23.9672L10.9964 22.2268L10.9964 22.2268L11.9818 23.9672ZM22.5861 10.5858L24.0003 9.17158L23.9696 9.14085L23.9376 9.11149L22.5861 10.5858ZM8.03309 20.0185L6.29269 19.0332L6.29269 19.0332L8.03309 20.0185ZM9.80625 21.0225L20.0003 10.8284L17.1719 8L6.97783 18.1941L9.80625 21.0225ZM20.0003 10.8284L21.1719 12L24.0003 9.17157L22.8288 8L20.0003 10.8284ZM21.1719 12L10.9778 22.1941L13.8063 25.0225L24.0003 14.8284L21.1719 12ZM5.92568 20.0524L4.92882 24.0398L8.80939 25.01L9.80625 21.0225L5.92568 20.0524ZM7.96052 27.0715L11.948 26.0746L10.9778 22.1941L6.99037 23.1909L7.96052 27.0715ZM4.92882 24.0398C4.9 24.1551 4.81755 24.4629 4.78958 24.7488C4.75919 25.0595 4.73208 25.8932 5.41959 26.5807L8.24803 23.7523C8.5137 24.018 8.66614 24.3338 8.73344 24.6262C8.79212 24.8811 8.77664 25.0762 8.77057 25.1383C8.76398 25.2057 8.75491 25.2374 8.764 25.1964C8.77236 25.1587 8.78487 25.108 8.80939 25.01L4.92882 24.0398ZM6.99037 23.1909C6.8923 23.2155 6.84166 23.228 6.80393 23.2363C6.76295 23.2454 6.79461 23.2363 6.86206 23.2297C6.92411 23.2237 7.11922 23.2082 7.37416 23.2669C7.66653 23.3342 7.98233 23.4866 8.24801 23.7523L5.4196 26.5807C6.10711 27.2682 6.94087 27.2411 7.25149 27.2107C7.53739 27.1828 7.84522 27.1003 7.96051 27.0715L6.99037 23.1909ZM10.9778 22.1941C10.9531 22.2188 10.932 22.2399 10.9125 22.2593C10.893 22.2787 10.877 22.2945 10.8633 22.308C10.8495 22.3215 10.8394 22.3312 10.832 22.3382C10.8284 22.3416 10.8258 22.3441 10.8239 22.3458C10.8221 22.3475 10.8212 22.3483 10.8212 22.3482C10.8213 22.3482 10.8223 22.3473 10.8243 22.3456C10.8262 22.3439 10.8293 22.3413 10.8332 22.338C10.8412 22.3314 10.8532 22.3216 10.869 22.3098C10.8849 22.2979 10.9039 22.2843 10.926 22.2699C10.9481 22.2553 10.9716 22.2408 10.9964 22.2268L12.9672 25.7076C13.3763 25.476 13.6867 25.1421 13.8063 25.0225L10.9778 22.1941ZM11.948 26.0746C12.112 26.0336 12.558 25.9393 12.9672 25.7076L10.9964 22.2268C11.0211 22.2128 11.0456 22.2001 11.0695 22.1886C11.0933 22.1772 11.1147 22.1678 11.1331 22.1603C11.1513 22.1529 11.1659 22.1475 11.1756 22.1441C11.1805 22.1424 11.1843 22.1412 11.1867 22.1403C11.1892 22.1395 11.1906 22.1391 11.1906 22.1391C11.1906 22.1391 11.1895 22.1395 11.1871 22.1402C11.1847 22.1409 11.1812 22.1419 11.1764 22.1432C11.1666 22.1459 11.1531 22.1496 11.1345 22.1544C11.1158 22.1593 11.094 22.1649 11.0674 22.1716C11.0407 22.1784 11.0117 22.1856 10.9778 22.1941L11.948 26.0746ZM21.2347 12.0601L21.2347 12.0601L23.9376 9.11149L23.9376 9.11148L21.2347 12.0601ZM21.1719 12C21.3438 12.1719 21.4701 12.2984 21.5742 12.4078C21.6789 12.518 21.7266 12.5752 21.7461 12.6007C21.7648 12.6252 21.723 12.5764 21.6777 12.4678C21.6258 12.3433 21.5861 12.181 21.5861 12H25.5861C25.5861 11.1798 25.2286 10.5708 24.9262 10.1744C24.659 9.82421 24.2937 9.46493 24.0003 9.17158L21.1719 12ZM24.0003 14.8284C24.2937 14.5351 24.659 14.1758 24.9262 13.8256C25.2286 13.4293 25.5861 12.8202 25.5861 12H21.5861C21.5861 11.819 21.6258 11.6567 21.6777 11.5322C21.723 11.4236 21.7648 11.3748 21.7461 11.3993C21.7266 11.4248 21.6789 11.482 21.5742 11.5922C21.4701 11.7016 21.3438 11.8281 21.1719 12L24.0003 14.8284ZM20.0003 10.8284C20.1722 10.6565 20.2987 10.5302 20.4082 10.4262C20.5183 10.3214 20.5755 10.2737 20.6011 10.2543C20.6256 10.2356 20.5767 10.2774 20.4681 10.3226C20.3436 10.3746 20.1813 10.4142 20.0003 10.4142V6.41421C19.1801 6.41421 18.5711 6.77177 18.1747 7.07417C17.8245 7.34136 17.4653 7.70665 17.1719 8L20.0003 10.8284ZM22.8288 8C22.5354 7.70665 22.1761 7.34136 21.8259 7.07417C21.4296 6.77177 20.8205 6.41421 20.0003 6.41421V10.4142C19.8193 10.4142 19.657 10.3746 19.5325 10.3226C19.4239 10.2774 19.3751 10.2356 19.3996 10.2543C19.4251 10.2737 19.4823 10.3214 19.5925 10.4262C19.7019 10.5302 19.8284 10.6565 20.0003 10.8284L22.8288 8ZM6.97783 18.1941C6.85826 18.3136 6.52434 18.624 6.29269 19.0332L9.77349 21.0039C9.75948 21.0287 9.74503 21.0522 9.73047 21.0744C9.71598 21.0964 9.7024 21.1155 9.69049 21.1313C9.67869 21.1471 9.66896 21.1591 9.66234 21.1671C9.65904 21.1711 9.65646 21.1741 9.65474 21.1761C9.65304 21.178 9.6521 21.1791 9.65208 21.1791C9.65207 21.1791 9.65284 21.1782 9.65455 21.1764C9.65626 21.1745 9.65875 21.1719 9.66216 21.1683C9.66917 21.1609 9.67885 21.1508 9.69233 21.1371C9.70582 21.1233 9.72165 21.1073 9.74099 21.0879C9.76045 21.0683 9.78155 21.0472 9.80625 21.0225L6.97783 18.1941ZM9.80625 21.0225C9.81473 20.9886 9.82196 20.9597 9.82872 20.9329C9.83543 20.9063 9.84101 20.8845 9.84588 20.8659C9.85075 20.8472 9.85439 20.8337 9.85713 20.8239C9.85846 20.8192 9.85946 20.8157 9.86017 20.8132C9.86087 20.8108 9.86121 20.8097 9.8612 20.8097C9.8612 20.8098 9.86078 20.8111 9.85998 20.8136C9.85916 20.8161 9.85791 20.8198 9.8562 20.8247C9.85279 20.8345 9.84745 20.849 9.84003 20.8672C9.83253 20.8856 9.82317 20.9071 9.81174 20.9308C9.80026 20.9547 9.7875 20.9792 9.77349 21.0039L6.29269 19.0332C6.06104 19.4423 5.9667 19.8883 5.92568 20.0524L9.80625 21.0225Z" fill="white" mask="url(#path-1-outside-1_67_3409)"/>
<path d="M16.667 9.99992L20.667 7.33325L24.667 11.3333L22.0003 15.3333L16.667 9.99992Z" fill="white"/>
</svg>
