<svg width="18" height="19" viewBox="0 0 18 19" fill="none" xmlns="http://www.w3.org/2000/svg">
<path d="M9 3.95825L8.27405 3.27051L9 2.50422L9.72595 3.27051L9 3.95825ZM10 11.0833C10 11.6355 9.55228 12.0833 9 12.0833C8.44772 12.0833 8 11.6355 8 11.0833L10 11.0833ZM4.52405 7.22884L8.27405 3.27051L9.72595 4.646L5.97595 8.60433L4.52405 7.22884ZM9.72595 3.27051L13.476 7.22884L12.024 8.60433L8.27405 4.646L9.72595 3.27051ZM10 3.95825L10 11.0833L8 11.0833L8 3.95825L10 3.95825Z" fill="white"/>
<path d="M3.75 12.6667L3.75 13.4584C3.75 14.3329 4.42157 15.0417 5.25 15.0417L12.75 15.0417C13.5784 15.0417 14.25 14.3329 14.25 13.4584V12.6667" stroke="white" stroke-width="2"/>
</svg>
