<svg width="32" height="32" viewBox="0 0 32 32" fill="none" xmlns="http://www.w3.org/2000/svg">
<circle cx="16.0003" cy="10.6666" r="4.33333" stroke="#223F80" stroke-width="2" stroke-linecap="round"/>
<path d="M20.0689 10.5C20.4667 9.81095 21.122 9.30815 21.8905 9.10222C22.6591 8.89629 23.4779 9.0041 24.167 9.40192C24.856 9.79975 25.3588 10.455 25.5648 11.2235C25.7707 11.9921 25.6629 12.8109 25.2651 13.5C24.8672 14.1891 24.212 14.6918 23.4434 14.8978C22.6749 15.1037 21.856 14.9959 21.167 14.5981C20.4779 14.2003 19.9751 13.545 19.7692 12.7765C19.5633 12.0079 19.6711 11.1891 20.0689 10.5L20.0689 10.5Z" stroke="#223F80" stroke-width="2"/>
<path d="M6.73493 10.5C7.13276 9.81095 7.78801 9.30815 8.55655 9.10222C9.32509 8.89629 10.144 9.0041 10.833 9.40192C11.5221 9.79975 12.0249 10.455 12.2308 11.2235C12.4367 11.9921 12.3289 12.8109 11.9311 13.5C11.5333 14.1891 10.878 14.6918 10.1095 14.8978C9.34093 15.1037 8.52206 14.9959 7.83301 14.5981C7.14396 14.2003 6.64116 13.545 6.43523 12.7765C6.2293 12.0079 6.33711 11.1891 6.73493 10.5L6.73493 10.5Z" stroke="#223F80" stroke-width="2"/>
<path d="M22.5091 24.0001L21.5288 24.1975L21.6904 25.0001H22.5091V24.0001ZM27.746 22.8991L26.7897 23.1914L26.7897 23.1914L27.746 22.8991ZM19.708 19.6141L19.1032 18.8178L17.9466 19.6963L19.1799 20.4633L19.708 19.6141ZM26.8675 23.0001H22.5091V25.0001H26.8675V23.0001ZM26.7897 23.1914C26.7851 23.1762 26.7809 23.1463 26.7885 23.1098C26.7957 23.0753 26.8104 23.049 26.8244 23.0319C26.8516 22.9987 26.8743 23.0001 26.8675 23.0001V25.0001C28.0296 25.0001 29.1061 23.9273 28.7023 22.6067L26.7897 23.1914ZM22.6669 19.6667C25.2593 19.6667 26.3387 21.7164 26.7897 23.1914L28.7023 22.6067C28.1984 20.9585 26.6792 17.6667 22.6669 17.6667V19.6667ZM20.3129 20.4105C20.8825 19.9778 21.6356 19.6667 22.6669 19.6667V17.6667C21.1917 17.6667 20.0152 18.1251 19.1032 18.8178L20.3129 20.4105ZM19.1799 20.4633C20.6803 21.3965 21.2892 23.0079 21.5288 24.1975L23.4894 23.8026C23.2061 22.3959 22.4259 20.1268 20.2361 18.765L19.1799 20.4633Z" fill="#223F80"/>
<path d="M12.2921 19.6141L12.8203 20.4633L14.0536 19.6962L12.897 18.8178L12.2921 19.6141ZM4.25415 22.899L5.21044 23.1914L4.25415 22.899ZM9.49104 24.0001V25.0001H10.3097L10.4714 24.1975L9.49104 24.0001ZM9.33325 19.6667C10.3646 19.6667 11.1176 19.9777 11.6873 20.4104L12.897 18.8178C11.985 18.1251 10.8085 17.6667 9.33325 17.6667V19.6667ZM5.21044 23.1914C5.66145 21.7164 6.74088 19.6667 9.33325 19.6667V17.6667C5.32096 17.6667 3.80177 20.9585 3.29785 22.6067L5.21044 23.1914ZM5.13268 23.0001C5.12589 23.0001 5.14854 22.9987 5.17577 23.0319C5.18976 23.049 5.20443 23.0753 5.21161 23.1098C5.21921 23.1463 5.21509 23.1762 5.21044 23.1914L3.29785 22.6067C2.89405 23.9273 3.97053 25.0001 5.13268 25.0001V23.0001ZM9.49104 23.0001H5.13268V25.0001H9.49104V23.0001ZM10.4714 24.1975C10.7109 23.0079 11.3198 21.3964 12.8203 20.4633L11.764 18.7649C9.57426 20.1268 8.79404 22.3959 8.51072 23.8026L10.4714 24.1975Z" fill="#223F80"/>
<path d="M15.9997 18.6667C21.0435 18.6667 22.2713 22.4828 22.5702 24.3406C22.6579 24.8859 22.2186 25.3334 21.6663 25.3334H10.333C9.78072 25.3334 9.34145 24.8859 9.42917 24.3406C9.72804 22.4828 10.9558 18.6667 15.9997 18.6667Z" stroke="#223F80" stroke-width="2" stroke-linecap="round"/>
</svg>
