<svg width="38" height="40" viewBox="0 0 38 40" fill="none" xmlns="http://www.w3.org/2000/svg">
<path d="M3 40C2.2 40 1.5 39.7 0.9 39.1C0.3 38.5 0 37.8 0 37V3C0 2.2 0.3 1.5 0.9 0.9C1.5 0.3 2.2 0 3 0H20L32 12V21.9L18 35.9V40H3ZM21 40V37.15L31.15 27.05L34.05 29.8L23.85 40H21ZM35.4 28.45L32.55 25.65L34.15 24.1C34.45 23.8333 34.8083 23.7 35.225 23.7C35.6417 23.7 35.9833 23.8333 36.25 24.1L36.9 24.8C37.2 25.1 37.35 25.4583 37.35 25.875C37.35 26.2917 37.2 26.65 36.9 26.95L35.4 28.45ZM18 14H29L18 3V14Z" fill="#55699B"/>
</svg>
