<svg width="468" height="323" viewBox="0 0 468 323" fill="none" xmlns="http://www.w3.org/2000/svg">
<path d="M412.668 112.817L406.696 142.756L402.855 138.876L396.314 143.703L391.317 137.281L380.106 145.718L370.532 129.135L359.847 135.613L355.611 129.564L342.045 137.478L337.963 128.432L347.471 80.75L398.455 91.6474L412.668 112.817Z" fill="#EBEBEB"/>
<path d="M398.455 91.648L412.669 112.816L394.988 109.036L398.455 91.648Z" fill="#DBDBDB"/>
<path d="M405.426 148.74L396.668 192.664L328 177.99L336.692 134.416L340.775 143.461L354.342 135.548L358.577 141.597L369.263 135.119L378.836 151.702L390.047 143.265L395.044 149.687L401.585 144.86L405.426 148.74Z" fill="#EBEBEB"/>
<path d="M310.648 127.852L240.666 132.335L235.107 39.333L287.068 36.0042L306.148 52.5708L310.648 127.852Z" fill="#EBEBEB"/>
<path d="M287.068 36.0042L306.148 52.5708L288.128 53.7253L287.068 36.0042Z" fill="#DBDBDB"/>
<path d="M267.669 98.5777L267.398 96.4801C266.691 92.1319 267.842 87.2695 271.492 82.1816C274.782 77.6828 276.567 74.4089 276.37 70.7635C276.147 66.631 273.493 64.0212 268.558 64.226C265.74 64.3894 262.662 65.5432 260.788 67.1963L258.634 62.2001C261.112 60.1058 265.503 58.5509 269.65 58.3099C278.651 57.7879 283.031 63.3054 283.365 69.4625C283.663 74.9728 280.904 79.115 277.397 83.9516C274.181 88.3644 273.122 92.0027 273.58 96.1209L273.773 98.223L267.669 98.5777ZM266.56 110.021C266.398 107.023 268.241 104.803 270.979 104.644C273.719 104.485 275.711 106.483 275.874 109.481C276.027 112.317 274.345 114.609 271.449 114.777C268.711 114.936 266.714 112.857 266.56 110.021Z" fill="#DBDBDB"/>
<path d="M92.6521 82.7617L85.6097 79.4554L84.6331 81.688C84.3461 82.3444 83.7239 82.7636 83.0282 82.7953C82.6438 82.8127 82.2594 82.8521 81.8769 82.9122C81.1905 83.0207 80.5028 82.7345 80.0985 82.1506L78.7201 80.1583L72.432 84.8224L73.8104 86.814C74.2148 87.3987 74.2554 88.1642 73.9359 88.8024C73.7574 89.1577 73.5983 89.5221 73.4585 89.8935C73.2058 90.5654 72.6224 91.0402 71.9297 91.1106L69.5735 91.3496L70.3329 99.3161L72.6972 99.0725C73.3905 99.0008 74.0463 99.3581 74.4226 99.9653C74.5249 100.13 74.6316 100.293 74.7421 100.453C74.8531 100.613 74.9673 100.77 75.0853 100.923C75.5171 101.485 75.6331 102.239 75.3474 102.892L74.3639 105.141L81.4064 108.447L82.3873 106.21C82.675 105.554 83.2984 105.135 83.9941 105.104C84.3773 105.087 84.7598 105.049 85.141 104.989C85.8268 104.882 86.5132 105.168 86.9176 105.752L88.2966 107.744L94.5847 103.08L93.2056 101.087C92.8019 100.503 92.7607 99.7385 93.0796 99.1009C93.2568 98.7469 93.4147 98.3839 93.5532 98.0137C93.8053 97.3419 94.3881 96.8658 95.0814 96.7947L97.4426 96.5525L96.6832 88.586L94.3207 88.8276C93.6299 88.898 92.976 88.5421 92.601 87.9368C92.498 87.7714 92.3907 87.6073 92.279 87.4452C92.1679 87.285 92.0537 87.128 91.9358 86.9749C91.5015 86.4109 91.3854 85.6532 91.6731 84.9962L92.6521 82.7617ZM88.6573 90.1319C90.6946 93.0757 90.0413 97.1681 87.1984 99.2773C84.3548 101.386 80.3968 100.714 78.3594 97.7702C76.322 94.8264 76.9766 90.7249 79.8202 88.6157C82.6631 86.5072 86.6199 87.1887 88.6573 90.1319Z" fill="#EBEBEB"/>
<path d="M394.117 208.088L389.424 210.891L390.254 212.377C390.498 212.815 390.475 213.352 390.209 213.775C390.061 214.009 389.926 214.251 389.803 214.501C389.583 214.95 389.145 215.239 388.659 215.239H387V220.849H388.659C389.145 220.849 389.583 221.138 389.803 221.587C389.926 221.837 390.061 222.079 390.209 222.313C390.475 222.736 390.499 223.273 390.254 223.711L389.424 225.197L394.117 228L394.947 226.507C395.191 226.069 395.655 225.828 396.142 225.853C396.275 225.861 396.407 225.864 396.541 225.864C396.674 225.864 396.807 225.861 396.94 225.853C397.425 225.828 397.887 226.067 398.13 226.502L398.965 228L403.657 225.196L402.826 223.706C402.583 223.268 402.607 222.73 402.874 222.308C403.021 222.075 403.156 221.833 403.278 221.585C403.499 221.136 403.937 220.848 404.423 220.848H406.081V215.238H404.423C403.937 215.238 403.499 214.95 403.278 214.502C403.156 214.253 403.021 214.012 402.874 213.779C402.607 213.356 402.583 212.818 402.826 212.381L403.657 210.89L398.965 208.087L398.134 209.578C397.891 210.014 397.428 210.255 396.942 210.229C396.809 210.222 396.676 210.218 396.54 210.218C396.407 210.218 396.274 210.222 396.142 210.229C395.654 210.255 395.19 210.014 394.946 209.576L394.117 208.088ZM396.542 213.45C398.992 213.45 400.977 215.505 400.977 218.042C400.977 220.579 398.992 222.638 396.542 222.638C394.091 222.638 392.102 220.579 392.102 218.042C392.102 215.505 394.091 213.45 396.542 213.45Z" fill="#EBEBEB"/>
<path d="M106.893 58.8913L102.59 62.2977L103.598 63.6607C103.894 64.0619 103.938 64.5981 103.727 65.0529C103.61 65.3042 103.506 65.5626 103.415 65.8274C103.253 66.3016 102.855 66.6466 102.372 66.7118L100.728 66.9334L101.427 72.4967L103.072 72.2752C103.554 72.2099 104.025 72.4379 104.298 72.8533C104.451 73.0852 104.615 73.3075 104.791 73.5194C105.108 73.9031 105.198 74.4334 105.01 74.8992L104.373 76.4845L109.375 78.637L110.012 77.0452C110.2 76.5788 110.63 76.2778 111.116 76.2377C111.249 76.2267 111.381 76.2125 111.513 76.1951C111.645 76.177 111.777 76.1563 111.907 76.1311C112.385 76.0407 112.873 76.2164 113.168 76.6156L114.183 77.989L118.487 74.5827L117.478 73.2151C117.182 72.8139 117.139 72.2771 117.351 71.8223C117.467 71.5717 117.571 71.3146 117.661 71.051C117.824 70.5775 118.222 70.2332 118.704 70.1679L120.349 69.9463L119.649 64.383L118.005 64.6046C117.523 64.6698 117.053 64.4424 116.778 64.027C116.626 63.7964 116.462 63.5755 116.287 63.3642C115.97 62.9805 115.879 62.4501 116.066 61.9837L116.704 60.3946L111.701 58.2421L111.063 59.8319C110.876 60.297 110.447 60.5968 109.962 60.6362C109.83 60.6472 109.696 60.6614 109.562 60.6795C109.43 60.6975 109.298 60.7182 109.168 60.7428C108.687 60.8338 108.197 60.6568 107.9 60.255L106.893 58.8913ZM109.966 63.8849C112.395 63.5574 114.62 65.33 114.936 67.8455C115.253 70.3611 113.541 72.6686 111.111 72.9961C108.681 73.3236 106.452 71.5471 106.136 69.0316C105.819 66.5161 107.536 64.2124 109.966 63.8849Z" fill="#EBEBEB"/>
<path d="M80.8202 204.369C81.0661 198.118 80.9675 191.855 80.5718 185.613C79.7556 172.737 77.7083 159.962 74.8966 147.399C73.3141 140.328 71.3647 133.376 69.3342 126.431C69.2731 126.222 68.9498 126.281 69.006 126.499C75.2859 150.98 80.4383 176.244 80.0839 201.691C79.9847 208.813 79.1884 215.808 78.5351 222.885C78.5176 223.074 78.8184 223.15 78.8602 222.956C80.1556 216.9 80.5768 210.554 80.8202 204.369Z" fill="#EBEBEB"/>
<path d="M69.0054 126.5C69.0054 126.5 59.4919 151.499 61.6216 157.375C63.7519 163.251 68.143 164.504 68.143 164.504C68.143 164.504 62.3223 173.108 66.3896 181.177C70.4574 189.246 79.4948 188.865 80.0951 198.014C80.0951 198.014 80.5987 159.758 69.0054 126.5Z" fill="#EBEBEB"/>
<path d="M79.0611 182.217C79.073 182.175 79.0699 182.131 79.0512 182.086C77.7152 165.088 74.8023 148.143 69.8234 131.797C69.8091 131.749 69.7323 131.764 69.7448 131.815C71.6299 139.127 73.3072 146.479 74.7406 153.872C73.505 152.554 71.8889 151.797 70.1991 151.25C70.1673 151.24 70.1517 151.287 70.1816 151.301C71.9413 152.088 73.6267 153.001 74.8704 154.544C75.148 155.993 75.4201 157.443 75.6784 158.894C73.5525 156.434 70.6041 155.214 67.6538 154.054C67.612 154.038 67.5901 154.104 67.6307 154.121C70.7033 155.416 73.764 157.085 75.8457 159.826C76.5714 163.974 77.2066 168.138 77.7564 172.314C76.202 170.633 74.2838 169.503 72.0836 168.948C72.0174 168.931 71.9806 169.033 72.0474 169.053C74.3081 169.726 76.2525 171.037 77.8007 172.868C77.8119 172.881 77.8237 172.887 77.8362 172.896C78.0265 174.365 78.2063 175.836 78.3747 177.309C77.1779 176.252 75.855 175.447 74.3986 174.825C74.3599 174.809 74.3393 174.871 74.3768 174.888C75.8563 175.54 77.1873 176.48 78.3591 177.617C78.376 177.633 78.3928 177.631 78.4097 177.637C78.5682 179.037 78.726 180.438 78.8627 181.841C76.6818 179.12 73.9849 177.151 70.7938 175.876C70.7314 175.851 70.6995 175.95 70.7594 175.977C73.862 177.374 76.597 179.586 78.7117 182.312C78.7697 182.387 78.8452 182.399 78.912 182.377C79.1179 184.528 79.302 186.683 79.4543 188.842C79.4561 188.871 79.5029 188.874 79.5017 188.844C79.3825 186.634 79.2334 184.426 79.0611 182.217Z" fill="white"/>
<path d="M71.4171 148.765C69.7673 147.591 67.6707 147.09 65.7013 146.92C65.6539 146.916 65.6501 146.989 65.6963 146.995C67.7449 147.31 69.4659 148.078 71.3479 148.906C71.4296 148.943 71.4883 148.816 71.4171 148.765Z" fill="white"/>
<path d="M72.5721 175.232C71.2667 174.421 69.7772 173.963 68.2815 173.713C68.2291 173.704 68.2247 173.788 68.2759 173.797C69.7947 174.082 71.1401 174.641 72.5203 175.338C72.579 175.368 72.6277 175.267 72.5721 175.232Z" fill="white"/>
<path d="M105.83 157.782C101.863 160.67 98.055 164 94.819 167.747C91.3695 171.741 88.8535 176.274 87.0964 181.305C83.4965 191.612 81.5234 202.778 81.3437 213.732C81.2426 219.873 81.7705 225.966 83.0397 231.968C83.0859 232.186 83.401 232.124 83.3692 231.904C81.8179 221.344 81.8747 210.568 83.5414 200.028C85.1769 189.686 87.7434 178.434 94.0933 170.03C97.5509 165.454 101.862 161.853 106.124 158.132C106.347 157.936 106.06 157.615 105.83 157.782Z" fill="#EBEBEB"/>
<path d="M82.7433 206.285C82.7433 206.285 86.0106 200.589 90.7699 195.663C95.5291 190.738 99.5377 187.237 100.156 183.979C100.775 180.721 95.3887 178.322 95.3887 178.322C95.3887 178.322 101.975 179.546 103.777 176.684C105.579 173.823 106.449 157.25 106.449 157.25C106.449 157.25 94.4677 166.106 88.8848 178.52C83.3024 190.934 82.7433 206.285 82.7433 206.285Z" fill="#EBEBEB"/>
<path d="M102.303 161.499C97.262 166.625 92.1882 172.087 89.2192 178.822C88.2015 181.131 87.3354 183.526 86.5728 185.965C86.571 185.969 86.571 185.973 86.5691 185.976C86.4162 186.466 86.2608 186.955 86.1167 187.447C86.1023 187.472 86.0949 187.499 86.0924 187.528C84.6247 192.558 83.587 197.759 82.6884 202.84C82.6828 202.873 82.7309 202.89 82.7371 202.856C83.2532 200.27 83.8229 197.659 84.4587 195.055C84.4812 195.056 84.5055 195.052 84.5305 195.041C85.5495 194.597 86.5747 194.32 87.6748 194.214C87.7466 194.208 87.741 194.079 87.668 194.083C86.6065 194.135 85.567 194.328 84.5579 194.67C85.1383 192.322 85.7691 189.981 86.4786 187.674C88.7918 187.088 91.206 186.771 93.5847 186.712C93.6091 186.712 93.6134 186.674 93.5878 186.672C91.1898 186.557 88.9359 186.77 86.6003 187.287C86.7238 186.891 86.8524 186.497 86.9803 186.102C88.5422 185.734 90.1109 185.424 91.709 185.273C91.7377 185.27 91.7352 185.219 91.7065 185.22C90.1415 185.264 88.599 185.434 87.0764 185.803C87.7285 183.806 88.433 181.837 89.2142 179.919C89.8607 178.332 90.6295 176.826 91.4762 175.372C92.7573 175.071 93.9991 174.786 95.312 174.664C95.3482 174.661 95.3444 174.6 95.3088 174.598C94.117 174.518 92.8759 174.61 91.7227 174.965C92.353 173.911 93.015 172.879 93.7239 171.879C96.4108 171.263 99.1346 170.691 101.883 171.225C101.931 171.234 101.948 171.151 101.901 171.139C99.285 170.427 96.6879 170.838 94.0846 171.371C94.3685 170.98 94.6593 170.593 94.9525 170.209C96.6018 169.681 98.2423 169.425 99.9726 169.392C100.008 169.392 100.014 169.339 99.977 169.335C98.3976 169.179 96.8227 169.337 95.2964 169.765C97.5178 166.908 99.9714 164.224 102.397 161.571C102.51 161.449 102.423 161.377 102.303 161.499Z" fill="white"/>
<path d="M102.17 172.796C101.381 172.709 100.579 172.618 99.7867 172.71C99.6906 172.721 99.6987 172.883 99.7954 172.886C100.584 172.91 101.373 172.849 102.162 172.893C102.222 172.897 102.23 172.803 102.17 172.796Z" fill="white"/>
<path d="M93.5454 188.874C92.2862 188.858 91.0288 189.208 89.8526 189.641C89.8233 189.652 89.8395 189.703 89.8701 189.696C91.0894 189.395 92.323 189.273 93.5548 189.062C93.6559 189.046 93.6509 188.875 93.5454 188.874Z" fill="white"/>
<path d="M90.9608 183.32C90.4498 183.292 89.8969 183.385 89.3933 183.466C89.3415 183.475 89.3447 183.562 89.3983 183.563C89.9075 183.572 90.4679 183.586 90.9696 183.487C91.0582 183.469 91.0544 183.325 90.9608 183.32Z" fill="white"/>
<path d="M47.6196 175.37C51.4753 176.758 55.2998 178.542 58.7555 180.8C62.439 183.206 65.4873 186.274 68.0325 189.924C73.2467 197.404 77.3364 205.968 79.9279 214.79C81.3805 219.736 82.314 224.793 82.6267 229.954C82.6379 230.141 82.369 230.167 82.3459 229.98C81.2433 221.063 78.7916 212.356 75.0894 204.224C71.4571 196.246 66.8682 187.755 59.8525 182.473C56.0324 179.597 51.7399 177.714 47.4599 175.723C47.2359 175.619 47.3956 175.29 47.6196 175.37Z" fill="#EBEBEB"/>
<path d="M77.1323 209.099C77.1323 209.099 73.2161 205.271 68.2653 202.423C63.3139 199.576 59.2884 197.701 58.0604 195.213C56.8324 192.725 60.6556 189.494 60.6556 189.494C60.6556 189.494 55.5987 192.061 53.5015 190.176C51.4042 188.292 47 175.088 47 175.088C47 175.088 58.6738 179.387 65.9627 188.098C73.2523 196.809 77.1323 209.099 77.1323 209.099Z" fill="#EBEBEB"/>
<path d="M76.5246 206.375C70.6858 195.03 62.8952 184.766 52.2198 177.991C52.2148 177.988 52.2104 177.996 52.2148 177.998C55.0253 179.852 57.6149 181.991 60.0285 184.329C57.8676 184.267 55.668 184.623 53.7523 185.7C53.7099 185.724 53.7405 185.783 53.7841 185.768C55.9195 185.02 57.9706 184.529 60.2419 184.638C60.2731 184.639 60.2931 184.623 60.3149 184.61C60.6937 184.982 61.0675 185.36 61.4375 185.741C60.3143 185.791 59.178 185.955 58.0835 186.201C58.0542 186.208 58.0623 186.255 58.0922 186.249C59.2766 186.012 60.4329 185.929 61.6347 185.947C63.5909 187.982 65.4136 190.159 67.1409 192.419C66.3609 192.302 65.5434 192.37 64.7959 192.595C64.7403 192.612 64.7547 192.695 64.8127 192.687C65.6632 192.576 66.4719 192.59 67.3162 192.652C67.6357 193.073 67.9589 193.491 68.2722 193.918C65.8716 193.768 63.5198 194.007 61.1873 194.631C61.153 194.64 61.1623 194.695 61.1979 194.688C63.604 194.199 66.0301 194.043 68.475 194.198C68.7726 194.607 69.0547 195.028 69.3467 195.441C67.9146 195.396 66.5256 195.581 65.1291 195.941C65.076 195.955 65.091 196.041 65.1453 196.028C66.5818 195.69 68.0425 195.604 69.5108 195.676C70.7669 197.468 71.97 199.299 73.1263 201.152C72.5141 201.022 71.8714 201.093 71.2749 201.267C71.243 201.277 71.2518 201.324 71.2848 201.32C71.9719 201.236 72.6133 201.328 73.2879 201.418C74.3275 203.094 75.3327 204.786 76.2956 206.488C76.3779 206.633 76.6019 206.526 76.5246 206.375Z" fill="white"/>
<path d="M67.4422 196.964C66.3009 196.863 65.1409 197.048 64.0508 197.394C64.0196 197.404 64.0271 197.453 64.0608 197.446C65.1833 197.232 66.2959 197.152 67.4335 197.088C67.5077 197.084 67.5221 196.972 67.4422 196.964Z" fill="white"/>
<path d="M57.2592 183.138C56.7431 183.077 56.2046 183.147 55.6948 183.232C55.6343 183.243 55.653 183.335 55.7129 183.329C56.2271 183.272 56.7344 183.292 57.2492 183.276C57.3328 183.273 57.3465 183.148 57.2592 183.138Z" fill="white"/>
<path d="M92.1895 246.616H65.8386L69.5957 218.123L70.556 210.817H87.472L88.4317 218.123L92.1895 246.616Z" fill="#DBDBDB"/>
<path d="M88.4317 218.123H69.5957L70.556 210.817H87.472L88.4317 218.123Z" fill="#C7C7C7"/>
<path d="M89.8906 208.283H68.1367V214.47H89.8906V208.283Z" fill="#DBDBDB"/>
<path d="M43.0335 246.909L91.7794 247.161L140.525 247.252L238.017 247.426L335.508 247.253L384.254 247.162L433 246.909L384.254 246.654L335.508 246.563L238.017 246.391L140.525 246.564L91.7794 246.657L43.0335 246.909Z" fill="#6B6B6B"/>
<path d="M234 295.037C332.819 295.037 412.927 285.95 412.927 274.74C412.927 263.53 332.819 254.443 234 254.443C135.181 254.443 55.073 263.53 55.073 274.74C55.073 285.95 135.181 295.037 234 295.037Z" fill="#EBEBEB"/>
<path d="M192.349 271.376C190.894 271.886 149.202 272.038 147.608 271.003C147.002 270.615 146.627 264.33 146.381 256.722C146.328 255.08 146.282 253.383 146.246 251.66L142.865 228.639L170.736 228.454L173.367 251.48L173.26 256.545C173.26 256.545 189.248 263.878 190.878 265.207C192.5 266.535 193.804 270.867 192.349 271.376Z" fill="#EB9481"/>
<path d="M192.349 271.376C190.894 271.886 149.202 272.038 147.608 271.003C146.872 270.526 146.47 261.348 146.246 251.66L173.367 251.479L173.26 256.544C173.26 256.544 189.248 263.877 190.878 265.206C192.5 266.535 193.804 270.866 192.349 271.376Z" fill="white"/>
<path d="M192.349 271.376C190.894 271.886 149.202 272.038 147.608 271.003C147.002 270.615 146.627 264.33 146.381 256.722L173.26 256.544C173.26 256.544 189.248 263.877 190.878 265.206C192.5 266.535 193.804 270.867 192.349 271.376Z" fill="#A6A6A6"/>
<path d="M191.745 269.652C184.756 269.5 156.552 269.569 149.631 269.968C149.575 269.971 149.575 270.011 149.631 270.013C156.556 270.321 184.759 270.016 191.746 269.77C191.893 269.766 191.892 269.655 191.745 269.652Z" fill="#263238"/>
<path d="M188.192 263.663C186.534 263.599 184.917 264.42 184.016 265.445C183.151 266.431 182.413 267.814 182.468 269.314C182.469 269.357 182.546 269.358 182.552 269.314C182.941 266.481 185.42 263.985 188.192 263.754C188.248 263.749 188.248 263.666 188.192 263.663Z" fill="#263238"/>
<path d="M175.974 257.254C173.177 257.224 169.937 258.258 168.207 260.633C168.14 260.724 168.267 260.822 168.35 260.777C170.874 259.419 173.274 258.405 176.023 257.61C176.218 257.554 176.175 257.256 175.974 257.254Z" fill="#263238"/>
<path d="M178.137 258.118C175.34 258.087 172.1 259.122 170.369 261.496C170.303 261.589 170.43 261.686 170.512 261.641C173.036 260.282 175.437 259.268 178.186 258.474C178.38 258.418 178.337 258.12 178.137 258.118Z" fill="#263238"/>
<path d="M180.299 258.981C177.502 258.952 174.262 259.985 172.532 262.36C172.464 262.452 172.592 262.549 172.675 262.505C175.199 261.146 177.599 260.132 180.348 259.338C180.543 259.282 180.499 258.983 180.299 258.981Z" fill="#263238"/>
<path d="M182.461 259.845C179.664 259.815 176.425 260.849 174.694 263.224C174.627 263.316 174.754 263.413 174.837 263.368C177.361 262.01 179.762 260.996 182.511 260.202C182.705 260.145 182.662 259.847 182.461 259.845Z" fill="#263238"/>
<path d="M151.388 263.089C148.25 263.11 148.275 268.16 151.419 268.139C154.557 268.118 154.532 263.069 151.388 263.089Z" fill="#263238"/>
<path d="M178.971 249.516C177.551 248.305 175.771 249.499 174.903 250.765C173.496 252.814 172.534 255.683 172.386 258.18C172.383 258.241 172.428 258.266 172.474 258.262C172.534 258.47 172.771 258.643 172.977 258.494C174.964 257.061 177.26 255.784 178.762 253.762C179.64 252.58 180.314 250.66 178.971 249.516ZM175.56 255.683C174.6 256.412 173.61 257.089 172.676 257.855C173.171 256.41 173.602 254.95 174.238 253.558C174.541 252.894 174.864 252.217 175.253 251.601C175.858 250.642 178.595 248.212 178.884 251.361C179.043 253.098 176.705 254.813 175.56 255.683Z" fill="#263238"/>
<path d="M165.44 259.278C167.877 259.657 170.387 258.929 172.778 258.536C173.026 258.496 173.081 258.2 172.986 258.007C173.021 257.977 173.038 257.927 172.994 257.885C171.216 256.192 168.601 254.815 166.215 254.348C164.742 254.06 162.659 254.477 162.446 256.368C162.245 258.158 164.017 259.057 165.44 259.278ZM163.745 257.636C161.844 255.158 165.444 254.945 166.522 255.202C167.215 255.368 167.901 255.623 168.564 255.884C169.954 256.432 171.243 257.173 172.567 257.859C171.381 257.978 170.215 258.2 169.034 258.364C167.627 258.56 164.793 259.002 163.745 257.636Z" fill="#263238"/>
<path d="M101.91 122.225C101.91 122.225 134.277 179.228 135.144 183.23C136.476 189.38 143.535 250.114 143.535 250.114L177.213 249.486C177.213 249.486 171.408 195.938 165.911 178.297C161.951 165.589 133.387 123.445 133.387 123.445L101.91 122.225Z" fill="#37474F"/>
<path d="M174.15 244.14C169.314 244.104 152.175 243.904 145.737 244.526C145.688 244.53 145.69 244.615 145.738 244.622C147.954 244.952 169.317 244.439 174.152 244.278C174.243 244.275 174.241 244.141 174.15 244.14Z" fill="#263238"/>
<path d="M107.435 127.456C109.556 130.9 111.794 134.272 113.962 137.686C116.132 141.101 118.294 144.522 120.427 147.961C124.691 154.835 128.844 161.781 132.92 168.77C134.832 172.048 136.653 175.356 137.966 178.932C139.266 182.473 140.152 186.158 140.807 189.872C141.467 193.615 141.901 197.392 142.312 201.169C142.749 205.19 143.179 209.212 143.613 213.234C144.5 221.464 145.388 229.693 146.275 237.922C146.384 238.931 146.49 239.941 146.588 240.952C146.603 241.099 146.347 241.129 146.329 240.981C145.338 232.804 144.515 224.602 143.614 216.414C143.166 212.338 142.718 208.261 142.27 204.185C141.853 200.395 141.457 196.6 140.889 192.83C140.331 189.126 139.606 185.438 138.517 181.853C137.38 178.107 135.769 174.591 133.861 171.185C129.958 164.217 125.828 157.368 121.697 150.536C117.53 143.646 113.328 136.774 108.97 130.005C108.432 129.169 107.889 128.338 107.331 127.515C107.287 127.451 107.394 127.389 107.435 127.456Z" fill="#263238"/>
<path d="M112.521 274.739C110.985 274.641 71.3394 258.011 70.2343 256.436C70.1975 256.383 70.1757 256.279 70.1738 256.132C70.1813 254.72 72.9269 249.78 75.2213 243.298C75.3649 242.884 76.3882 240.961 77.8084 238.366C81.7122 231.241 88.6199 219.037 88.6199 219.037L114.534 229.696L102.13 248.918L100.199 253.57C100.199 253.57 112.362 266.582 113.389 268.444C114.41 270.306 114.051 274.828 112.521 274.739Z" fill="#EB9481"/>
<path d="M112.521 274.739C110.985 274.641 71.3394 258.011 70.2343 256.435C70.1975 256.383 70.1757 256.279 70.1738 256.132C70.1813 254.72 72.9269 249.78 75.2213 243.298C75.3649 242.884 76.3882 240.961 77.8084 238.366L102.131 248.918L100.2 253.57C100.2 253.57 112.362 266.582 113.39 268.444C114.41 270.306 114.051 274.828 112.521 274.739Z" fill="white"/>
<path d="M112.518 274.735C110.985 274.643 71.3382 258.011 70.2356 256.434C69.8144 255.837 71.5872 250.232 75.2188 243.3L100.2 253.574C100.2 253.574 112.362 266.58 113.392 268.445C114.413 270.306 114.052 274.828 112.518 274.735Z" fill="#A6A6A6"/>
<path d="M112.583 272.903C106.16 270.047 79.99 259.158 73.4305 256.84C73.3774 256.821 73.3631 256.858 73.4142 256.882C79.7216 259.856 105.976 270.526 112.541 273.012C112.679 273.065 112.719 272.963 112.583 272.903Z" fill="#263238"/>
<path d="M111.46 265.971C109.946 265.268 108.15 265.401 106.944 266.001C105.785 266.578 104.599 267.574 104.106 268.986C104.092 269.027 104.163 269.057 104.185 269.018C105.573 266.543 108.775 265.193 111.428 266.055C111.481 266.072 111.512 265.995 111.46 265.971Z" fill="#263238"/>
<path d="M102.457 255.285C99.875 254.171 96.4973 253.871 94.0325 255.4C93.937 255.459 94.02 255.599 94.113 255.59C96.9453 255.311 99.5374 255.303 102.373 255.634C102.574 255.658 102.642 255.365 102.457 255.285Z" fill="#263238"/>
<path d="M104.149 256.925C101.567 255.811 98.1889 255.511 95.7241 257.04C95.6287 257.1 95.7117 257.239 95.8046 257.229C98.6363 256.95 101.229 256.943 104.065 257.274C104.265 257.298 104.333 257.005 104.149 256.925Z" fill="#263238"/>
<path d="M105.84 258.566C103.258 257.452 99.8806 257.152 97.4158 258.681C97.3203 258.74 97.4033 258.88 97.4963 258.871C100.328 258.592 102.921 258.583 105.757 258.915C105.956 258.939 106.025 258.645 105.84 258.566Z" fill="#263238"/>
<path d="M107.531 260.206C104.949 259.092 101.572 258.792 99.1075 260.321C99.012 260.381 99.0944 260.52 99.188 260.511C102.02 260.232 104.612 260.224 107.448 260.556C107.648 260.579 107.717 260.286 107.531 260.206Z" fill="#263238"/>
<path d="M77.5514 251.146C74.6348 249.946 72.8289 254.637 75.7505 255.839C78.6677 257.038 80.4736 252.348 77.5514 251.146Z" fill="#263238"/>
<path d="M108.039 249.275C107.161 247.602 105.079 248.017 103.816 248.853C101.769 250.206 99.8375 252.492 98.7961 254.749C98.7705 254.804 98.8036 254.844 98.8473 254.859C98.8279 255.075 98.9852 255.328 99.2304 255.27C101.592 254.713 104.182 254.421 106.308 253.13C107.548 252.377 108.869 250.859 108.039 249.275ZM102.642 253.668C101.487 253.971 100.326 254.214 99.1817 254.561C100.164 253.414 101.093 252.229 102.186 251.185C102.708 250.687 103.253 250.185 103.837 249.765C104.745 249.11 108.163 247.921 107.289 250.953C106.808 252.625 104.019 253.306 102.642 253.668Z" fill="#263238"/>
<path d="M91.9583 253.07C94.0799 254.367 96.6701 254.668 99.0295 255.233C99.2741 255.291 99.4319 255.039 99.4138 254.823C99.4575 254.809 99.4912 254.768 99.4656 254.713C98.4304 252.452 96.506 250.161 94.4636 248.801C93.2019 247.962 91.1209 247.539 90.2385 249.21C89.403 250.791 90.7196 252.313 91.9583 253.07ZM90.983 250.89C90.1187 247.855 93.5333 249.056 94.4387 249.713C95.0209 250.134 95.5644 250.638 96.0848 251.138C97.1749 252.185 98.1009 253.373 99.08 254.523C97.9374 254.173 96.7762 253.926 95.6218 253.619C94.2465 253.253 91.4591 252.563 90.983 250.89Z" fill="#263238"/>
<path d="M104.13 247.842L75.1234 235.716C75.1234 235.716 111.088 180.971 111.355 176.897C111.59 173.287 95.7934 141.878 95.1706 132.724C94.4986 122.845 99.0937 115.199 104.143 110.454L134.066 123.623C134.066 123.623 130.908 128.854 125.933 131.765C125.933 131.765 141.279 168.071 140.408 179.234C139.533 190.458 104.13 247.842 104.13 247.842Z" fill="#37474F"/>
<path d="M105.419 242.132C101.224 240.265 102.453 240.739 98.2382 238.92C96.1759 238.03 82.617 232.196 80.5528 231.715C80.5073 231.705 80.4779 231.779 80.5179 231.804C82.3225 232.948 95.9768 238.537 98.0554 239.386C102.303 241.121 101.102 240.575 105.368 242.26C105.449 242.291 105.497 242.167 105.419 242.132Z" fill="#263238"/>
<path d="M130.86 131.101C127.742 131.795 124.684 132.935 121.746 134.161C121.631 134.209 121.685 134.386 121.809 134.349C124.867 133.424 127.979 132.56 130.981 131.468C131.217 131.382 131.099 131.048 130.86 131.101Z" fill="#263238"/>
<path d="M127.31 129.826C127.015 130.358 126.764 130.919 126.541 131.486C126.368 131.925 126.146 132.397 126.148 132.877C126.149 132.97 126.27 132.993 126.326 132.936C126.673 132.582 126.858 132.065 127.078 131.624C127.332 131.113 127.598 130.606 127.838 130.088C127.997 129.744 127.491 129.498 127.31 129.826Z" fill="#263238"/>
<path d="M127.673 126.914C127.856 126.437 128.041 125.961 128.235 125.489C128.435 125 128.668 124.518 128.831 124.015C128.857 123.935 128.978 123.989 128.948 124.069C128.765 124.546 128.646 125.055 128.499 125.546C128.352 126.039 128.196 126.529 128.039 127.018C127.746 127.93 127.387 128.834 127.009 129.714C127.498 129.708 128.002 129.685 128.447 129.456C128.93 129.206 129.222 128.675 129.46 128.195C129.724 127.662 129.967 127.117 130.238 126.588C130.538 126.003 130.87 125.424 131.068 124.79C131.093 124.71 131.212 124.764 131.185 124.844C130.734 126.152 130.291 127.458 129.59 128.664C129.315 129.137 129.092 129.63 128.585 129.816C128.04 130.015 127.444 129.976 126.877 129.933C126.807 129.953 126.716 129.907 126.741 129.819C127.008 128.844 127.31 127.856 127.673 126.914Z" fill="#263238"/>
<path d="M126.401 132.947C127.464 135.281 128.399 137.607 129.393 139.933C130.365 142.205 131.275 144.504 132.158 146.814C133.942 151.483 135.541 156.236 136.943 161.043C137.637 163.422 138.276 165.817 138.854 168.229C139.433 170.647 139.999 173.089 140.239 175.572C140.48 178.063 140.308 180.527 139.638 182.936C138.958 185.379 138.062 187.514 136.997 189.8C136.347 191.197 136.123 191.009 136.438 190.303C137.331 188.303 139.67 182.238 139.5 177.139C139.418 174.679 138.93 172.257 138.394 169.866C137.846 167.426 137.228 165.004 136.553 162.598C135.224 157.858 133.645 153.212 132.021 148.574C131.111 145.975 130.135 143.403 129.211 140.81C128.281 138.197 127.322 135.847 126.29 132.994C126.262 132.919 126.368 132.875 126.401 132.947Z" fill="#263238"/>
<path d="M104.376 125.238C104.896 125.039 105.617 125.369 106.147 125.46C106.826 125.579 107.513 125.65 108.202 125.675C108.881 125.699 109.566 125.67 110.241 125.602C110.917 125.534 111.607 125.447 112.194 125.068C113.184 124.428 114.012 123.301 114.683 122.331C115.42 121.265 116.185 120.038 116.624 118.803C116.651 118.728 116.757 118.779 116.734 118.854C116.515 119.574 116.353 120.3 116.075 121.004C115.814 121.666 115.476 122.299 115.118 122.909C114.449 124.048 113.682 125.265 112.535 125.942C111.331 126.653 109.78 126.611 108.438 126.531C107.662 126.484 106.889 126.378 106.127 126.212C105.578 126.092 104.654 126.001 104.304 125.502C104.241 125.414 104.274 125.277 104.376 125.238Z" fill="#263238"/>
<path d="M83.4039 229.993C88.1718 222.524 92.8512 214.993 97.4464 207.407C102.053 199.802 106.575 192.141 111.035 184.442C112.101 182.601 113.333 180.76 114.02 178.721C114.767 176.504 114.343 174.356 113.667 172.187C112.426 168.208 110.881 164.337 109.213 160.531C107.54 156.714 105.739 152.961 103.967 149.193C102.21 145.456 100.34 141.707 99.007 137.78C97.734 134.028 97.2492 130.138 98.2264 126.247C99.196 122.387 101.293 118.92 103.484 115.685C104.061 114.832 104.65 113.986 105.23 113.134C105.274 113.069 105.369 113.148 105.322 113.212C102.909 116.585 100.555 120.155 99.1399 124.115C98.4404 126.071 97.9874 128.131 97.9431 130.222C97.8975 132.343 98.2825 134.447 98.8859 136.467C100.06 140.395 101.912 144.114 103.638 147.803C105.403 151.575 107.215 155.325 108.917 159.129C110.629 162.955 112.23 166.84 113.546 170.834C114.132 172.612 114.785 174.472 114.747 176.377C114.704 178.464 113.742 180.342 112.746 182.102C108.408 189.761 103.905 197.323 99.3458 204.843C94.7694 212.391 90.1025 219.88 85.3632 227.32C84.7654 228.258 84.1664 229.195 83.5667 230.132C83.4925 230.246 83.3302 230.109 83.4039 229.993Z" fill="#263238"/>
<path d="M135.728 88.805C138.429 94.9426 152.073 103.4 158.463 104.309C163.061 104.963 177.02 105.188 181.807 104.431C187.414 103.545 183.13 87.8741 179.816 88.2753C170.706 89.378 162.97 90.6054 160.538 90.6054C157.569 90.6054 141.499 85.2655 139.563 84.5142C134.823 82.6751 134.196 85.3237 135.728 88.805Z" fill="#EB9481"/>
<path d="M135.812 90.4297C139.231 95.6681 150.599 104.231 150.599 104.231L152.176 100.613L157.397 88.6525C157.397 88.6525 146.958 85.2423 140.088 83.7229C139.16 83.5168 138.342 83.3934 137.63 83.3605C133.245 83.1157 132.864 85.9232 135.812 90.4297Z" fill="#C21616"/>
<path d="M135.812 90.4297C139.231 95.6681 150.599 104.231 150.599 104.231L152.176 100.613C147.937 95.5195 141.394 87.7992 137.63 83.3605C133.245 83.1157 132.864 85.9232 135.812 90.4297Z" fill="#263238"/>
<path d="M148.549 101.813C149.416 99.6152 153.275 90.7456 154.233 88.8844C154.3 88.7552 154.394 88.7656 154.341 88.9083C151.898 95.5563 149.589 99.7301 148.634 101.843C148.61 101.896 148.528 101.869 148.549 101.813Z" fill="#263238"/>
<path d="M178.144 88.4464C183.689 87.6932 190.547 86.4057 196.355 88.9581C197.494 89.4587 197.907 90.3379 197.907 90.3379C200.529 91.4342 200.817 93.0453 200.817 93.0453C202.958 94.8405 203.033 96.5305 203.033 96.5305C203.033 96.5305 206.099 97.8522 205.635 99.9032C205.121 102.205 200.916 99.8981 197.855 100.094C190.84 100.541 180.99 103.209 178.979 103.547L178.144 88.4464Z" fill="#EB9481"/>
<path d="M190.185 95.2146C192.252 95.1255 194.28 94.982 196.348 95.1829C198.617 95.4032 200.764 96.0098 202.965 96.5706C203.034 96.588 203.065 96.4911 203 96.4627C199.17 94.7947 194.261 94.3567 190.18 95.1177C190.081 95.1358 190.081 95.2191 190.185 95.2146Z" fill="#263238"/>
<path d="M189.308 90.8709C191.325 90.8993 194.867 90.9736 200.796 93.1119C200.815 93.119 200.833 93.0873 200.813 93.0763C197.142 91.1583 193.378 90.4762 189.31 90.7714C189.184 90.7804 189.175 90.8689 189.308 90.8709Z" fill="#263238"/>
<path d="M188.88 88.5272C192.306 88.7113 194.443 89.2759 197.889 90.3483C197.908 90.3541 197.924 90.3211 197.903 90.3121C194.111 88.668 192.555 88.5162 188.869 88.4051C188.743 88.4006 188.746 88.5201 188.88 88.5272Z" fill="#263238"/>
<path d="M189.435 101.188C188.544 101.62 188.758 102.107 190.462 102.516C192.186 102.934 199.25 103.045 199.001 105.6C198.755 108.164 188.761 107.835 185.973 106.93C183.181 106.031 178.979 103.547 178.979 103.547C180.936 103.205 185.606 101.908 189.435 101.188Z" fill="#EB9481"/>
<path d="M143.147 98.5893C143.104 99.6926 143 100.816 142.85 101.93C142.864 101.89 142.881 101.85 142.895 101.81C143.103 101.229 143.305 100.633 143.557 100.071C143.571 100.041 143.621 100.049 143.615 100.085C143.505 100.695 143.298 101.308 143.074 101.883C142.967 102.158 142.857 102.432 142.743 102.704C142.665 103.2 142.579 103.693 142.482 104.178C142.298 105.102 141.455 109.032 141.264 109.696C141.223 109.835 141.063 109.804 141.073 109.647C141.119 108.924 141.826 104.832 141.969 103.905C142.243 102.126 142.621 100.311 143.081 98.5725C143.091 98.5311 143.149 98.5505 143.147 98.5893Z" fill="#263238"/>
<path d="M136.642 127.956C134.978 128.845 132.832 130.221 123.16 128.25C122.555 128.122 121.948 127.969 121.339 127.781C112.269 124.961 101.391 113.92 100.778 113.141C100.778 113.141 115.182 88.9606 133.61 81.3598C135.887 80.4205 139.658 82.2319 141.745 84.4864C142.491 85.292 144.108 91.2249 143.488 96.0331C142.86 100.834 138.318 127.077 136.642 127.956Z" fill="#C21616"/>
<path d="M135.356 95.8127C135.409 96.3321 135.369 96.8379 135.308 97.3405C135.235 97.8418 135.139 98.3399 134.951 98.8244C134.897 98.305 134.937 97.7992 134.999 97.2966C135.072 96.7953 135.168 96.2972 135.356 95.8127Z" fill="white"/>
<path d="M129.074 112.279C129.127 112.799 129.087 113.304 129.026 113.808C128.953 114.309 128.857 114.807 128.669 115.292C128.615 114.772 128.655 114.266 128.717 113.763C128.791 113.262 128.886 112.764 129.074 112.279Z" fill="white"/>
<path d="M118.395 99.8347C118.448 100.354 118.408 100.86 118.347 101.363C118.274 101.864 118.179 102.362 117.99 102.846C117.937 102.327 117.977 101.821 118.038 101.318C118.113 100.817 118.208 100.319 118.395 99.8347Z" fill="white"/>
<path d="M139.47 111.444C139.523 111.963 139.483 112.469 139.422 112.972C139.349 113.473 139.254 113.971 139.065 114.456C139.012 113.936 139.052 113.43 139.113 112.927C139.187 112.427 139.282 111.929 139.47 111.444Z" fill="white"/>
<path d="M125.758 97.6984C126.26 97.6435 126.749 97.6848 127.235 97.7482C127.719 97.8237 128.2 97.9226 128.668 98.1177C128.166 98.1732 127.678 98.1319 127.192 98.0679C126.708 97.9917 126.227 97.8929 125.758 97.6984Z" fill="white"/>
<path d="M113.64 109.596C114.142 109.541 114.631 109.582 115.116 109.646C115.6 109.721 116.081 109.82 116.549 110.015C116.048 110.071 115.559 110.029 115.074 109.965C114.589 109.889 114.108 109.79 113.64 109.596Z" fill="white"/>
<path d="M127.897 122.471C128.399 122.416 128.887 122.458 129.373 122.521C129.857 122.597 130.338 122.695 130.806 122.89C130.304 122.946 129.816 122.905 129.33 122.841C128.846 122.765 128.365 122.666 127.897 122.471Z" fill="white"/>
<path d="M109.905 117.794C110.406 117.739 110.895 117.781 111.381 117.844C111.865 117.92 112.346 118.018 112.814 118.213C112.313 118.269 111.824 118.228 111.338 118.164C110.854 118.087 110.373 117.988 109.905 117.794Z" fill="white"/>
<path d="M135.264 84.2397C135.766 84.1848 136.254 84.2261 136.74 84.2894C137.224 84.365 137.705 84.4638 138.173 84.6589C137.671 84.7145 137.183 84.6731 136.697 84.6092C136.213 84.5323 135.732 84.4335 135.264 84.2397Z" fill="white"/>
<path d="M131.742 88.3605C131.424 88.7662 131.051 89.095 130.664 89.4057C130.271 89.7068 129.863 89.9891 129.399 90.1932C129.716 89.7869 130.09 89.4581 130.477 89.148C130.87 88.8476 131.278 88.5653 131.742 88.3605Z" fill="white"/>
<path d="M112.525 100.07C112.208 100.476 111.835 100.804 111.448 101.115C111.054 101.416 110.646 101.698 110.182 101.903C110.499 101.497 110.873 101.168 111.26 100.858C111.654 100.557 112.062 100.275 112.525 100.07Z" fill="white"/>
<path d="M136.516 105.359C136.198 105.764 135.825 106.093 135.438 106.404C135.044 106.705 134.637 106.987 134.172 107.191C134.489 106.785 134.863 106.456 135.25 106.146C135.644 105.846 136.052 105.564 136.516 105.359Z" fill="white"/>
<path d="M120.98 115.487C120.662 115.892 120.289 116.221 119.902 116.532C119.508 116.833 119.101 117.115 118.637 117.319C118.954 116.913 119.328 116.584 119.714 116.274C120.108 115.974 120.516 115.692 120.98 115.487Z" fill="white"/>
<path d="M142.469 91.5182C142.152 91.9238 141.778 92.2527 141.392 92.5634C140.998 92.8644 140.59 93.1467 140.125 93.3509C140.442 92.9445 140.816 92.6157 141.203 92.3056C141.598 92.0052 142.006 91.7229 142.469 91.5182Z" fill="white"/>
<path d="M142.144 103.258C141.752 102.929 141.435 102.543 141.134 102.142C140.844 101.735 140.571 101.313 140.374 100.832C140.766 101.16 141.084 101.547 141.383 101.948C141.673 102.356 141.946 102.778 142.144 103.258Z" fill="white"/>
<path d="M107.516 111.343C107.124 111.014 106.806 110.627 106.506 110.227C106.215 109.819 105.943 109.397 105.746 108.917C106.138 109.245 106.456 109.632 106.755 110.033C107.045 110.44 107.318 110.862 107.516 111.343Z" fill="white"/>
<path d="M137.935 120.967C137.543 120.638 137.226 120.252 136.926 119.851C136.635 119.443 136.362 119.022 136.164 118.541C136.557 118.869 136.874 119.256 137.174 119.657C137.465 120.064 137.737 120.487 137.935 120.967Z" fill="white"/>
<path d="M122.69 93.5427C122.298 93.2139 121.981 92.8276 121.681 92.4271C121.39 92.0194 121.117 91.5976 120.92 91.117C121.312 91.4451 121.63 91.8321 121.93 92.2326C122.22 92.6402 122.492 93.0621 122.69 93.5427Z" fill="white"/>
<path d="M122.96 126.443C122.568 126.114 122.25 125.728 121.95 125.327C121.659 124.92 121.387 124.498 121.19 124.017C121.582 124.345 121.9 124.732 122.199 125.133C122.489 125.54 122.761 125.962 122.96 126.443Z" fill="white"/>
<path d="M125.551 107.035C125.159 106.706 124.842 106.32 124.542 105.919C124.251 105.512 123.978 105.09 123.781 104.609C124.174 104.938 124.491 105.324 124.791 105.725C125.081 106.133 125.353 106.554 125.551 107.035Z" fill="white"/>
<path d="M138.358 90.9232C136.01 90.471 133.796 85.4393 133.518 82.0543C133.5 81.8224 134.617 79.9793 135.872 77.6731C136.629 76.2706 137.439 74.6905 138.078 73.1937C138.208 72.8856 138.977 73.9127 138.977 73.9127L140.649 75.2364L146.174 79.6227C146.174 79.6227 143.944 82.3534 142.845 84.9703C142.756 85.19 142.69 85.4025 142.646 85.6131C142.637 85.6428 142.63 85.6803 142.616 85.721C142.301 86.9723 140.627 91.3586 138.358 90.9232Z" fill="#EB9481"/>
<path d="M142.645 85.6138C142.636 85.6435 142.63 85.6809 142.615 85.7216C142.313 85.6338 141.997 85.5091 141.661 85.3463C135.614 82.4122 138.282 74.0245 138.282 74.0245L140.649 75.2371L146.174 79.6234C146.174 79.6234 143.944 82.354 142.845 84.971C142.756 85.1906 142.69 85.4032 142.645 85.6138Z" fill="#263238"/>
<path d="M152.517 61.7453C152.517 61.7453 155.279 63.5619 155.297 66.7906C155.315 70.0199 154.073 73.1789 153.785 73.2919C153.497 73.405 152.517 61.7453 152.517 61.7453Z" fill="#263238"/>
<path d="M138.804 63.421C137.143 66.8158 137.227 77.5045 139.302 80.259C142.309 84.252 148.102 85.6279 151.598 81.6802C154.988 77.8533 154.64 63.9256 152.242 61.3299C148.71 57.5069 141.259 58.4068 138.804 63.421Z" fill="#EB9481"/>
<path d="M147.615 71.9851C147.608 71.9573 147.56 72.0206 147.562 72.051C147.601 72.779 147.527 73.6194 146.895 73.8765C146.876 73.8843 146.878 73.9211 146.902 73.9172C147.676 73.7848 147.764 72.6679 147.615 71.9851Z" fill="#263238"/>
<path d="M146.969 71.2389C145.835 71.1769 145.799 73.529 146.85 73.5865C147.884 73.6427 147.919 71.2906 146.969 71.2389Z" fill="#263238"/>
<path d="M151.465 71.9579C151.47 71.9302 151.519 71.9935 151.518 72.0232C151.484 72.7512 151.565 73.591 152.197 73.8436C152.217 73.8514 152.214 73.8882 152.191 73.8843C151.416 73.7577 151.32 72.642 151.465 71.9579Z" fill="#263238"/>
<path d="M152.105 71.2073C153.238 71.1369 153.291 73.4883 152.241 73.5535C151.208 73.6181 151.155 71.2661 152.105 71.2073Z" fill="#263238"/>
<path d="M146.257 69.4489C146.568 69.3733 146.843 69.2499 147.142 69.1427C147.481 69.0212 147.762 68.9605 147.987 68.6523C148.108 68.487 148.063 68.1859 147.919 68.049C147.583 67.7311 147.134 67.7731 146.721 67.9023C146.272 68.0425 145.962 68.2686 145.7 68.6691C145.446 69.0574 145.848 69.5483 146.257 69.4489Z" fill="#263238"/>
<path d="M152.892 70.4915C152.579 70.4334 152.298 70.3255 151.993 70.2344C151.649 70.1317 151.365 70.0865 151.125 69.7906C150.996 69.6317 151.025 69.3287 151.161 69.1846C151.48 68.8487 151.932 68.8662 152.351 68.9721C152.806 69.0871 153.128 69.2964 153.409 69.6821C153.682 70.0555 153.307 70.5684 152.892 70.4915Z" fill="#263238"/>
<path d="M146.012 78.8876C146.178 79.0607 146.343 79.2984 146.598 79.3249C146.842 79.3501 147.131 79.2403 147.357 79.1537C147.379 79.1453 147.401 79.1699 147.387 79.1918C147.2 79.4683 146.813 79.6369 146.488 79.573C146.17 79.5103 146.017 79.2228 145.944 78.9199C145.934 78.8772 145.988 78.8624 146.012 78.8876Z" fill="#263238"/>
<path d="M150.099 75.7732C150.099 75.7732 150.129 76.8637 150.076 77.3701C150.071 77.4173 148.69 77.1376 147.203 77.4767C146.98 77.5277 147.002 77.3398 147.259 77.217C147.774 76.9709 148.428 76.7403 149.701 76.8817C149.75 76.7454 149.625 75.2041 149.703 75.2067C149.973 75.2131 150.48 75.4612 150.786 75.593C150.788 73.3197 150.437 71.0652 150.471 68.8016C150.474 68.7208 150.587 68.7092 150.602 68.7835C151.132 71.1201 151.185 73.7357 151.243 76.0833C151.253 76.3759 150.286 75.8817 150.099 75.7732Z" fill="#263238"/>
<path d="M148.695 76.9825C148.695 76.9825 148.205 78.2603 147.385 78.6033C146.442 78.9987 146.118 78.1143 147.081 77.3333C147.586 76.9237 148.695 76.9825 148.695 76.9825Z" fill="#263238"/>
<path d="M147.713 78.4043C147.607 78.4883 147.5 78.5594 147.382 78.6046C146.515 78.9664 146.171 78.2493 146.87 77.5258C147.345 77.5645 147.862 77.7454 147.713 78.4043Z" fill="#FF99BA"/>
<path d="M138.327 72.5658C139.468 72.9282 140.781 69.3759 141.152 68.0102C141.479 66.8067 141.856 62.9882 141.912 62.7279C141.967 62.4675 146.886 66.1065 149.762 65.2363C152.639 64.3661 154.56 61.6943 154.6 60.4469C154.64 59.2001 151.069 56.034 147.979 55.8719C144.889 55.7097 140.706 59.7757 140.706 59.7757C140.706 59.7757 142.127 58.0192 142.079 57.8751C142.031 57.7311 140.034 58.5567 139.667 60.0289C139.667 60.0289 140.062 58.1807 139.911 58.1464C139.76 58.1122 138.209 59.6949 138.559 60.8945C138.559 60.8945 136.765 62.5037 136.599 64.2679C136.432 66.0328 136.987 72.1401 138.327 72.5658Z" fill="#263238"/>
<path d="M151.806 64.6149C150.932 65.0315 150.056 65.4895 149.089 65.6213C148.045 65.7641 146.961 65.4928 145.989 65.1065C144.994 64.7124 144.09 64.14 143.269 63.4404C142.55 62.8274 141.912 62.0877 141.144 61.5418C140.952 61.4055 140.729 61.6917 140.847 61.8752C142.014 63.6866 144.077 65.1988 146.066 65.8519C148.158 66.5386 150.125 66.0554 151.817 64.6388C151.827 64.6297 151.82 64.6078 151.806 64.6149Z" fill="#263238"/>
<path d="M139.521 72.2493C139.521 72.2493 137.75 68.527 136.152 69.1304C134.555 69.7338 135.538 74.8772 137.168 75.8191C138.799 76.7609 139.67 75.2157 139.67 75.2157L139.521 72.2493Z" fill="#EB9481"/>
<path d="M136.47 70.5981C136.443 70.591 136.431 70.6304 136.454 70.6446C137.591 71.3462 138.056 72.6117 138.324 73.8901C138.033 73.3682 137.579 73.0355 136.912 73.3843C136.877 73.4024 136.899 73.4586 136.935 73.4567C137.448 73.4256 137.793 73.5716 138.067 74.0368C138.262 74.3662 138.37 74.7609 138.489 75.1246C138.529 75.2461 138.734 75.217 138.712 75.0813C138.71 75.071 138.708 75.0607 138.706 75.0503C138.975 73.4541 138.106 71.0232 136.47 70.5981Z" fill="#263238"/>
<path d="M127.82 88.8625C126.6 96.1804 134.232 120.839 139.146 125.445C146.453 132.295 159.965 136.799 164.861 138.264C166.994 138.903 172.898 123.358 170.74 122.334C166.116 120.142 151.751 115.504 150.399 114.312C149.047 113.121 140.793 100.826 137.123 93.7359C132.2 84.2223 128.437 85.1609 127.82 88.8625Z" fill="#EB9481"/>
<path d="M167.104 120.967C167.104 120.967 173.476 122.648 177.592 123.95C179.889 124.676 183.719 126.285 185.171 127.618C187.342 129.612 195.192 139.384 192.945 141.406C190.91 143.236 185.195 133.953 185.195 133.953C185.195 133.953 191.761 142.792 188.92 144.529C186.079 146.266 180.969 134.889 180.969 134.889C180.969 134.889 187.519 144.127 184.316 145.439C181.895 146.43 176.706 136.396 176.706 136.396C176.706 136.396 182.283 144.377 179.836 145.508C177.131 146.757 171.78 137.806 171.78 137.806C165.092 139.595 161.201 137.615 158.595 135.865C157.964 135.44 167.104 120.967 167.104 120.967Z" fill="#EB9481"/>
<path d="M183.113 130.745C183.921 131.754 184.745 132.77 185.463 133.851C186.182 134.931 186.864 136.038 187.482 137.183C188.997 139.99 189.523 141.993 189.477 141.873C188.402 139.033 185.889 135.125 185.171 134.044C184.454 132.966 183.79 131.851 183.073 130.772C183.055 130.745 183.094 130.721 183.113 130.745Z" fill="#263238"/>
<path d="M179.298 133.359C180.682 134.495 183.586 138.724 184.706 141.557C184.753 141.676 184.691 141.666 184.623 141.559C183.746 140.159 180.203 134.73 179.266 133.381C179.252 133.36 179.28 133.343 179.298 133.359Z" fill="#263238"/>
<path d="M175.635 134.993C177.237 136.635 178.583 138.877 179.641 141.468C179.689 141.585 179.598 141.567 179.532 141.457C178.24 139.278 177.241 137.56 175.569 135.051C175.542 135.011 175.597 134.955 175.635 134.993Z" fill="#263238"/>
<path d="M134.765 89.4006C129.067 81.0582 125.662 84.1506 126.805 93.2055C127.873 101.674 130.74 111.763 130.74 111.763L145.118 104.553C145.118 104.553 138.411 94.7398 134.765 89.4006Z" fill="#C21616"/>
<path d="M138.247 92.6809C138.45 93.159 138.562 93.6532 138.651 94.1512C138.729 94.6519 138.785 95.1558 138.748 95.6771C138.544 95.199 138.433 94.7049 138.344 94.2068C138.267 93.7055 138.211 93.2016 138.247 92.6809Z" fill="white"/>
<path d="M129.74 97.7527C130.201 97.5421 130.679 97.4271 131.16 97.3341C131.643 97.2534 132.13 97.1952 132.634 97.2333C132.172 97.4446 131.695 97.5602 131.213 97.6519C130.73 97.7321 130.243 97.7895 129.74 97.7527Z" fill="white"/>
<path d="M130.11 84.7804C129.927 85.2675 129.669 85.6984 129.392 86.1163C129.106 86.5272 128.8 86.9251 128.419 87.2662C128.601 86.7791 128.86 86.3476 129.137 85.9303C129.424 85.5194 129.729 85.1221 130.11 84.7804Z" fill="white"/>
<path d="M142.241 101.649C142.059 102.135 141.8 102.567 141.523 102.985C141.237 103.396 140.932 103.793 140.55 104.135C140.733 103.647 140.991 103.216 141.269 102.799C141.556 102.388 141.861 101.99 142.241 101.649Z" fill="white"/>
<path d="M132.294 106.709C131.824 106.52 131.408 106.252 131.004 105.965C130.607 105.669 130.223 105.353 129.893 104.958C130.364 105.147 130.78 105.414 131.184 105.702C131.58 105.998 131.964 106.314 132.294 106.709Z" fill="white"/>
<path d="M136.676 91.9116C137.441 93.0014 138.234 94.0699 139.024 95.1403C138.824 94.599 138.65 94.0518 138.496 93.493C138.489 93.4672 138.524 93.4562 138.534 93.4807C138.693 93.909 138.871 94.3315 139.023 94.7624C139.097 94.9698 139.172 95.1758 139.249 95.3819C139.266 95.4265 139.282 95.4704 139.299 95.5143C139.914 96.3496 140.526 97.1868 141.118 98.0389C141.823 99.0564 142.505 100.091 143.189 101.124C143.896 102.191 144.567 103.443 145.314 104.48C145.379 104.57 144.042 105.129 143.917 105.201C143.789 105.275 143.702 105.146 143.838 105.104C143.964 105.064 145.023 104.39 145.036 104.377C144.352 103.335 143.557 102.372 142.84 101.354C142.128 100.341 141.412 99.3296 140.721 98.3005C139.317 96.2101 138.028 94.0382 136.634 91.9387C136.616 91.9122 136.657 91.8851 136.676 91.9116Z" fill="#263238"/>
<path d="M127.159 99.1965C127.377 99.6371 127.612 100.073 127.806 100.526C127.886 100.713 127.964 100.901 128.044 101.088C127.717 99.4756 127.395 97.8619 127.076 96.2469C127.073 96.2282 127.1 96.2185 127.105 96.2379C127.764 98.8522 128.43 101.464 129.041 104.091C129.625 106.595 130.329 109.129 130.663 111.684C130.862 111.617 131.981 111.137 132.013 111.212C132.046 111.288 130.551 112.016 130.531 111.956C129.717 109.459 129.213 106.623 128.659 104.053C128.503 103.33 128.358 102.604 128.209 101.879C128.047 101.442 127.85 101.021 127.659 100.597C127.456 100.148 127.292 99.6778 127.114 99.2179C127.104 99.1914 127.146 99.1707 127.159 99.1965Z" fill="#263238"/>
<path d="M130.968 109.273C132.966 108.107 141.311 103.635 143.178 102.792C143.307 102.733 143.375 102.803 143.248 102.881C137.346 106.522 133.032 108.308 131.016 109.352C130.966 109.377 130.918 109.303 130.968 109.273Z" fill="#263238"/>
<path d="M359.622 279.105H169.502L196.993 117.701H387.112L359.622 279.105Z" fill="#5879C5"/>
<path d="M262.061 100.986H199.84L196.993 117.701H263.581L262.061 100.986Z" fill="#5879C5"/>
<g opacity="0.1">
<path d="M359.622 279.105H169.502L196.993 117.701H387.112L359.622 279.105Z" fill="black"/>
<path d="M262.061 100.986H199.84L196.993 117.701H263.581L262.061 100.986Z" fill="black"/>
</g>
<path d="M193.126 107.804C192.88 106.868 192.825 105.93 192.814 104.994C192.823 104.056 192.878 103.12 193.126 102.183C193.373 103.12 193.429 104.057 193.438 104.994C193.428 105.931 193.372 106.868 193.126 107.804Z" fill="#263238"/>
<path d="M187.597 109.46C186.931 108.776 186.431 107.993 185.969 107.188C185.525 106.372 185.12 105.531 184.882 104.592C185.549 105.275 186.049 106.058 186.509 106.865C186.953 107.681 187.358 108.522 187.597 109.46Z" fill="#263238"/>
<path d="M183.608 113.755C182.702 113.507 181.89 113.089 181.101 112.629C180.322 112.153 179.565 111.635 178.906 110.945C179.813 111.191 180.625 111.61 181.413 112.071C182.191 112.549 182.947 113.066 183.608 113.755Z" fill="#263238"/>
<path d="M182.229 119.54C181.324 119.795 180.418 119.852 179.514 119.863C178.609 119.854 177.703 119.797 176.799 119.54C177.703 119.285 178.609 119.227 179.514 119.217C180.418 119.228 181.323 119.286 182.229 119.54Z" fill="#263238"/>
<path d="M183.827 125.265C183.166 125.954 182.41 126.472 181.632 126.949C180.844 127.41 180.032 127.829 179.125 128.075C179.785 127.385 180.541 126.867 181.32 126.391C182.109 125.931 182.921 125.512 183.827 125.265Z" fill="#263238"/>
<path d="M187.977 129.394C187.737 130.332 187.333 131.173 186.889 131.989C186.429 132.796 185.928 133.579 185.262 134.262C185.5 133.323 185.905 132.482 186.349 131.666C186.811 130.861 187.311 130.078 187.977 129.394Z" fill="#263238"/>
<path d="M193.564 130.822C193.81 131.759 193.866 132.696 193.876 133.633C193.867 134.57 193.812 135.507 193.564 136.444C193.316 135.507 193.262 134.57 193.252 133.633C193.263 132.696 193.318 131.759 193.564 130.822Z" fill="#263238"/>
<path d="M199.093 129.167C199.759 129.851 200.259 130.634 200.721 131.44C201.166 132.256 201.57 133.096 201.808 134.035C201.141 133.352 200.642 132.569 200.181 131.763C199.737 130.946 199.333 130.106 199.093 129.167Z" fill="#263238"/>
<path d="M203.082 124.871C203.989 125.119 204.801 125.538 205.589 125.997C206.369 126.474 207.125 126.992 207.785 127.682C206.877 127.435 206.065 127.017 205.277 126.556C204.499 126.079 203.743 125.56 203.082 124.871Z" fill="#263238"/>
<path d="M204.462 119.086C205.367 118.832 206.273 118.774 207.177 118.763C208.082 118.773 208.988 118.83 209.892 119.086C208.987 119.342 208.082 119.4 207.177 119.409C206.272 119.398 205.367 119.341 204.462 119.086Z" fill="#263238"/>
<path d="M202.863 113.363C203.524 112.673 204.28 112.155 205.058 111.678C205.846 111.218 206.658 110.799 207.565 110.552C206.905 111.242 206.149 111.76 205.37 112.237C204.582 112.696 203.77 113.115 202.863 113.363Z" fill="#263238"/>
<path d="M198.714 109.233C198.954 108.295 199.358 107.454 199.802 106.638C200.262 105.831 200.763 105.048 201.429 104.365C201.191 105.304 200.786 106.145 200.341 106.961C199.88 107.766 199.379 108.549 198.714 109.233Z" fill="#263238"/>
<path d="M359.343 279.105H168.814L141.763 123.56H332.292L359.343 279.105Z" fill="#5879C5"/>
<path d="M207.785 218.646C212.159 218.646 215.704 214.976 215.704 210.448C215.704 205.92 212.159 202.25 207.785 202.25C203.412 202.25 199.866 205.92 199.866 210.448C199.866 214.976 203.412 218.646 207.785 218.646Z" fill="#263238"/>
<path d="M270.388 218.646C274.762 218.646 278.307 214.976 278.307 210.448C278.307 205.92 274.762 202.25 270.388 202.25C266.014 202.25 262.469 205.92 262.469 210.448C262.469 214.976 266.014 218.646 270.388 218.646Z" fill="#263238"/>
<path d="M250.461 219.955L250.027 219.097C249.987 219.019 245.897 211.191 237.665 211.191C230.157 211.191 228.327 218.562 228.253 218.875L228.031 219.814L226.215 219.36L226.433 218.42C226.455 218.329 228.664 209.253 237.665 209.253C247.048 209.253 251.5 217.832 251.685 218.198L252.12 219.055L250.461 219.955Z" fill="#263238"/>
<path d="M262.607 49.6867C259.985 71.2439 237.531 86.8987 212.47 84.6436C202.342 83.7318 193.337 80.0343 186.365 74.5115L163.536 77.3934L174.959 60.4173C172.187 54.6174 171.021 48.1624 171.828 41.5184C174.45 19.9613 196.904 4.3064 221.965 6.56148C247.026 8.81656 265.227 28.1296 262.607 49.6867Z" fill="white"/>
<path d="M262.607 49.6867C261.653 56.852 258.609 63.8755 253.398 69.5825C252.2 71.0769 250.659 72.3257 249.262 73.6784C247.676 74.8658 246.197 76.1697 244.447 77.1855C241.109 79.3965 237.357 81.1303 233.439 82.4578C229.538 83.8704 225.34 84.5444 221.154 84.9775C219.043 85.0751 216.928 85.2405 214.814 85.0814C212.695 85.0405 210.584 84.8452 208.499 84.5161C200.148 83.2153 192.239 79.8531 185.922 74.9288L186.462 75.0721L163.655 78.0831L162 78.302L162.839 77.0469L174.194 60.0377L174.141 60.7086C168.609 49.5056 169.856 36.1641 176.951 25.7249C180.488 20.4983 185.421 15.9944 191.243 12.6354C197.061 9.26694 203.81 7.15517 210.718 6.35046C217.633 5.5615 224.75 6.10322 231.354 7.98981C237.949 9.90001 243.996 13.1125 248.952 17.2715C259.024 25.5092 264.088 37.868 262.607 49.6867ZM262.607 49.6867C263.995 37.8586 258.83 25.5753 248.751 17.4479C243.747 13.3834 237.689 10.3047 231.153 8.51735C224.605 6.75518 217.602 6.33471 210.857 7.20871C204.118 8.09846 197.591 10.2575 192.01 13.6118C186.444 16.9739 181.748 21.3707 178.357 26.421C174.899 31.4603 173.108 37.2334 172.566 43.0286C172.139 48.8427 173.242 54.7276 175.777 60.1275L175.942 60.4787L175.724 60.7999L164.235 77.7414L163.419 76.7052L186.27 73.9525L186.585 73.9147L186.81 74.0958C192.85 78.9728 200.494 82.3775 208.662 83.7775C210.702 84.1318 212.77 84.3539 214.852 84.4247C216.93 84.6137 219.012 84.4814 221.097 84.4168C225.23 84.0515 229.395 83.4499 233.286 82.1082C237.191 80.85 240.966 79.2012 244.293 77.0059C246.043 76.006 247.523 74.7194 249.112 73.5462C250.512 72.2092 252.059 70.9746 253.262 69.4927C258.497 63.8361 261.597 56.8472 262.607 49.6867Z" fill="#9A9A9A"/>
<path d="M186.84 43.832V35.432H188.124L193.392 41.9H192.756V35.432H194.304V43.832H193.02L187.752 37.364H188.388V43.832H186.84ZM199.351 43.916C198.695 43.916 198.111 43.776 197.599 43.496C197.087 43.208 196.683 42.816 196.387 42.32C196.091 41.824 195.943 41.26 195.943 40.628C195.943 39.988 196.091 39.424 196.387 38.936C196.683 38.44 197.087 38.052 197.599 37.772C198.111 37.492 198.695 37.352 199.351 37.352C200.015 37.352 200.603 37.492 201.115 37.772C201.635 38.052 202.039 38.436 202.327 38.924C202.623 39.412 202.771 39.98 202.771 40.628C202.771 41.26 202.623 41.824 202.327 42.32C202.039 42.816 201.635 43.208 201.115 43.496C200.603 43.776 200.015 43.916 199.351 43.916ZM199.351 42.632C199.719 42.632 200.047 42.552 200.335 42.392C200.623 42.232 200.847 42 201.007 41.696C201.175 41.392 201.259 41.036 201.259 40.628C201.259 40.212 201.175 39.856 201.007 39.56C200.847 39.256 200.623 39.024 200.335 38.864C200.047 38.704 199.723 38.624 199.363 38.624C198.995 38.624 198.667 38.704 198.379 38.864C198.099 39.024 197.875 39.256 197.707 39.56C197.539 39.856 197.455 40.212 197.455 40.628C197.455 41.036 197.539 41.392 197.707 41.696C197.875 42 198.099 42.232 198.379 42.392C198.667 42.552 198.991 42.632 199.351 42.632ZM210.546 46.244C209.954 46.244 209.374 46.164 208.806 46.004C208.246 45.852 207.786 45.628 207.426 45.332L208.098 44.204C208.378 44.436 208.73 44.62 209.154 44.756C209.586 44.9 210.022 44.972 210.462 44.972C211.166 44.972 211.682 44.808 212.01 44.48C212.338 44.16 212.502 43.676 212.502 43.028V41.888L212.622 40.436L212.574 38.984V37.424H214.002V42.86C214.002 44.02 213.706 44.872 213.114 45.416C212.522 45.968 211.666 46.244 210.546 46.244ZM210.354 43.544C209.746 43.544 209.194 43.416 208.698 43.16C208.21 42.896 207.822 42.532 207.534 42.068C207.254 41.604 207.114 41.06 207.114 40.436C207.114 39.82 207.254 39.28 207.534 38.816C207.822 38.352 208.21 37.992 208.698 37.736C209.194 37.48 209.746 37.352 210.354 37.352C210.898 37.352 211.386 37.46 211.818 37.676C212.25 37.892 212.594 38.228 212.85 38.684C213.114 39.14 213.246 39.724 213.246 40.436C213.246 41.148 213.114 41.736 212.85 42.2C212.594 42.656 212.25 42.996 211.818 43.22C211.386 43.436 210.898 43.544 210.354 43.544ZM210.582 42.272C210.958 42.272 211.294 42.196 211.59 42.044C211.886 41.884 212.114 41.668 212.274 41.396C212.442 41.116 212.526 40.796 212.526 40.436C212.526 40.076 212.442 39.76 212.274 39.488C212.114 39.208 211.886 38.996 211.59 38.852C211.294 38.7 210.958 38.624 210.582 38.624C210.206 38.624 209.866 38.7 209.562 38.852C209.266 38.996 209.034 39.208 208.866 39.488C208.706 39.76 208.626 40.076 208.626 40.436C208.626 40.796 208.706 41.116 208.866 41.396C209.034 41.668 209.266 41.884 209.562 42.044C209.866 42.196 210.206 42.272 210.582 42.272ZM216.034 43.832V37.424H217.462V39.188L217.294 38.672C217.486 38.24 217.786 37.912 218.194 37.688C218.61 37.464 219.126 37.352 219.742 37.352V38.78C219.678 38.764 219.618 38.756 219.562 38.756C219.506 38.748 219.45 38.744 219.394 38.744C218.826 38.744 218.374 38.912 218.038 39.248C217.702 39.576 217.534 40.068 217.534 40.724V43.832H216.034ZM223.896 43.916C223.24 43.916 222.656 43.776 222.144 43.496C221.632 43.208 221.228 42.816 220.932 42.32C220.636 41.824 220.488 41.26 220.488 40.628C220.488 39.988 220.636 39.424 220.932 38.936C221.228 38.44 221.632 38.052 222.144 37.772C222.656 37.492 223.24 37.352 223.896 37.352C224.56 37.352 225.148 37.492 225.66 37.772C226.18 38.052 226.584 38.436 226.872 38.924C227.168 39.412 227.316 39.98 227.316 40.628C227.316 41.26 227.168 41.824 226.872 42.32C226.584 42.816 226.18 43.208 225.66 43.496C225.148 43.776 224.56 43.916 223.896 43.916ZM223.896 42.632C224.264 42.632 224.592 42.552 224.88 42.392C225.168 42.232 225.392 42 225.552 41.696C225.72 41.392 225.804 41.036 225.804 40.628C225.804 40.212 225.72 39.856 225.552 39.56C225.392 39.256 225.168 39.024 224.88 38.864C224.592 38.704 224.268 38.624 223.908 38.624C223.54 38.624 223.212 38.704 222.924 38.864C222.644 39.024 222.42 39.256 222.252 39.56C222.084 39.856 222 40.212 222 40.628C222 41.036 222.084 41.392 222.252 41.696C222.42 42 222.644 42.232 222.924 42.392C223.212 42.552 223.536 42.632 223.896 42.632ZM231.522 43.916C230.978 43.916 230.498 43.816 230.082 43.616C229.666 43.408 229.342 43.096 229.11 42.68C228.878 42.256 228.762 41.724 228.762 41.084V37.424H230.262V40.88C230.262 41.456 230.39 41.888 230.646 42.176C230.91 42.456 231.282 42.596 231.762 42.596C232.114 42.596 232.418 42.524 232.674 42.38C232.938 42.236 233.142 42.02 233.286 41.732C233.438 41.444 233.514 41.088 233.514 40.664V37.424H235.014V43.832H233.586V42.104L233.838 42.632C233.622 43.048 233.306 43.368 232.89 43.592C232.474 43.808 232.018 43.916 231.522 43.916ZM240.59 43.916C240.07 43.916 239.594 43.796 239.162 43.556C238.738 43.316 238.398 42.956 238.142 42.476C237.894 41.988 237.77 41.372 237.77 40.628C237.77 39.876 237.89 39.26 238.13 38.78C238.378 38.3 238.714 37.944 239.138 37.712C239.562 37.472 240.046 37.352 240.59 37.352C241.222 37.352 241.778 37.488 242.258 37.76C242.746 38.032 243.13 38.412 243.41 38.9C243.698 39.388 243.842 39.964 243.842 40.628C243.842 41.292 243.698 41.872 243.41 42.368C243.13 42.856 242.746 43.236 242.258 43.508C241.778 43.78 241.222 43.916 240.59 43.916ZM237.038 46.16V37.424H238.466V38.936L238.418 40.64L238.538 42.344V46.16H237.038ZM240.422 42.632C240.782 42.632 241.102 42.552 241.382 42.392C241.67 42.232 241.898 42 242.066 41.696C242.234 41.392 242.318 41.036 242.318 40.628C242.318 40.212 242.234 39.856 242.066 39.56C241.898 39.256 241.67 39.024 241.382 38.864C241.102 38.704 240.782 38.624 240.422 38.624C240.062 38.624 239.738 38.704 239.45 38.864C239.162 39.024 238.934 39.256 238.766 39.56C238.598 39.856 238.514 40.212 238.514 40.628C238.514 41.036 238.598 41.392 238.766 41.696C238.934 42 239.162 42.232 239.45 42.392C239.738 42.552 240.062 42.632 240.422 42.632ZM186.9 57.832V51.064C186.9 50.392 187.096 49.856 187.488 49.456C187.888 49.048 188.456 48.844 189.192 48.844C189.456 48.844 189.704 48.872 189.936 48.928C190.176 48.984 190.376 49.072 190.536 49.192L190.128 50.32C190.016 50.232 189.888 50.168 189.744 50.128C189.6 50.08 189.452 50.056 189.3 50.056C188.988 50.056 188.752 50.144 188.592 50.32C188.432 50.488 188.352 50.744 188.352 51.088V51.808L188.4 52.48V57.832H186.9ZM185.844 52.672V51.472H190.116V52.672H185.844ZM193.972 57.916C193.316 57.916 192.732 57.776 192.22 57.496C191.708 57.208 191.304 56.816 191.008 56.32C190.712 55.824 190.564 55.26 190.564 54.628C190.564 53.988 190.712 53.424 191.008 52.936C191.304 52.44 191.708 52.052 192.22 51.772C192.732 51.492 193.316 51.352 193.972 51.352C194.636 51.352 195.224 51.492 195.736 51.772C196.256 52.052 196.66 52.436 196.948 52.924C197.244 53.412 197.392 53.98 197.392 54.628C197.392 55.26 197.244 55.824 196.948 56.32C196.66 56.816 196.256 57.208 195.736 57.496C195.224 57.776 194.636 57.916 193.972 57.916ZM193.972 56.632C194.34 56.632 194.668 56.552 194.956 56.392C195.244 56.232 195.468 56 195.628 55.696C195.796 55.392 195.88 55.036 195.88 54.628C195.88 54.212 195.796 53.856 195.628 53.56C195.468 53.256 195.244 53.024 194.956 52.864C194.668 52.704 194.344 52.624 193.984 52.624C193.616 52.624 193.288 52.704 193 52.864C192.72 53.024 192.496 53.256 192.328 53.56C192.16 53.856 192.076 54.212 192.076 54.628C192.076 55.036 192.16 55.392 192.328 55.696C192.496 56 192.72 56.232 193 56.392C193.288 56.552 193.612 56.632 193.972 56.632ZM201.598 57.916C201.054 57.916 200.574 57.816 200.158 57.616C199.742 57.408 199.418 57.096 199.186 56.68C198.954 56.256 198.838 55.724 198.838 55.084V51.424H200.338V54.88C200.338 55.456 200.466 55.888 200.722 56.176C200.986 56.456 201.358 56.596 201.838 56.596C202.19 56.596 202.494 56.524 202.75 56.38C203.014 56.236 203.218 56.02 203.362 55.732C203.514 55.444 203.59 55.088 203.59 54.664V51.424H205.09V57.832H203.662V56.104L203.914 56.632C203.698 57.048 203.382 57.368 202.966 57.592C202.55 57.808 202.094 57.916 201.598 57.916ZM210.75 51.352C211.262 51.352 211.718 51.452 212.118 51.652C212.526 51.852 212.846 52.16 213.078 52.576C213.31 52.984 213.426 53.512 213.426 54.16V57.832H211.926V54.352C211.926 53.784 211.79 53.36 211.518 53.08C211.254 52.8 210.882 52.66 210.402 52.66C210.05 52.66 209.738 52.732 209.466 52.876C209.194 53.02 208.982 53.236 208.83 53.524C208.686 53.804 208.614 54.16 208.614 54.592V57.832H207.114V51.424H208.542V53.152L208.29 52.624C208.514 52.216 208.838 51.904 209.262 51.688C209.694 51.464 210.19 51.352 210.75 51.352ZM218.113 57.916C217.497 57.916 216.941 57.78 216.445 57.508C215.957 57.228 215.573 56.844 215.293 56.356C215.013 55.868 214.873 55.292 214.873 54.628C214.873 53.964 215.013 53.388 215.293 52.9C215.573 52.412 215.957 52.032 216.445 51.76C216.941 51.488 217.497 51.352 218.113 51.352C218.649 51.352 219.129 51.472 219.553 51.712C219.977 51.944 220.313 52.3 220.561 52.78C220.809 53.26 220.933 53.876 220.933 54.628C220.933 55.372 220.813 55.988 220.573 56.476C220.333 56.956 220.001 57.316 219.577 57.556C219.153 57.796 218.665 57.916 218.113 57.916ZM218.293 56.632C218.653 56.632 218.973 56.552 219.253 56.392C219.541 56.232 219.769 56 219.937 55.696C220.113 55.392 220.201 55.036 220.201 54.628C220.201 54.212 220.113 53.856 219.937 53.56C219.769 53.256 219.541 53.024 219.253 52.864C218.973 52.704 218.653 52.624 218.293 52.624C217.933 52.624 217.609 52.704 217.321 52.864C217.041 53.024 216.813 53.256 216.637 53.56C216.469 53.856 216.385 54.212 216.385 54.628C216.385 55.036 216.469 55.392 216.637 55.696C216.813 56 217.041 56.232 217.321 56.392C217.609 56.552 217.933 56.632 218.293 56.632ZM220.237 57.832V56.32L220.297 54.616L220.177 52.912V48.928H221.665V57.832H220.237Z" fill="#585858" fill-opacity="0.74"/>
</svg>
