<svg width="249" height="311" viewBox="0 0 249 311" fill="none" xmlns="http://www.w3.org/2000/svg">
<path d="M95.6572 283.759C95.6572 283.759 93.8394 270.008 90.0477 258.99L88.3525 258.833C88.3525 258.833 91.4082 272.149 91.9659 283.424L95.6461 283.748L95.6572 283.759Z" fill="url(#paint0_linear_67_3437)"/>
<path d="M55.3564 307.312L29.2715 274L27.9443 275.461C27.9443 275.461 36.788 284.427 42.5426 296.527C42.5426 296.527 34.8476 287.338 26.6507 280.022L25.0002 280.323C25.0002 280.323 32.8513 295.089 35.907 306.765L55.3564 307.312Z" fill="url(#paint1_linear_67_3437)"/>
<path d="M146.962 308.523C147.982 263.167 119 239 119 239L146.962 308.523Z" fill="url(#paint2_linear_67_3437)"/>
<path d="M149 307.607H181.417L204.354 307.622H234.521C235.016 305.964 228.288 295.478 221.433 293.618C220.443 293.348 219.37 293.431 218.268 293.761C211.847 295.688 204.212 306.137 203.919 306.542C204.129 305.829 212.222 278.527 204.407 261.156C202.066 255.958 198.309 251.645 192.481 249.207L181.582 280.762C181.68 280.117 184.433 262.783 189.405 248.255C186.3 247.647 183.33 248.15 180.51 249.507C182.347 269.849 173.257 293.791 172.829 293.221C172.484 292.763 172.072 270.149 171.854 256.55C157.611 273.029 149 307.607 149 307.607Z" fill="url(#paint3_linear_67_3437)"/>
<path style="mix-blend-mode:multiply" opacity="0.5" d="M184.742 307.743H207.679L215.344 307.563C215.344 307.563 213.559 299.754 221.592 293.897C215.172 295.824 207.536 306.272 207.244 306.67C207.454 305.957 215.547 278.655 207.731 261.284C212.314 280.568 191.38 303.977 191.065 304.33L198.386 285.623L184.742 307.735V307.743Z" fill="#A4A4A4"/>
<path d="M40.0234 307.513C40.0234 307.513 33.4827 277.326 22.9267 263.282L19.8017 263C19.8017 263 24.9798 277.162 27.6324 290.289L17.685 269.986L12.8885 271.212C12.8885 271.212 18.7116 292.17 19.184 306.605L15.1505 306.241L11.4986 284.085L9.99969 283.948C9.99969 283.948 12.4888 296.558 12.7977 306.796L40.0234 307.504L40.0234 307.513Z" fill="url(#paint4_linear_67_3437)"/>
<path d="M123.492 289.824C123.492 289.824 124.527 269.683 128.478 258.201L130.245 258.038C130.245 258.038 126.804 277.993 126.223 289.743L123.504 289.813L123.492 289.824Z" fill="url(#paint5_linear_67_3437)"/>
<path fill-rule="evenodd" clip-rule="evenodd" d="M75.4124 307.384C75.4124 307.384 84.6054 308.487 90.052 307.402C91.3397 307.158 92.4089 306.786 93.1261 306.239C93.4685 305.983 93.8613 305.758 94.2719 305.583C98.2273 303.803 105.254 305.153 105.87 305.272C105.903 305.271 105.92 305.271 105.92 305.271L105.773 305.357L101.599 307.772L103.094 307.871L109.618 308.271L110.747 308.345L132.708 307.32C132.708 307.32 130.687 297.103 128.866 292.817C127.028 288.498 128.351 280.975 128.351 280.975C128.351 280.975 104.708 272.837 96.3629 257.109C95.2731 255.094 94.4807 253.04 94.0187 250.928C93.7226 249.558 93.6212 248.002 93.6818 246.277L93.6807 246.227C93.8216 243.654 94.319 240.708 95.1421 237.507C95.7365 235.189 96.5444 232.783 97.3659 230.245C113.02 181.117 154.011 179.232 154.778 176.479C154.916 175.962 154.521 175.357 153.759 174.678C150.494 171.767 140.65 167.529 139.702 162.991C138.548 157.381 160.243 141.606 160.243 141.606L182.113 138.063L187.879 137.137L184.981 135.097L179.88 136.057L156.355 140.516C156.355 140.516 131.657 164.267 122.509 163.694C113.361 163.121 114.255 158.657 113.312 157.982C112.334 157.291 120.308 141.809 120.308 141.809L122.977 116.019L119.976 118.241C119.976 118.241 121.25 131.36 118.019 141.745C114.804 152.129 110.373 159.292 107.457 157.169C90.0805 144.563 89.0109 152.28 85.7981 150.23C83.6115 148.837 78.9961 141.928 76.2801 137.645C74.9914 135.635 74.13 134.195 74.13 134.195L71.7873 135.442C71.7873 135.442 72.8792 136.81 74.4651 138.764C78.1319 143.307 84.4065 151.007 85.7262 152.188C87.6541 153.869 83.3289 149.539 93.0594 152.42C102.806 155.301 111.946 167.994 111.946 167.994L122.413 168.272C122.413 168.272 136.725 171.381 136.58 175.264C136.584 175.43 136.538 175.613 136.476 175.797C134.928 179.943 115.071 185.315 106.763 199.926C106.316 200.682 105.868 201.421 105.404 202.178C105.404 202.178 105.372 202.228 105.357 202.262C105.357 202.262 105.357 202.262 105.324 202.296L105.325 202.329C103.15 205.859 100.765 209.66 98.3325 213.544C97.4529 214.974 96.5725 216.369 95.6759 217.782C93.4031 221.398 91.1642 225.046 89.0711 228.542C87.2184 231.667 85.4632 234.707 83.9352 237.527C83.442 238.45 82.9812 239.339 82.5532 240.211C80.8066 243.632 79.4664 246.697 78.7598 249.183C75.976 258.812 83.6101 270.195 91.4345 278.988C91.4345 278.988 91.4353 279.021 91.4688 279.037C97.882 286.27 96.0509 286.676 97.0434 288.046C99.2496 291.047 75.5276 307.348 75.5276 307.348L75.4124 307.384Z" fill="#AE3033"/>
<path style="mix-blend-mode:multiply" opacity="0.65" fill-rule="evenodd" clip-rule="evenodd" d="M74.3829 138.766C78.0497 143.309 84.3243 151.009 85.6441 152.19C87.5719 153.871 83.2467 149.541 92.9772 152.422C102.724 155.303 111.863 167.996 111.863 167.996L122.331 168.274C122.331 168.274 136.642 171.383 136.498 175.266C141.776 174.069 147.554 173.691 153.727 174.679C150.461 171.768 140.618 167.53 139.67 162.992C138.515 157.381 160.21 141.607 160.21 141.607L182.081 138.064L182.513 137.374L179.847 136.058L156.323 140.517C156.323 140.517 131.625 164.268 122.477 163.695C113.329 163.122 114.223 158.658 113.279 157.983C112.302 157.292 120.276 141.81 120.276 141.81L122.944 116.019L119.944 118.242C119.944 118.242 121.218 131.361 117.987 141.746C114.772 152.13 110.341 159.293 107.425 157.17C90.048 144.564 88.9785 152.28 85.7657 150.231C83.5791 148.838 78.9636 141.929 76.2477 137.646L74.4326 138.765L74.3829 138.766Z" fill="url(#paint6_linear_67_3437)"/>
<path fill-rule="evenodd" clip-rule="evenodd" d="M40.0106 64.2793C43.5759 77.5616 51.4288 92.77 59.2927 100.368C62.4789 103.447 65.6698 105.265 68.5863 105.199C72.9775 105.1 78.9469 99.992 84.7884 92.1511C98.5803 73.6698 111.766 40.0489 102.412 21.5253C102.412 21.5253 47.5883 29.7403 39.6908 43.4632C37.1859 47.8136 37.6936 55.6275 40.0102 64.2627L40.0106 64.2793Z" fill="url(#paint7_linear_67_3437)"/>
<path style="mix-blend-mode:multiply" opacity="0.9" fill-rule="evenodd" clip-rule="evenodd" d="M40.0141 64.437C43.5794 77.7194 51.4323 92.9278 59.2962 100.526C67.3296 97.991 77.1393 94.8189 84.7923 92.3254C98.5842 73.8441 111.77 40.2232 102.416 21.6997C100.663 71.1943 51.0839 68.6308 46.755 67.8165C43.3751 67.1797 43.1923 70.1017 40.0145 64.4536L40.0141 64.437Z" fill="url(#paint8_linear_67_3437)"/>
<path fill-rule="evenodd" clip-rule="evenodd" d="M123.268 6.8813C154.675 24.7612 145.598 47.5794 144.561 50.5956C143.524 53.6118 137.904 54.6416 128.071 47.1762C118.253 39.7022 119.592 4.79021 123.268 6.8813Z" fill="url(#paint9_linear_67_3437)"/>
<path fill-rule="evenodd" clip-rule="evenodd" d="M8.62919 67.336C8.70011 57.4752 19.7572 39.3601 22.9575 39.8741C26.1578 40.3882 32.0437 63.3267 28.4996 67.3221C24.9554 71.3175 8.6172 67.3245 8.6172 67.3245L8.62919 67.336Z" fill="url(#paint10_linear_67_3437)"/>
<path fill-rule="evenodd" clip-rule="evenodd" d="M198.859 57.9074C197.335 44.7117 205.242 40.2231 208.293 39.5243C211.361 38.8418 215.331 51.6839 209.63 57.6648C203.912 63.646 198.859 57.9074 198.859 57.9074Z" fill="url(#paint11_linear_67_3437)"/>
<path fill-rule="evenodd" clip-rule="evenodd" d="M114.64 27.8551C123.032 27.4291 121.715 38.3153 121.404 39.5905C121.093 40.8658 113.004 28.1316 113.004 28.1316L114.64 27.8551Z" fill="url(#paint12_linear_67_3437)"/>
<path fill-rule="evenodd" clip-rule="evenodd" d="M69.3405 6.94386C63.9862 15.0722 71.5819 24.749 71.5819 24.749C71.5819 24.749 75.6614 14.4941 74.3452 10.5282C73.029 6.56234 69.3405 6.94386 69.3405 6.94386Z" fill="url(#paint13_linear_67_3437)"/>
<path style="mix-blend-mode:multiply" opacity="0.65" fill-rule="evenodd" clip-rule="evenodd" d="M101.584 307.773L105.757 305.358C104.15 306.87 103.078 307.872 103.078 307.872L101.584 307.773Z" fill="url(#paint14_linear_67_3437)"/>
<path style="mix-blend-mode:multiply" opacity="0.65" fill-rule="evenodd" clip-rule="evenodd" d="M120.128 288.339C120.137 288.737 120.113 289.135 120.023 289.535C119.384 292.103 110.496 300.841 105.854 305.256C105.238 305.138 98.2108 303.787 94.2554 305.567C93.8448 305.742 93.452 305.967 93.1096 306.223C92.3925 306.77 91.3232 307.142 90.0355 307.387C89.578 303.269 115.576 290.862 116.962 289.074C118.315 287.319 116.649 281.819 116.506 281.375C116.744 281.618 118.088 283.13 119.075 284.997C119.629 286.046 120.07 287.213 120.128 288.339Z" fill="url(#paint15_linear_67_3437)"/>
<path style="mix-blend-mode:multiply" opacity="0.65" fill-rule="evenodd" clip-rule="evenodd" d="M113.258 278.48C112.655 278.229 111.467 277.725 109.942 276.997C109.941 276.98 109.925 276.997 109.908 276.997C109.892 276.998 109.892 276.998 109.875 276.998C102.418 273.452 86.4556 264.776 81.8843 253.937C80.5528 250.768 80.9533 246.465 82.4038 241.674C82.7885 240.355 83.272 239.002 83.8213 237.63C85.3328 234.81 87.1042 231.753 88.9573 228.644C85.1008 237.021 82.7268 245.712 84.975 252.044C88.2659 261.238 96.6838 268.409 103.551 272.996C103.669 273.076 103.804 273.156 103.921 273.22L103.972 273.268C104.948 273.926 105.923 274.517 106.814 275.061C106.865 275.093 106.915 275.125 106.966 275.157C107.066 275.221 107.167 275.285 107.268 275.349C110.075 277.027 112.288 278.104 113.242 278.547L113.258 278.48Z" fill="url(#paint16_linear_67_3437)"/>
<path style="mix-blend-mode:multiply" opacity="0.65" fill-rule="evenodd" clip-rule="evenodd" d="M97.2334 221.428C97.0539 224.499 97.1042 227.465 97.3326 230.245C96.461 232.768 95.7032 235.19 95.1254 237.507C94.3019 240.692 93.805 243.654 93.664 246.227C93.133 240.321 93.7281 232.15 97.25 221.427L97.2334 221.428Z" fill="url(#paint17_linear_67_3437)"/>
<path style="mix-blend-mode:multiply" opacity="0.65" fill-rule="evenodd" clip-rule="evenodd" d="M106.681 199.961C106.683 200.044 106.651 200.094 106.651 200.094C102.288 208.101 99.2484 215.199 97.2335 221.428C97.3579 218.856 97.6962 216.212 98.2334 213.564C100.666 209.663 103.05 205.862 105.209 202.332L105.208 202.299C105.208 202.299 105.24 202.265 105.257 202.264C105.256 202.231 105.289 202.214 105.305 202.197C105.769 201.424 106.216 200.684 106.664 199.961L106.681 199.961Z" fill="url(#paint18_linear_67_3437)"/>
<path style="mix-blend-mode:multiply" opacity="0.65" fill-rule="evenodd" clip-rule="evenodd" d="M120.735 290.995L109.585 308.272L103.06 307.872L101.566 307.773L105.739 305.358L105.837 305.257C105.22 305.138 98.1937 303.788 94.2383 305.568C93.8278 305.743 93.4349 305.967 93.0925 306.224C92.3754 306.77 91.3061 307.142 90.0185 307.387C84.5884 308.471 75.3788 307.369 75.3788 307.369C75.3788 307.369 99.1008 291.068 96.8945 288.067C95.9025 286.713 97.7332 286.29 91.32 279.057C91.3034 279.058 91.2861 279.025 91.2857 279.008C83.4612 270.215 75.8433 258.815 78.611 249.203C79.3176 246.717 80.6574 243.636 82.4044 240.231C82.3821 240.712 82.3756 241.16 82.3695 241.625C82.308 259.498 93.4947 266.674 93.4947 266.674C93.4947 266.674 98.4716 269.761 103.903 273.17L103.954 273.219C104.896 273.811 105.854 274.403 106.797 275.011C106.847 275.044 106.897 275.076 106.948 275.108C107.957 275.748 108.933 276.373 109.859 276.998C109.875 276.998 109.892 276.998 109.892 276.998C113.576 279.352 116.605 281.339 117.281 281.937C117.941 282.503 118.531 283.683 119.041 284.998C119.447 286.1 119.806 287.318 120.095 288.34C120.493 289.84 120.718 290.978 120.718 290.978L120.735 290.995Z" fill="url(#paint19_linear_67_3437)"/>
<path style="mix-blend-mode:screen" opacity="0.6" fill-rule="evenodd" clip-rule="evenodd" d="M128.145 281.394C121.001 284.406 116.893 282.393 116.893 282.393L109.437 276.692L119.139 276.855L128.144 281.377L128.145 281.394Z" fill="url(#paint20_linear_67_3437)"/>
<path fill-rule="evenodd" clip-rule="evenodd" d="M141.975 140.261C141.975 140.261 141.975 140.261 141.992 140.277C151.933 148.823 163.643 154.196 175.416 157.247C201.631 164.034 228.249 159.273 236.726 152.102C249.025 141.695 248.618 80.9588 213.686 70.6544C208.312 69.0678 202.785 69.5239 197.29 71.4217C194.592 72.3612 191.919 73.6317 189.268 75.2001C184.753 77.8715 180.321 81.3535 176.084 85.345C170.272 90.8144 164.846 97.2035 160.1 103.66C147.521 120.755 139.676 138.273 141.975 140.244L141.975 140.261Z" fill="url(#paint21_linear_67_3437)"/>
<path fill-rule="evenodd" clip-rule="evenodd" d="M153.628 76.6929C155.571 83.4947 158.302 88.3089 161.218 88.0278C161.234 88.0247 161.267 88.0186 161.3 88.0124C161.664 87.9773 162.071 87.9003 162.488 87.7877C168.529 86.1908 180.411 77.2995 186.741 63.7558C190.67 55.3553 192.455 45.1668 189.406 33.851C189.406 33.851 165.954 29.0896 155.812 37.2811C152.812 39.7035 151.3 45.1845 150.896 51.7045C150.394 59.7611 151.554 69.3762 153.628 76.6929Z" fill="url(#paint22_linear_67_3437)"/>
<path fill-rule="evenodd" clip-rule="evenodd" d="M133.522 54.2399C150.827 66.6159 145.808 71.2053 137.771 78.764C129.735 86.3393 106.271 83.1708 105.589 71.2825C104.907 59.3941 128.517 50.6556 133.522 54.2399Z" fill="url(#paint23_linear_67_3437)"/>
<path fill-rule="evenodd" clip-rule="evenodd" d="M67.9435 82.5756C68.0058 83.8674 68.1351 85.1908 68.3148 86.5462C70.2579 100.678 78.6064 118.013 88.0554 127.532C89.9045 129.397 91.7966 130.963 93.6968 132.147C94.0164 132.355 94.3354 132.53 94.6543 132.706C97.3407 134.204 100.633 135.356 104.279 136.053C105.095 136.217 105.944 136.347 106.792 136.477C113.511 137.387 121.142 136.85 128.282 134.418C141.642 129.873 153.326 118.668 154.213 97.7084C154.266 96.3809 154.121 95.0579 153.793 93.7721C151.557 85.0356 140.859 77.4844 127.841 72.1409C120.16 68.9815 111.651 66.6035 103.595 65.1934C88.9472 62.6221 75.7483 63.2676 71.4702 68.3874C71.0826 68.8438 70.7292 69.3491 70.4098 69.8868C68.8437 72.4919 68.0571 75.842 67.9437 79.6411C67.9153 80.5868 67.9208 81.5648 67.9767 82.5749L67.9435 82.5756Z" fill="url(#paint24_linear_67_3437)"/>
<path fill-rule="evenodd" clip-rule="evenodd" d="M105.691 112.681C105.726 113.394 105.797 114.123 105.896 114.871C106.968 122.665 111.572 132.227 116.784 137.477C117.804 138.505 118.847 139.369 119.895 140.022C120.072 140.137 120.248 140.233 120.423 140.33C121.905 141.156 123.721 141.792 125.732 142.176C126.182 142.267 126.65 142.339 127.118 142.41C130.824 142.912 135.032 142.616 138.971 141.275C146.339 138.768 152.784 132.587 153.273 121.027C153.302 120.295 153.222 119.566 153.041 118.856C151.808 114.038 145.908 109.873 138.727 106.926C134.491 105.183 129.798 103.872 125.354 103.094C117.276 101.676 109.996 102.032 107.636 104.856C107.423 105.107 107.228 105.386 107.051 105.683C106.188 107.119 105.754 108.967 105.691 111.063C105.676 111.584 105.679 112.124 105.709 112.681L105.691 112.681Z" fill="url(#paint25_linear_67_3437)"/>
<path fill-rule="evenodd" clip-rule="evenodd" d="M53.9093 153.585C57.767 156.3 61.6925 157.604 65.238 156.761C81.5299 152.846 89.9838 143.222 93.7129 132.13C95.6396 126.4 96.2972 120.268 96.1305 114.336C95.7539 100.567 90.8923 87.8778 86.9828 83.6056C86.8126 83.4105 86.6263 83.2324 86.4406 83.0873C85.1047 81.9237 83.2655 81.2357 81.0707 80.9536C77.9611 80.5428 74.1242 80.9609 70.0032 82.0153C69.3272 82.1797 68.6519 82.3773 67.9601 82.5753C64.0571 83.7408 59.9499 85.4084 56.0008 87.4702C46.0209 92.6522 36.9403 100.218 34.1768 107.807C29.446 120.795 41.3088 144.734 53.9262 153.601L53.9093 153.585Z" fill="url(#paint26_linear_67_3437)"/>
<path style="mix-blend-mode:multiply" opacity="0.9" fill-rule="evenodd" clip-rule="evenodd" d="M186.741 63.7559L162.344 87.0224L161.3 88.0125C161.664 87.9774 162.071 87.9004 162.489 87.7878C168.529 86.1909 180.411 77.2995 186.741 63.7559Z" fill="url(#paint27_linear_67_3437)"/>
<path style="mix-blend-mode:multiply" opacity="0.9" fill-rule="evenodd" clip-rule="evenodd" d="M154.197 97.6917C154.25 96.3642 154.104 95.0412 153.776 93.7554L153.695 93.807C153.695 93.807 133.554 117.471 128.265 134.418C141.625 129.873 153.31 118.668 154.197 97.7083L154.197 97.6917Z" fill="url(#paint28_linear_67_3437)"/>
<path style="mix-blend-mode:multiply" opacity="0.5" fill-rule="evenodd" clip-rule="evenodd" d="M141.976 140.26C141.976 140.26 141.976 140.26 141.993 140.277C151.934 148.823 163.644 154.196 175.417 157.246C174.362 156.789 173.158 156.303 171.803 155.786C144.156 145.019 164.235 92.8569 197.309 71.4709L197.308 71.4211C194.593 72.361 191.919 73.6315 189.269 75.1999C184.753 77.8714 180.322 81.3533 176.085 85.3448C170.273 90.8142 164.847 97.2034 160.101 103.66C147.521 120.755 139.676 138.273 141.976 140.244L141.976 140.26Z" fill="url(#paint29_linear_67_3437)"/>
<path style="mix-blend-mode:multiply" opacity="0.9" fill-rule="evenodd" clip-rule="evenodd" d="M182.832 70.0894C178.814 73.4632 175.012 77.6228 171.484 82.2534L181.566 72.6733L182.835 70.1056L182.832 70.0894Z" fill="url(#paint30_linear_67_3437)"/>
<path style="mix-blend-mode:multiply" opacity="0.5" fill-rule="evenodd" clip-rule="evenodd" d="M153.628 76.6932C155.571 83.4949 158.303 88.3091 161.218 88.028C161.235 88.025 161.267 88.0188 161.3 88.0126C161.664 87.9775 162.071 87.9006 162.489 87.788C168.529 86.191 180.411 77.2997 186.741 63.756C190.67 55.3555 192.456 45.1671 189.406 33.8513C188.064 77.5403 158.655 77.7674 156.799 76.2458C155.301 75.0108 152.077 58.1278 150.896 51.7047C150.395 59.7613 151.554 69.3764 153.628 76.6932Z" fill="url(#paint31_linear_67_3437)"/>
<path style="mix-blend-mode:multiply" opacity="0.5" fill-rule="evenodd" clip-rule="evenodd" d="M162.505 87.7849C162.456 87.5243 162.406 87.2637 162.36 87.0194C161.794 84.2925 161.052 82.2399 160.151 81.1283C158.476 79.0495 155.998 77.6286 153.66 76.687C155.604 83.4888 158.335 88.3029 161.251 88.0219C161.267 88.0188 161.3 88.0126 161.332 88.0065C161.697 87.9713 162.104 87.8944 162.521 87.7818L162.505 87.7849Z" fill="url(#paint32_linear_67_3437)"/>
<path style="mix-blend-mode:multiply" opacity="0.5" fill-rule="evenodd" clip-rule="evenodd" d="M160.117 103.676C147.538 120.771 139.692 138.289 141.992 140.26C141.992 140.26 141.992 140.26 142.009 140.276C145.548 138.423 148.91 135.346 151.451 130.381C155.675 122.129 158.571 112.332 160.117 103.676Z" fill="url(#paint33_linear_67_3437)"/>
<path style="mix-blend-mode:multiply" opacity="0.5" fill-rule="evenodd" clip-rule="evenodd" d="M104.262 136.053C111.54 137.481 120.22 137.153 128.265 134.418C141.625 129.873 150.324 120.095 151.211 99.1352C151.264 97.8077 154.103 95.0414 153.776 93.7556C151.54 85.0191 140.842 77.468 127.823 72.1244L120.064 71.3708C154.452 94.3041 130.213 125.936 126.032 130.954C122.851 134.756 110.191 135.771 104.279 136.036L104.262 136.053Z" fill="url(#paint34_linear_67_3437)"/>
<path style="mix-blend-mode:multiply" opacity="0.5" fill-rule="evenodd" clip-rule="evenodd" d="M73.9378 151.426C79.9818 146.681 85.1799 137.511 88.0716 127.515C93.2685 109.46 90.877 88.6738 72.0704 86.1962L68.3476 86.5288L56.1033 87.6004L56.0174 87.4697C59.9669 85.4244 64.0737 83.7403 67.9767 82.5747C67.9207 81.5647 67.9319 80.5863 67.9437 79.641C67.979 80.4691 68.0564 80.9648 68.0564 80.9648C68.0564 80.9648 68.7813 81.4955 70.0198 82.0147C71.9445 82.8169 75.1443 83.5572 78.8598 82.1637C79.6161 81.8814 80.3694 81.4666 81.0707 80.9534C86.0633 77.3759 89.4698 68.8936 86.0586 64.6599C86.0586 64.6599 78.946 63.1788 72.7772 67.5289C71.8144 68.2137 71.0366 69.0105 70.4094 69.8701C70.7289 69.3324 71.0826 68.8436 71.4698 68.3707C75.7317 63.2678 88.9472 62.6219 103.594 65.1767L95.0107 65.3701C95.0107 65.3701 86.5114 70.0379 86.4572 83.0868C86.4509 84.2806 86.5128 85.5558 86.676 86.9116C87.4854 94.1384 91.7382 104.819 96.164 114.352C101.497 125.87 107.073 135.708 107.073 135.708L106.825 136.477C105.977 136.363 105.128 136.216 104.312 136.052C100.682 135.338 97.3904 134.202 94.6875 132.705C94.3685 132.53 94.0492 132.338 93.7299 132.146C90.0008 143.239 81.5634 152.862 65.2549 156.777C61.7094 157.62 57.784 156.316 53.9262 153.601C60.3156 156.093 67.4875 156.528 73.9548 151.442L73.9378 151.426Z" fill="url(#paint35_linear_67_3437)"/>
<path fill-rule="evenodd" clip-rule="evenodd" d="M19.4055 112.101C31.766 113.977 35.6523 136.354 32.3551 140.126C29.058 143.897 9.88814 126.772 12.8318 120.555C15.7754 114.338 19.4055 112.101 19.4055 112.101Z" fill="url(#paint36_linear_67_3437)"/>
<path d="M93.3054 307.641C93.3054 307.641 92.141 300.138 89.9299 294.155L89.0003 294.09C89.0003 294.09 90.8368 301.34 91.281 307.504L93.2991 307.635L93.3054 307.641Z" fill="url(#paint37_linear_67_3437)"/>
<path d="M75.5152 304.823L60.8286 286.913L60.1203 287.729C60.1203 287.729 65.0708 292.527 68.3694 299.079C68.3694 299.079 64.0447 294.144 59.4685 290.242L58.5689 290.427C58.5689 290.427 63.0478 298.411 64.8641 304.763L75.5152 304.823Z" fill="url(#paint38_linear_67_3437)"/>
<path d="M59 307.948C59 307.948 67.3679 269.328 80.8728 251.36L84.8708 251C84.8708 251 78.2462 269.119 74.8525 285.913L87.5787 259.937L93.7152 261.506C93.7152 261.506 86.2654 288.319 85.6611 306.786L90.8213 306.321L95.4934 277.975L97.411 277.801C97.411 277.801 94.2266 293.932 93.8314 307.03L59 307.937L59 307.948Z" fill="url(#paint39_linear_67_3437)"/>
<defs>
<linearGradient id="paint0_linear_67_3437" x1="92.0864" y1="282.524" x2="100.715" y2="278.461" gradientUnits="userSpaceOnUse">
<stop stop-color="#3CA27C"/>
<stop offset="1" stop-color="#8BE6C4"/>
</linearGradient>
<linearGradient id="paint1_linear_67_3437" x1="40.517" y1="305.662" x2="54.449" y2="285.259" gradientUnits="userSpaceOnUse">
<stop stop-color="#3CA27C"/>
<stop offset="1" stop-color="#8BE6C4"/>
</linearGradient>
<linearGradient id="paint2_linear_67_3437" x1="156.939" y1="319.348" x2="113.027" y2="310.633" gradientUnits="userSpaceOnUse">
<stop stop-color="#46B38B"/>
<stop offset="1" stop-color="#48BF92"/>
</linearGradient>
<linearGradient id="paint3_linear_67_3437" x1="264.96" y1="316.905" x2="171.976" y2="251.137" gradientUnits="userSpaceOnUse">
<stop stop-color="#46B38B"/>
<stop offset="1" stop-color="#48BF92"/>
</linearGradient>
<linearGradient id="paint4_linear_67_3437" x1="20.4561" y1="308.587" x2="45.0391" y2="272.596" gradientUnits="userSpaceOnUse">
<stop offset="0.0001" stop-color="#3A9E79"/>
<stop offset="1" stop-color="#56C59B"/>
</linearGradient>
<linearGradient id="paint5_linear_67_3437" x1="125.721" y1="285.613" x2="110.97" y2="264.033" gradientUnits="userSpaceOnUse">
<stop stop-color="#62DDAF"/>
<stop offset="1" stop-color="#74D6B1"/>
</linearGradient>
<linearGradient id="paint6_linear_67_3437" x1="144.28" y1="242.517" x2="106.739" y2="-5.00697" gradientUnits="userSpaceOnUse">
<stop stop-color="#880041"/>
<stop offset="0.09" stop-color="#96194B"/>
<stop offset="0.33" stop-color="#BA5665"/>
<stop offset="0.55" stop-color="#D7877A"/>
<stop offset="0.74" stop-color="#EBA988"/>
<stop offset="0.9" stop-color="#F8BF91"/>
<stop offset="1" stop-color="#FDC795"/>
</linearGradient>
<linearGradient id="paint7_linear_67_3437" x1="24.7356" y1="138.003" x2="45.8338" y2="31.9448" gradientUnits="userSpaceOnUse">
<stop stop-color="#205B45"/>
<stop offset="1" stop-color="#46B78D"/>
</linearGradient>
<linearGradient id="paint8_linear_67_3437" x1="58.0651" y1="37.7858" x2="132.431" y2="113.982" gradientUnits="userSpaceOnUse">
<stop stop-color="white"/>
<stop offset="1" stop-color="#582EA4"/>
</linearGradient>
<linearGradient id="paint9_linear_67_3437" x1="138.924" y1="77.0344" x2="126.769" y2="16.155" gradientUnits="userSpaceOnUse">
<stop stop-color="#205B45"/>
<stop offset="1" stop-color="#46B78D"/>
</linearGradient>
<linearGradient id="paint10_linear_67_3437" x1="51.483" y1="50.9985" x2="18.9165" y2="72.4423" gradientUnits="userSpaceOnUse">
<stop stop-color="#205B45"/>
<stop offset="1" stop-color="#46B78D"/>
</linearGradient>
<linearGradient id="paint11_linear_67_3437" x1="178.853" y1="85.4161" x2="198.671" y2="39.3681" gradientUnits="userSpaceOnUse">
<stop stop-color="#45A883"/>
<stop offset="1" stop-color="#46B78D"/>
</linearGradient>
<linearGradient id="paint12_linear_67_3437" x1="122.846" y1="58.3025" x2="127.803" y2="30.5024" gradientUnits="userSpaceOnUse">
<stop stop-color="#45A883"/>
<stop offset="1" stop-color="#46B78D"/>
</linearGradient>
<linearGradient id="paint13_linear_67_3437" x1="57.6048" y1="46.0719" x2="79.7592" y2="15.6322" gradientUnits="userSpaceOnUse">
<stop stop-color="#45A883"/>
<stop offset="1" stop-color="#46B78D"/>
</linearGradient>
<linearGradient id="paint14_linear_67_3437" x1="100.922" y1="305.81" x2="107.528" y2="308.534" gradientUnits="userSpaceOnUse">
<stop stop-color="#880041"/>
<stop offset="0.09" stop-color="#96194B"/>
<stop offset="0.33" stop-color="#BA5665"/>
<stop offset="0.55" stop-color="#D7877A"/>
<stop offset="0.74" stop-color="#EBA988"/>
<stop offset="0.9" stop-color="#F8BF91"/>
<stop offset="1" stop-color="#FDC795"/>
</linearGradient>
<linearGradient id="paint15_linear_67_3437" x1="103.241" y1="306.002" x2="113.247" y2="264.453" gradientUnits="userSpaceOnUse">
<stop stop-color="#880041"/>
<stop offset="0.09" stop-color="#96194B"/>
<stop offset="0.33" stop-color="#BA5665"/>
<stop offset="0.55" stop-color="#D7877A"/>
<stop offset="0.74" stop-color="#EBA988"/>
<stop offset="0.9" stop-color="#F8BF91"/>
<stop offset="1" stop-color="#FDC795"/>
</linearGradient>
<linearGradient id="paint16_linear_67_3437" x1="60.8996" y1="237.247" x2="157.145" y2="277.091" gradientUnits="userSpaceOnUse">
<stop stop-color="#880041"/>
<stop offset="0.09" stop-color="#96194B"/>
<stop offset="0.33" stop-color="#BA5665"/>
<stop offset="0.55" stop-color="#D7877A"/>
<stop offset="0.74" stop-color="#EBA988"/>
<stop offset="0.9" stop-color="#F8BF91"/>
<stop offset="1" stop-color="#FDC795"/>
</linearGradient>
<linearGradient id="paint17_linear_67_3437" x1="89.7316" y1="231.827" x2="103.577" y2="237.57" gradientUnits="userSpaceOnUse">
<stop stop-color="#880041"/>
<stop offset="0.09" stop-color="#96194B"/>
<stop offset="0.33" stop-color="#BA5665"/>
<stop offset="0.55" stop-color="#D7877A"/>
<stop offset="0.74" stop-color="#EBA988"/>
<stop offset="0.9" stop-color="#F8BF91"/>
<stop offset="1" stop-color="#FDC795"/>
</linearGradient>
<linearGradient id="paint18_linear_67_3437" x1="98.5611" y1="209.661" x2="104.469" y2="212.095" gradientUnits="userSpaceOnUse">
<stop stop-color="#880041"/>
<stop offset="0.09" stop-color="#96194B"/>
<stop offset="0.33" stop-color="#BA5665"/>
<stop offset="0.55" stop-color="#D7877A"/>
<stop offset="0.74" stop-color="#EBA988"/>
<stop offset="0.9" stop-color="#F8BF91"/>
<stop offset="1" stop-color="#FDC795"/>
</linearGradient>
<linearGradient id="paint19_linear_67_3437" x1="44.3593" y1="259.861" x2="168.072" y2="311.071" gradientUnits="userSpaceOnUse">
<stop stop-color="#880041"/>
<stop offset="0.09" stop-color="#96194B"/>
<stop offset="0.33" stop-color="#BA5665"/>
<stop offset="0.55" stop-color="#D7877A"/>
<stop offset="0.74" stop-color="#EBA988"/>
<stop offset="0.9" stop-color="#F8BF91"/>
<stop offset="1" stop-color="#FDC795"/>
</linearGradient>
<linearGradient id="paint20_linear_67_3437" x1="154.384" y1="328.252" x2="141.105" y2="309.899" gradientUnits="userSpaceOnUse">
<stop stop-color="#882053"/>
<stop offset="1" stop-color="#C4692E"/>
</linearGradient>
<linearGradient id="paint21_linear_67_3437" x1="-6.08725" y1="271.961" x2="49.6992" y2="46.5943" gradientUnits="userSpaceOnUse">
<stop stop-color="#205B45"/>
<stop offset="1" stop-color="#46B78D"/>
</linearGradient>
<linearGradient id="paint22_linear_67_3437" x1="149.889" y1="110.91" x2="152.085" y2="41.7362" gradientUnits="userSpaceOnUse">
<stop stop-color="#205B45"/>
<stop offset="1" stop-color="#46B78D"/>
</linearGradient>
<linearGradient id="paint23_linear_67_3437" x1="48.5707" y1="119.079" x2="63.728" y2="44.7995" gradientUnits="userSpaceOnUse">
<stop stop-color="#45A883"/>
<stop offset="1" stop-color="#46B78D"/>
</linearGradient>
<linearGradient id="paint24_linear_67_3437" x1="50.5412" y1="166.617" x2="63.4046" y2="70.1043" gradientUnits="userSpaceOnUse">
<stop stop-color="#205B45"/>
<stop offset="1" stop-color="#46B78D"/>
</linearGradient>
<linearGradient id="paint25_linear_67_3437" x1="128.001" y1="159.673" x2="133.265" y2="3.69326" gradientUnits="userSpaceOnUse">
<stop stop-color="#46B68C"/>
<stop offset="1" stop-color="#6ACEA8"/>
</linearGradient>
<linearGradient id="paint26_linear_67_3437" x1="20.5941" y1="187.09" x2="39.6182" y2="89.9074" gradientUnits="userSpaceOnUse">
<stop stop-color="#205B45"/>
<stop offset="1" stop-color="#46B78D"/>
</linearGradient>
<linearGradient id="paint27_linear_67_3437" x1="192.439" y1="121.043" x2="160.598" y2="42.9721" gradientUnits="userSpaceOnUse">
<stop stop-color="white"/>
<stop offset="1" stop-color="#582EA4"/>
</linearGradient>
<linearGradient id="paint28_linear_67_3437" x1="135.999" y1="93.559" x2="146.992" y2="138.473" gradientUnits="userSpaceOnUse">
<stop stop-color="white"/>
<stop offset="1" stop-color="#582EA4"/>
</linearGradient>
<linearGradient id="paint29_linear_67_3437" x1="236.548" y1="68.3984" x2="141.474" y2="151.081" gradientUnits="userSpaceOnUse">
<stop stop-color="white"/>
<stop offset="1" stop-color="#582EA4"/>
</linearGradient>
<linearGradient id="paint30_linear_67_3437" x1="186.854" y1="99.9449" x2="170.018" y2="58.6957" gradientUnits="userSpaceOnUse">
<stop stop-color="white"/>
<stop offset="1" stop-color="#582EA4"/>
</linearGradient>
<linearGradient id="paint31_linear_67_3437" x1="182.168" y1="38.93" x2="137.895" y2="103.231" gradientUnits="userSpaceOnUse">
<stop stop-color="white"/>
<stop offset="1" stop-color="#582EA4"/>
</linearGradient>
<linearGradient id="paint32_linear_67_3437" x1="177.157" y1="128.637" x2="144.265" y2="48.0324" gradientUnits="userSpaceOnUse">
<stop stop-color="white"/>
<stop offset="1" stop-color="#582EA4"/>
</linearGradient>
<linearGradient id="paint33_linear_67_3437" x1="176.771" y1="235.767" x2="131.987" y2="38.3753" gradientUnits="userSpaceOnUse">
<stop stop-color="white"/>
<stop offset="1" stop-color="#582EA4"/>
</linearGradient>
<linearGradient id="paint34_linear_67_3437" x1="115.647" y1="56.3668" x2="144.672" y2="183.454" gradientUnits="userSpaceOnUse">
<stop stop-color="white"/>
<stop offset="1" stop-color="#582EA4"/>
</linearGradient>
<linearGradient id="paint35_linear_67_3437" x1="18.1352" y1="53.6564" x2="121.542" y2="148.728" gradientUnits="userSpaceOnUse">
<stop stop-color="white"/>
<stop offset="1" stop-color="#582EA4"/>
</linearGradient>
<linearGradient id="paint36_linear_67_3437" x1="8.5671" y1="152.228" x2="16.942" y2="115.855" gradientUnits="userSpaceOnUse">
<stop stop-color="#205B45"/>
<stop offset="1" stop-color="#46B78D"/>
</linearGradient>
<linearGradient id="paint37_linear_67_3437" x1="91.3359" y1="307.01" x2="96.008" y2="304.679" gradientUnits="userSpaceOnUse">
<stop stop-color="#3CA27C"/>
<stop offset="1" stop-color="#8BE6C4"/>
</linearGradient>
<linearGradient id="paint38_linear_67_3437" x1="67.3735" y1="304.103" x2="74.7467" y2="292.765" gradientUnits="userSpaceOnUse">
<stop stop-color="#3CA27C"/>
<stop offset="1" stop-color="#8BE6C4"/>
</linearGradient>
<linearGradient id="paint39_linear_67_3437" x1="84.0336" y1="309.322" x2="52.5832" y2="263.277" gradientUnits="userSpaceOnUse">
<stop stop-color="#277F1D"/>
<stop offset="0.0001" stop-color="#3A9E79"/>
<stop offset="1" stop-color="#56C59B"/>
</linearGradient>
</defs>
</svg>
