<svg width="42" height="40" viewBox="0 0 42 40" fill="none" xmlns="http://www.w3.org/2000/svg">
<path d="M38.4582 27.885L22.8336 3.0316C21.8403 1.45157 19.5375 1.45159 18.5442 3.0316L2.91957 27.885C1.85895 29.5721 3.07152 31.7667 5.06428 31.7667H36.3135C38.3063 31.7667 39.5188 29.5721 38.4582 27.885Z" stroke="white" stroke-width="2.53333"/>
<path d="M20.204 21.1807L19.7727 12.8137L19.708 10.2475H22.1016L22.037 12.8137L21.6057 21.1807H20.204ZM20.9156 26.4856C20.1393 26.4856 19.5139 25.9465 19.5139 25.0839C19.5139 24.2213 20.1393 23.6391 20.9156 23.6391C21.6704 23.6391 22.2957 24.2213 22.2957 25.0839C22.2957 25.9465 21.6704 26.4856 20.9156 26.4856Z" fill="white"/>
</svg>
