<svg width="30" height="34" viewBox="0 0 30 34" fill="none" xmlns="http://www.w3.org/2000/svg">
<path d="M22.2777 23.3925L25.0531 22.7489L24.0527 30.3361L21.2773 30.9797L22.2777 23.3925Z" fill="#778942"/>
<path d="M13.386 19.0836C13.0351 18.682 12.8147 17.8775 12.8928 17.2848C12.971 16.692 13.3185 16.5357 13.6676 16.9364C14.0167 17.3371 14.2389 18.1425 14.1608 18.7353C14.0826 19.3281 13.7368 19.4841 13.386 19.0836Z" fill="#3D5E2A"/>
<path d="M10.9606 18.658L11.8382 12.0004L15.0682 15.6898L14.94 16.6554L14.0815 15.675C13.8006 15.8767 13.4278 15.7852 13.0551 15.3595L11.9296 14.0744L11.4986 17.3439L12.6241 18.6294C12.9871 19.0452 13.2761 19.6929 13.4394 20.3773L14.3137 21.3758L14.1854 22.3413L10.9606 18.658Z" fill="#3D5E2A"/>
<path d="M11.497 17.3449L11.9281 14.0754L13.0548 15.3603C13.4275 15.7861 13.8002 15.8775 14.0812 15.6758L14.9397 16.6562L14.3121 21.3768L13.4379 20.3784C13.2754 19.6938 12.9857 19.0466 12.6241 18.6323L11.497 17.3449ZM13.6702 16.9372C13.3184 16.5356 12.971 16.6919 12.8928 17.2847C12.8147 17.8775 13.0351 18.6819 13.385 19.0825C13.7349 19.4831 14.0842 19.3277 14.1627 18.737C14.2412 18.1462 14.0205 17.3398 13.6705 16.9392L13.6702 16.9372Z" fill="#839749"/>
<path d="M14.1224 22.8067L14.1838 22.3419L14.312 21.3764L14.9384 16.6564L15.0663 15.6909L15.1281 15.2257L15.2333 15.3459L15.56 15.7193L14.5538 23.3001L14.2271 22.9266L14.135 22.8216L14.1224 22.8067Z" fill="#A43936"/>
<path d="M19.6513 26.7424C19.3094 26.3512 18.9677 26.2443 18.6966 26.3851L16.9789 24.4228L16.9968 24.287C17.3976 24.163 17.7203 23.6013 17.8405 22.6893C17.9606 21.7773 17.8517 20.7281 17.5862 19.8437L17.6032 19.7027L19.2979 21.639C19.4637 22.3022 19.7462 22.9248 20.0973 23.3276L21.4581 24.8802L21.0082 28.2943L19.6513 26.7424ZM18.6269 23.8345C18.5487 24.4273 18.7691 25.2317 19.1195 25.6327C19.4699 26.0336 19.8183 25.878 19.8972 25.2871C19.9762 24.6963 19.7545 23.8896 19.4041 23.4886C19.0537 23.0877 18.7054 23.2438 18.6293 23.8362L18.6269 23.8345Z" fill="#839749"/>
<path d="M16.9968 24.287L17.5863 19.8437C17.8519 20.7289 17.9605 21.7811 17.8405 22.6893C17.7206 23.5975 17.3976 24.163 16.9968 24.287Z" fill="#3D5E2A"/>
<path d="M16.3573 25.3598L17.3631 17.7788L17.7949 18.272L16.7888 25.8532L16.3573 25.3598Z" fill="#A43936"/>
<path d="M14.5539 23.3001L15.5601 15.7194L15.2333 15.346L17.363 17.7788L16.3573 25.3598L16.7888 25.8532L14.5539 23.3001Z" fill="#C8C8C8"/>
<path d="M19.1202 25.6338C18.7692 25.2318 18.5487 24.4273 18.6269 23.8346C18.7051 23.2418 19.0529 23.0854 19.4016 23.4862C19.7503 23.887 19.9731 24.6927 19.8953 25.2854C19.8175 25.8781 19.4708 26.0339 19.1202 25.6338Z" fill="#3D5E2A"/>
<path d="M21.9918 23.6035L21.1142 30.2611L16.8497 25.3897L16.9779 24.4242L18.6967 26.3855C18.9679 26.2447 19.3095 26.3516 19.6514 26.7428L21.0093 28.2933L21.4592 24.8792L20.1009 23.3262C19.7478 22.9216 19.4653 22.299 19.3011 21.6356L17.6064 19.6992L17.7343 18.7342L21.9918 23.6035Z" fill="#3D5E2A"/>
<path d="M10.6741 18.8686L11.6746 11.2814L15.1281 15.2257L15.0663 15.691L11.8366 12.0011L10.9589 18.6579L14.1838 22.342L14.1224 22.8067L14.2271 22.9267L14.5538 23.3001L16.7888 25.8531L16.8506 25.3883L21.1152 30.2597L21.9929 23.6028L17.733 18.7369L17.7949 18.272L22.2777 23.3926L21.2773 30.9797L10.6741 18.8686Z" fill="#A7C05D"/>
<path d="M11.6746 11.2814L14.4504 10.6377L17.904 14.5824L15.1281 15.2257L11.6746 11.2814Z" fill="#54602F"/>
<path d="M15.2333 15.346L18.0087 14.7024L20.1388 17.1351L17.363 17.7788L15.2333 15.346Z" fill="#808080"/>
<path d="M15.1281 15.2257L17.904 14.5824L18.3357 15.077L15.5599 15.7207L15.1281 15.2257Z" fill="#692423"/>
<path d="M17.363 17.7788L20.1388 17.1351L20.5703 17.6284L17.7949 18.272L17.363 17.7788Z" fill="#692423"/>
<path d="M17.7949 18.272L20.5703 17.6284L25.0531 22.7489L22.2778 23.3925L17.7949 18.272Z" fill="#54602F"/>
<path d="M14.7958 9.89396C14.4453 9.49223 14.2249 8.68781 14.3027 8.09549C14.3806 7.50318 14.7288 7.34633 15.0795 7.74678C15.4302 8.14722 15.6504 8.95253 15.5722 9.54532C15.494 10.1381 15.1468 10.2956 14.7958 9.89396Z" fill="#3D5E2A"/>
<path d="M12.9069 8.15531L13.3399 4.88545L14.465 6.17064C14.8377 6.59638 15.2109 6.68775 15.4914 6.48614L16.3499 7.46651L15.7236 12.1869L14.8497 11.1884C14.6872 10.5038 14.3975 9.85667 14.0356 9.44236L12.9069 8.15531ZM15.08 7.74754C14.7287 7.34635 14.3812 7.50225 14.3027 8.09551C14.2242 8.68878 14.4453 9.49226 14.7952 9.89285C15.1451 10.2934 15.4941 10.1385 15.5725 9.54736C15.651 8.95619 15.4303 8.15014 15.0804 7.74955L15.08 7.74754Z" fill="#839749"/>
<path d="M12.3688 9.46865L13.2463 2.81103L16.4764 6.50046L16.3481 7.46599L15.4896 6.48562C15.2091 6.68723 14.836 6.59587 14.4632 6.17012L13.34 4.88545L12.9085 8.15503L14.034 9.44056C14.3975 9.85668 14.686 10.504 14.8498 11.1884L15.7236 12.1869L15.5957 13.1524L12.3688 9.46865Z" fill="#3D5E2A"/>
<path d="M12.0843 9.67887L13.0848 2.09168L16.5384 6.03641L16.4765 6.50126L13.2465 2.81184L12.3688 9.46865L15.5941 13.1527L15.5322 13.6175L12.0843 9.67887Z" fill="#839749"/>
<path d="M15.5322 13.6175L15.5941 13.1526L15.7219 12.1872L16.3483 7.46677L16.4765 6.50124L16.5384 6.03638L16.6431 6.1563L16.9698 6.52972L15.9641 14.1108L15.5449 13.6323L15.5322 13.6175Z" fill="#A43936"/>
<path d="M18.4067 15.0982L18.9977 10.6537C19.2629 11.539 19.3715 12.5912 19.252 13.4998C19.1325 14.4083 18.8074 14.9734 18.4067 15.0982Z" fill="#3D5E2A"/>
<path d="M15.5449 13.6324L15.9641 14.1108L16.9698 6.52975L16.6431 6.15634L18.7728 8.58915L17.7671 16.1702L17.7347 16.1334L15.5449 13.6324Z" fill="#C8C8C8"/>
<path d="M17.7672 16.1706L18.7728 8.58914L19.2047 9.08241L18.199 16.6634L18.1174 16.5703L17.7672 16.1706Z" fill="#A43936"/>
<path d="M21.0615 17.5527C20.7192 17.162 20.3775 17.0547 20.1064 17.1954L18.3887 15.2331L18.4065 15.0974C18.8073 14.9734 19.1305 14.4116 19.2507 13.5C19.371 12.5884 19.2616 11.5389 18.9964 10.654L19.0134 10.5134L20.7085 12.4493C20.8743 13.1124 21.1564 13.7351 21.5079 14.1379L22.8687 15.6904L22.4188 19.1045L21.0615 17.5527ZM20.0357 14.6443C19.9575 15.2366 20.178 16.0415 20.5279 16.4421C20.8778 16.8426 21.2271 16.6873 21.3056 16.0965C21.3841 15.5057 21.1634 14.6997 20.813 14.2988C20.4626 13.8978 20.1142 14.0531 20.0357 14.6443Z" fill="#839749"/>
<path d="M20.5304 16.4441C20.1794 16.0424 19.9589 15.2376 20.0372 14.6452C20.1154 14.0528 20.4628 13.8961 20.812 14.2973C21.1611 14.6984 21.3829 15.5034 21.3051 16.0957C21.2273 16.688 20.8811 16.8445 20.5304 16.4441Z" fill="#3D5E2A"/>
<path d="M23.6876 14.2029L22.6871 21.7901L18.1174 16.5703L18.199 16.6634L18.2604 16.1987L22.5254 21.07L23.4032 14.4135L19.1429 9.54726L19.2047 9.0824L23.6876 14.2029Z" fill="#A7C05D"/>
<path d="M23.4032 14.4135L22.5256 21.0712L18.2612 16.1985L18.3895 15.233L20.1072 17.1953C20.3784 17.0545 20.72 17.1618 21.0623 17.5525L22.4206 19.1055L22.8705 15.6913L21.5122 14.1384C21.1587 13.7338 20.8766 13.1112 20.7124 12.4477L19.0147 10.5132L19.1429 9.54766L23.4032 14.4135Z" fill="#3D5E2A"/>
<path d="M13.0848 2.09169L15.8602 1.44808L19.3138 5.39281L16.5384 6.03642L13.0848 2.09169Z" fill="#54602F"/>
<path d="M16.6432 6.15634L19.419 5.51266L21.5486 7.94547L18.7728 8.58915L16.6432 6.15634Z" fill="#808080"/>
<path d="M16.5384 6.03642L19.3138 5.39281L19.7545 5.88619L16.9687 6.52997L16.5384 6.03642Z" fill="#692423"/>
<path d="M18.7728 8.58909L21.5486 7.94541L21.9805 8.43868L19.2047 9.08236L18.7728 8.58909Z" fill="#692423"/>
<path d="M19.2047 9.08239L21.9805 8.43871L26.4633 13.5592L23.6875 14.2029L19.2047 9.08239Z" fill="#54602F"/>
<path d="M23.6875 14.2029L26.4633 13.5592L25.4629 21.1464L22.6871 21.7901L23.6875 14.2029Z" fill="#778942"/>
<path d="M19.2455 23.9451L22.0213 23.3015L21.0209 30.8887L18.2451 31.5323L19.2455 23.9451Z" fill="#778942"/>
<path d="M10.3538 19.6362C10.0033 19.2345 9.78282 18.4301 9.861 17.8373C9.93917 17.2445 10.2866 17.0882 10.6357 17.4889C10.9848 17.8896 11.2067 18.6951 11.1285 19.2879C11.0503 19.8806 10.7045 20.0367 10.3538 19.6362Z" fill="#3D5E2A"/>
<path d="M7.92673 19.2109L8.80429 12.5533L12.0343 16.2427L11.9061 17.2082L11.0482 16.229C10.7673 16.4307 10.3941 16.3393 10.0214 15.9136L8.89635 14.6284L8.4653 17.8979L9.58995 19.1832C9.95339 19.5989 10.2419 20.2466 10.4057 20.931L11.2799 21.9294L11.1517 22.895L7.92673 19.2109Z" fill="#3D5E2A"/>
<path d="M8.46522 17.8975L8.89627 14.6279L10.0213 15.9131C10.3941 16.3389 10.7672 16.4302 11.0481 16.2286L11.9062 17.209L11.2803 21.9293L10.4061 20.9309C10.2436 20.2463 9.95378 19.5988 9.59191 19.1849L8.46522 17.8975ZM10.638 17.4897C10.2866 17.0882 9.93917 17.2445 9.86064 17.8352C9.78211 18.426 10.0029 19.2324 10.3528 19.633C10.7027 20.0336 11.0516 19.8783 11.1301 19.2875C11.2087 18.6968 10.9879 17.8903 10.638 17.4897Z" fill="#A7C05D"/>
<path d="M11.0901 23.3593L11.152 22.8945L11.2799 21.9294L11.9062 17.209L12.0345 16.2435L12.0962 15.7782L12.2011 15.8985L12.5278 16.272L11.522 23.8526L11.1953 23.4792L11.1032 23.3741L11.0901 23.3593Z" fill="#A43936"/>
<path d="M16.6193 27.2936C16.2773 26.9025 15.9353 26.7956 15.6645 26.9363L13.9464 24.9741L13.9643 24.8384C14.3647 24.7144 14.6879 24.1527 14.808 23.2407C14.9281 22.3287 14.8192 21.2795 14.5537 20.395L14.5707 20.2541L16.2658 22.1903C16.4317 22.8535 16.7137 23.4761 17.0653 23.8789L18.426 25.4315L17.9761 28.8456L16.6193 27.2936ZM15.5948 24.3858C15.5166 24.9786 15.7371 25.783 16.0871 26.184C16.437 26.585 16.7863 26.4292 16.8644 25.8365C16.9426 25.2437 16.7221 24.4388 16.3717 24.0379C16.0213 23.637 15.673 23.793 15.5948 24.3858Z" fill="#A7C05D"/>
<path d="M13.9649 24.8395L14.5544 20.3962C14.82 21.2814 14.9286 22.3336 14.8087 23.2418C14.6887 24.15 14.3653 24.7156 13.9649 24.8395Z" fill="#3D5E2A"/>
<path d="M13.3251 25.9124L14.3312 18.3313L14.7627 18.8246L13.757 26.4057L13.3251 25.9124Z" fill="#A43936"/>
<path d="M11.522 23.8526L12.5278 16.272L12.2011 15.8986L14.3312 18.3313L13.325 25.9124L13.7569 26.4057L11.522 23.8526Z" fill="#C8C8C8"/>
<path d="M16.0883 26.1863C15.7373 25.7843 15.5169 24.9798 15.595 24.387C15.6732 23.7943 16.0207 23.6384 16.3698 24.0387C16.7188 24.439 16.9412 25.2452 16.863 25.838C16.7849 26.4308 16.439 26.5868 16.0883 26.1863Z" fill="#3D5E2A"/>
<path d="M18.9612 24.1558L18.0836 30.8134L13.819 25.942L13.9469 24.9766L15.665 26.9388C15.9357 26.7981 16.2778 26.9049 16.6197 27.2961L17.9776 28.8466L18.4263 25.4327L17.0679 23.8797C16.7144 23.4752 16.4324 22.8526 16.2682 22.1891L14.573 20.2529L14.7014 19.2877L18.9612 24.1558Z" fill="#3D5E2A"/>
<path d="M7.64229 19.4211L8.64274 11.8339L12.0962 15.7782L12.0345 16.2435L8.80435 12.5537L7.92664 19.2105L11.152 22.8945L11.0901 23.3593L11.1953 23.4792L11.522 23.8526L13.7569 26.4057L13.8188 25.9408L18.0834 30.8122L18.9611 24.1554L14.7012 19.2894L14.7626 18.8246L19.2455 23.9451L18.245 31.5323L7.64229 19.4211Z" fill="#A7C05D"/>
<path d="M8.64276 11.8339L11.4182 11.1903L14.8717 15.1351L12.0963 15.7783L8.64276 11.8339Z" fill="#54602F"/>
<path d="M12.2011 15.8986L14.9769 15.2549L17.1066 17.6877L14.3312 18.3313L12.2011 15.8986Z" fill="#808080"/>
<path d="M12.0963 15.7782L14.8717 15.135L15.3038 15.6295L12.528 16.2732L12.0963 15.7782Z" fill="#692423"/>
<path d="M14.3312 18.3313L17.1066 17.6877L17.5385 18.181L14.7627 18.8246L14.3312 18.3313Z" fill="#692423"/>
<path d="M14.7626 18.8246L17.5384 18.1809L22.0213 23.3015L19.2455 23.9451L14.7626 18.8246Z" fill="#54602F"/>
<path d="M15.9653 24.2463L18.7411 23.6026L17.7406 31.1898L14.9648 31.8335L15.9653 24.2463Z" fill="#778942"/>
<path d="M7.07358 19.9374C6.72305 19.5356 6.50261 18.7312 6.58085 18.1388C6.6591 17.5464 7.00648 17.3897 7.3555 17.7901C7.70453 18.1904 7.92647 18.9962 7.84829 19.589C7.77012 20.1818 7.42429 20.3378 7.07358 19.9374Z" fill="#3D5E2A"/>
<path d="M4.64652 19.5121L5.52408 12.8544L8.75413 16.5439L8.62602 17.5102L7.76792 16.5298C7.487 16.7314 7.11386 16.6401 6.74112 16.2143L5.61607 14.9291L5.18461 18.1987L6.31014 19.4842C6.67366 19.9004 6.96214 20.5477 7.12587 21.2321L7.9997 22.2306L7.87266 23.1959L4.64652 19.5121Z" fill="#3D5E2A"/>
<path d="M5.18464 18.1987L5.61609 14.9292L6.74115 16.2144C7.11388 16.6401 7.48703 16.7315 7.76794 16.5298L8.62604 17.5102L7.99972 22.2306L7.1259 21.2321C6.96338 20.5475 6.67368 19.9004 6.31174 19.4861L5.18464 18.1987ZM7.35778 17.791C7.00652 17.3898 6.65899 17.5457 6.58292 18.1385C6.50685 18.7314 6.72512 19.5353 7.07502 19.9359C7.42493 20.3365 7.77381 20.1812 7.85031 19.5908C7.92681 19.0004 7.70804 18.1936 7.35814 17.793L7.35778 17.791Z" fill="#A7C05D"/>
<path d="M7.80994 23.6605L7.87186 23.1961L7.99971 22.2306L8.62603 17.5102L8.75428 16.5447L8.81613 16.0798L8.92089 16.1997L9.24761 16.5732L8.24183 24.1538L7.91518 23.7808L7.823 23.6753L7.80994 23.6605Z" fill="#A43936"/>
<path d="M13.3393 27.5961C12.9974 27.2049 12.6553 27.0981 12.3846 27.2388L10.6665 25.2765L10.6843 25.1408C11.0847 25.0169 11.4079 24.4551 11.5281 23.5435C11.6483 22.6319 11.5394 21.5823 11.2738 20.6975L11.2908 20.5569L12.9859 22.4928C13.1517 23.1559 13.4338 23.7786 13.7853 24.1814L15.1461 25.7339L14.6962 29.148L13.3393 27.5961ZM12.3166 24.6884C12.2383 25.2808 12.4588 26.0856 12.8087 26.4862C13.1587 26.8868 13.5079 26.7314 13.5865 26.1406C13.665 25.5498 13.4441 24.743 13.0937 24.3421C12.7434 23.9412 12.395 24.0972 12.319 24.69L12.3166 24.6884Z" fill="#A7C05D"/>
<path d="M10.6848 25.1407L11.2742 20.6974C11.5398 21.5826 11.6484 22.6348 11.5285 23.5434C11.4087 24.452 11.0854 25.018 10.6848 25.1407Z" fill="#3D5E2A"/>
<path d="M10.0449 26.2136L11.051 18.6325L11.4825 19.1258L10.4768 26.7068L10.0449 26.2136Z" fill="#A43936"/>
<path d="M8.24186 24.1538L9.24765 16.5731L8.92093 16.1997L11.051 18.6325L10.0449 26.2136L10.4768 26.7068L8.24186 24.1538Z" fill="#C8C8C8"/>
<path d="M12.8082 26.4875C12.4572 26.0859 12.2367 25.281 12.315 24.6886C12.3932 24.0963 12.7406 23.9395 13.0897 24.3403C13.4388 24.741 13.661 25.5464 13.5829 26.1392C13.5047 26.7319 13.1589 26.888 12.8082 26.4875Z" fill="#3D5E2A"/>
<path d="M15.6811 24.4578L14.8035 31.1154L10.5379 26.2401L10.6661 25.2745L12.3842 27.2367C12.655 27.096 12.997 27.2029 13.339 27.594L14.6968 29.1446L15.1467 25.7304L13.7884 24.1775C13.4349 23.7729 13.1528 23.1503 12.9886 22.4869L11.2936 20.551L11.4218 19.5855L15.6811 24.4578Z" fill="#3D5E2A"/>
<path d="M4.3621 19.7222L5.36255 12.1351L8.81614 16.0798L8.75429 16.5446L5.52424 12.8552L4.64646 19.5116L7.87187 23.196L7.80994 23.6605L7.91518 23.7807L8.24183 24.1538L10.4768 26.7068L10.5382 26.242L14.8032 31.1133L15.6809 24.4569L11.421 19.5906L11.4825 19.1258L15.9653 24.2463L14.9649 31.8335L4.3621 19.7222Z" fill="#A7C05D"/>
<path d="M5.36254 12.1351L8.13793 11.4914L11.5915 15.4362L8.81612 16.0798L5.36254 12.1351Z" fill="#54602F"/>
<path d="M8.9209 16.1997L11.6967 15.556L13.8264 17.9888L11.051 18.6324L8.9209 16.1997Z" fill="#808080"/>
<path d="M8.81614 16.0798L11.5915 15.4362L12.0232 15.9307L9.24783 16.5744L8.81614 16.0798Z" fill="#692423"/>
<path d="M11.051 18.6324L13.8264 17.9888L14.2582 18.4821L11.4824 19.1258L11.051 18.6324Z" fill="#692423"/>
<path d="M11.4825 19.1258L14.2582 18.4821L18.7411 23.6026L15.9653 24.2463L11.4825 19.1258Z" fill="#54602F"/>
<path d="M11.764 10.4465C11.4131 10.0448 11.1926 9.24041 11.2709 8.64802C11.3491 8.05563 11.6965 7.89892 12.0456 8.29965C12.3947 8.70039 12.6169 9.50533 12.5387 10.0981C12.4605 10.6909 12.1147 10.8469 11.764 10.4465Z" fill="#3D5E2A"/>
<path d="M9.87504 8.70785L10.3061 5.43834L11.4315 6.72347C11.8043 7.14922 12.177 7.24064 12.4579 7.03896L13.3164 8.01933L12.6901 12.7397L11.8159 11.7413C11.6534 11.0567 11.3637 10.4096 11.0021 9.99519L9.87504 8.70785ZM12.0482 8.30007C11.6965 7.89896 11.349 8.05486 11.2709 8.64806C11.1928 9.24125 11.4131 10.0449 11.763 10.4455C12.1129 10.846 12.4622 10.6907 12.5404 10.0979C12.6185 9.50508 12.3981 8.70066 12.0482 8.30007Z" fill="#A7C05D"/>
<path d="M9.33695 10.0212L10.2145 3.36359L13.4445 7.05261L13.3162 8.01815L12.4577 7.03776C12.1768 7.23945 11.8041 7.14802 11.4313 6.72228L10.3061 5.43836L9.87505 8.70787L11.0006 9.9934C11.3637 10.4096 11.6526 11.0569 11.8159 11.7413L12.6901 12.7398L12.5619 13.7053L9.33695 10.0212Z" fill="#3D5E2A"/>
<path d="M9.05211 10.2315L10.0526 2.64429L13.5061 6.58902L13.4447 7.0538L10.2146 3.36438L9.33687 10.0208L12.5619 13.7053L12.5004 14.1701L9.05211 10.2315Z" fill="#A7C05D"/>
<path d="M12.5 14.1701L12.5619 13.7052L12.6901 12.7397L13.3164 8.0193L13.4447 7.05376L13.5061 6.58898L13.6113 6.70883L13.938 7.08224L12.9319 14.6634L12.5131 14.1849L12.5 14.1701Z" fill="#A43936"/>
<path d="M15.3747 15.6499L15.9642 11.2066C16.2298 12.0918 16.3384 13.144 16.2185 14.0526C16.0986 14.9612 15.7755 15.5259 15.3747 15.6499Z" fill="#3D5E2A"/>
<path d="M12.5131 14.1849L12.9319 14.6634L13.938 7.08227L13.6113 6.70886L15.741 9.14167L14.7353 16.7227L14.7029 16.6859L12.5131 14.1849Z" fill="#C8C8C8"/>
<path d="M14.7349 16.7231L15.741 9.14164L16.1728 9.6349L15.1667 17.216L15.0855 17.1228L14.7349 16.7231Z" fill="#A43936"/>
<path d="M18.0293 18.1052C17.6874 17.7145 17.3457 17.6071 17.0745 17.7479L15.3568 15.7856L15.3747 15.6499C15.7755 15.5259 16.0983 14.9641 16.2185 14.0526C16.3387 13.141 16.2297 12.0914 15.9642 11.2065L15.9832 11.0656L17.6779 13.0015C17.8441 13.6646 18.1262 14.2873 18.4773 14.6901L19.8381 16.2427L19.3882 19.6568L18.0293 18.1052ZM17.0049 15.1978C16.9271 15.7901 17.1472 16.595 17.4975 16.9955C17.8478 17.396 18.1963 17.2408 18.2749 16.6479C18.3534 16.0551 18.1323 15.2512 17.7823 14.8502C17.4323 14.4492 17.083 14.6046 17.0046 15.1958L17.0049 15.1978Z" fill="#A7C05D"/>
<path d="M17.4981 16.9967C17.1472 16.595 16.9271 15.7901 17.0049 15.1978C17.0828 14.6055 17.431 14.4486 17.7797 14.8498C18.1285 15.2511 18.3511 16.0559 18.2732 16.6482C18.1954 17.2406 17.8488 17.3971 17.4981 16.9967Z" fill="#3D5E2A"/>
<path d="M20.6557 14.7554L19.6552 22.3426L15.0855 17.1228L15.1667 17.216L15.2286 16.7512L19.4932 21.6225L20.3709 14.9661L16.111 10.0998L16.1729 9.63492L20.6557 14.7554Z" fill="#A7C05D"/>
<path d="M20.3709 14.9661L19.4934 21.6237L15.2287 16.7519L15.357 15.7864L17.0747 17.7487C17.3459 17.6079 17.6875 17.7153 18.0294 18.106L19.3878 19.659L19.8376 16.2448L18.4793 14.6919C18.1263 14.2877 17.8442 13.6646 17.6795 13.0013L15.9832 11.0652L16.111 10.0997L20.3709 14.9661Z" fill="#3D5E2A"/>
<path d="M10.0526 2.64429L12.8284 2.00061L16.282 5.94534L13.5062 6.58902L10.0526 2.64429Z" fill="#54602F"/>
<path d="M13.6113 6.70886L16.3867 6.06525L18.5168 8.49799L15.741 9.14167L13.6113 6.70886Z" fill="#808080"/>
<path d="M13.5061 6.58897L16.2819 5.94529L16.7222 6.43874L13.9368 7.08245L13.5061 6.58897Z" fill="#692423"/>
<path d="M15.741 9.14163L18.5168 8.49795L18.9483 8.99128L16.1729 9.6349L15.741 9.14163Z" fill="#692423"/>
<path d="M16.1729 9.63494L18.9483 8.99133L23.4311 14.1118L20.6557 14.7555L16.1729 9.63494Z" fill="#54602F"/>
<path d="M20.6557 14.7555L23.4311 14.1118L22.4306 21.699L19.6552 22.3427L20.6557 14.7555Z" fill="#778942"/>
<g style="mix-blend-mode:multiply">
<path d="M12.5518 20.3058L10.696 26.9925L9.74032 25.8663L12.5518 20.3058Z" fill="#B3B3B3"/>
</g>
<g style="mix-blend-mode:multiply">
<path d="M12.5518 20.3058L15.1654 19.6315L14.8823 18.9223L16.3336 18.5655L16.3322 11.0104L14.8122 8.08989L10.8745 3.52187L10.5708 7.22163L12.5518 20.3058Z" fill="#B3B3B3"/>
</g>
<path d="M13.9541 10.8319L16.3322 11.0104L12.5057 6.27813L10.128 6.09961L13.9541 10.8319Z" fill="#626F3E"/>
<path d="M6.05219 20.4822C5.82463 21.0293 5.88242 21.7719 6.18129 22.1415C6.48015 22.5111 6.90732 22.3682 7.13494 21.8216C7.36257 21.275 7.30471 20.5319 7.00577 20.162C6.70683 19.792 6.27981 19.9356 6.05219 20.4822Z" fill="#466B30"/>
<path d="M3.24243 22.6334L7.06844 27.3649L9.09625 22.4958L8.86158 22.2058L6.97897 26.7271L3.62182 22.5753L5.50278 18.0588L5.26818 17.7692L3.24243 22.6334Z" fill="#AEC46E"/>
<path d="M3.62424 22.5748L6.98106 26.7271L8.86367 22.2058L8.37619 21.6035L8.02982 22.4274C7.6573 22.489 7.29375 22.829 7.05134 23.4103L6.32056 25.1649L4.67154 23.1251L5.40273 21.3704C5.63736 20.8042 5.71022 20.1244 5.63537 19.5102L5.98734 18.6612L5.49993 18.0593L3.62424 22.5748Z" fill="#466B30"/>
<path d="M5.40464 21.3693C5.63948 20.8043 5.71153 20.1247 5.63668 19.5105L5.98866 18.6614L8.37257 21.6042L8.02985 22.4275C7.65732 22.489 7.29378 22.8291 7.05137 23.4104L6.32059 25.165L4.67157 23.1251L5.40464 21.3693ZM7.13521 21.8207C7.36284 21.2741 7.30472 20.532 7.00578 20.162C6.70684 19.792 6.27981 19.9357 6.05186 20.4828C5.8239 21.0298 5.88242 21.7719 6.18129 22.1415C6.48016 22.5111 6.90733 22.3682 7.13521 21.8207Z" fill="#AEC46E"/>
<path d="M5.25005 17.747L5.26819 17.7692L5.50286 18.0592L5.99027 18.6611L8.37418 21.6039L8.86159 22.2058L9.09626 22.4958L9.12602 22.5318L9.4912 21.6533L5.61523 16.8685L5.25005 17.747Z" fill="#BD413E"/>
<path d="M9.77588 11.5407C9.5484 12.0882 9.60611 12.8304 9.90545 13.2003C10.2048 13.5702 10.631 13.4267 10.859 12.8796C11.0869 12.3325 11.0287 11.59 10.7299 11.2204C10.431 10.8508 10.0039 10.9941 9.77588 11.5407Z" fill="#466B30"/>
<path d="M7.87181 14.1433L9.05106 11.3092C9.3911 11.2105 9.71617 10.8822 9.93823 10.3491L10.8191 8.23167L12.5398 10.3602L11.6591 12.4788C11.4307 13.0281 11.3568 13.6852 11.4212 14.2853L10.2542 17.0872C10.2607 16.1753 9.98817 15.225 9.48453 14.6022C8.9809 13.9794 8.37112 13.8406 7.87181 14.1433ZM10.8613 12.8788C11.0885 12.3322 11.0307 11.5896 10.7319 11.22C10.433 10.8505 10.0058 10.9933 9.77761 11.5413C9.54939 12.0892 9.60811 12.8301 9.90745 13.2C10.2068 13.5699 10.633 13.4264 10.8613 12.8788Z" fill="#AEC46E"/>
<path d="M7.67725 14.2893L10.237 17.4492C10.2474 17.3306 10.2534 17.2104 10.2542 17.0893C10.2606 16.1774 9.98814 15.2271 9.48451 14.6043C8.98087 13.9815 8.37135 13.8418 7.87183 14.1433C7.80253 14.1858 7.73739 14.2347 7.67725 14.2893Z" fill="#466B30"/>
<path d="M6.65803 14.3607L10.5341 19.1459L10.8993 18.2674L7.02362 13.4821L6.65803 14.3607Z" fill="#BD413E"/>
<path d="M5.61526 16.8685L9.49123 21.6533L9.12605 22.5318L10.8993 18.2674L10.8715 18.2331L10.6368 17.9431L10.2366 17.4492L7.67728 14.2893L7.27801 13.7961L7.04341 13.5065L7.02363 13.4821L10.8993 18.2674L10.5341 19.1459L6.65805 14.3607L5.61526 16.8685Z" fill="#E6E6E6"/>
<path d="M13.5746 10.8897L10.2175 6.73785L7.27807 13.7965L7.67726 14.2893C7.7374 14.2347 7.80255 14.1858 7.87184 14.1433L9.05109 11.3092C9.39113 11.2105 9.7162 10.8822 9.93826 10.3491L10.8191 8.23164L12.5398 10.3602L11.6589 12.4772C11.4299 13.0282 11.356 13.6853 11.4204 14.2854L10.2535 17.0873C10.2526 17.2084 10.2467 17.3287 10.2362 17.4472L10.6361 17.9415L13.5746 10.8897Z" fill="#466B30"/>
<path d="M13.9541 10.8319L10.1279 6.09959L7.04335 13.5065L7.27795 13.7961L10.2174 6.73784L13.5745 10.8893L10.6367 17.9431L10.8714 18.2331L13.9541 10.8319Z" fill="#AEC46E"/>
<path d="M7.06843 27.3649L9.44613 27.5435L11.4743 22.6738L9.09624 22.4958L7.06843 27.3649Z" fill="#8D9F59"/>
<path d="M9.12602 22.5318L11.5037 22.7103L13.2773 18.4454L10.8992 18.2674L9.12602 22.5318Z" fill="#BBBBBB"/>
<path d="M10.8714 18.2331L13.2495 18.4111L16.3322 11.0104L13.9541 10.8319L10.8714 18.2331Z" fill="#8D9F59"/>
<path d="M10.8992 18.2674L10.534 19.1459L12.9427 19.2677L13.2773 18.4454L10.8992 18.2674Z" fill="#692423"/>
<path d="M9.4912 21.6533L9.12602 22.5318L11.5037 22.7103L11.8504 21.8763L9.4912 21.6533Z" fill="#692423"/>
<g style="mix-blend-mode:multiply">
<path d="M16.6623 28.7659L17.1722 23.9522L17.182 23.9838L16.5893 23.3017L16.2962 22.9578C16.1979 22.8434 16.1018 22.7278 16.0049 22.6123L15.7152 22.2658C15.6184 22.1507 15.523 22.0341 15.4272 21.9176L15.141 21.5679L14.8578 21.216L14.8646 21.2098L15.1698 21.5436L15.4715 21.8798C15.5716 21.9922 15.6724 22.104 15.7715 22.2179L16.0696 22.5572C16.1691 22.6705 16.2688 22.7834 16.3667 22.8974L16.6616 23.2398L17.243 23.9293L17.2547 23.9435L17.2528 23.9609L16.6729 28.7665L16.6623 28.7659Z" fill="#B3B3B3"/>
</g>
<g style="mix-blend-mode:multiply">
<path d="M23.4357 26.5765L23.5233 25.6932L23.6134 24.8102L23.704 23.9272L23.7515 23.4857L23.7779 23.2652C23.7867 23.1919 23.7961 23.1186 23.806 23.0451L23.8138 23.0754C23.7169 22.9312 23.62 22.7869 23.528 22.6402C23.4809 22.5651 23.4337 22.4942 23.3873 22.4207C23.3409 22.3472 23.2949 22.2736 23.2503 22.1985L23.2578 22.1934C23.3115 22.2611 23.3655 22.3299 23.4193 22.3984C23.4732 22.4668 23.5244 22.5366 23.5771 22.6057C23.683 22.7437 23.7855 22.8841 23.8877 23.0249L23.8966 23.0375L23.895 23.0548C23.8884 23.1285 23.8792 23.2023 23.8721 23.2756L23.8478 23.4959L23.7917 23.9364L23.6777 24.8168L23.5645 25.6968L23.4484 26.5772L23.4357 26.5765Z" fill="#B3B3B3"/>
</g>
<g style="mix-blend-mode:multiply">
<path d="M22.3851 17.3981L22.7964 14.2655L22.8036 14.2875L20.683 11.9819C20.5061 11.7897 20.3321 11.5948 20.1571 11.401L19.6358 10.816C19.4615 10.6216 19.2908 10.4241 19.1186 10.2277C18.9464 10.0313 18.7761 9.83331 18.6065 9.63479L18.6133 9.62857C18.7952 9.81631 18.9758 10.005 19.155 10.1946C19.3341 10.3852 19.5145 10.5739 19.6916 10.767L20.2245 11.34C20.4006 11.5327 20.5778 11.7245 20.7525 11.9184L22.8451 14.2502L22.8539 14.2599L22.852 14.2727L22.3949 17.3993L22.3851 17.3981Z" fill="#B3B3B3"/>
</g>
<g style="mix-blend-mode:multiply">
<path d="M24.6393 21.3029L25.0439 18.2152L24.7306 21.3135L24.6393 21.3029Z" fill="#B3B3B3"/>
</g>
<g style="mix-blend-mode:multiply">
<path d="M18.7932 31.3598L19.2329 28.1342L18.8842 31.3708L18.7932 31.3598Z" fill="#B3B3B3"/>
</g>
<g style="mix-blend-mode:multiply">
<path d="M12.6458 15.886C12.6508 15.8579 12.6581 15.8303 12.6676 15.8034L12.6953 15.7235L12.7509 15.5644L12.8674 15.2483L13.1074 14.6153C13.2679 14.1952 13.4309 13.7757 13.5962 13.357L14.0891 12.1029L14.5837 10.8485L14.5891 10.8934C14.445 10.6999 14.304 10.5047 14.1626 10.3099C14.0912 10.2129 14.0223 10.1142 13.952 10.0161L13.7421 9.72214C13.6014 9.52644 13.4636 9.32855 13.3256 9.13153C13.2564 9.03286 13.1876 8.93411 13.1194 8.83442C13.0512 8.73472 12.9828 8.6359 12.9156 8.53687L12.923 8.53139C12.9982 8.62569 13.0718 8.72108 13.1458 8.816C13.2199 8.91091 13.2935 9.0063 13.3669 9.10217C13.5131 9.29357 13.6601 9.48482 13.8029 9.67807L14.021 9.96684C14.0932 10.0633 14.1662 10.1593 14.2372 10.2564C14.3805 10.4504 14.5237 10.6435 14.6644 10.8392L14.6798 10.8603L14.6702 10.8841L14.1564 12.131L13.6471 13.3801L13.1409 14.6303L12.8908 15.258L12.7684 15.5714L12.7092 15.7289C12.6888 15.7808 12.6718 15.8339 12.6582 15.888L12.6458 15.886Z" fill="#B3B3B3"/>
</g>
</svg>
