<svg width="174" height="144" viewBox="0 0 174 144" fill="none" xmlns="http://www.w3.org/2000/svg">
<path opacity="0.2" d="M162.471 18.036H55.556L48.764 122.943H162.471C168.629 122.943 173.667 117.905 173.667 111.747V29.231C173.667 23.074 168.629 18.036 162.471 18.036Z" fill="#C7C7C7"/>
<path d="M152.513 113.614H21.483C15.325 113.614 10.287 108.576 10.287 102.418V19.902C10.287 13.744 15.325 8.70599 21.483 8.70599H152.514C158.672 8.70599 163.71 13.744 163.71 19.902V102.418C163.709 108.576 158.671 113.614 152.513 113.614Z" fill="#C7C7C7"/>
<path d="M6.71302 7.50301C6.45702 7.50301 6.20102 7.40501 6.00602 7.21001L4.21302 5.41701C3.82202 5.02601 3.82202 4.39401 4.21302 4.00301C4.60402 3.61201 5.23602 3.61201 5.62702 4.00301L7.42002 5.79601C7.81102 6.18701 7.81102 6.81901 7.42002 7.21001C7.22502 7.40601 6.96902 7.50301 6.71302 7.50301Z" fill="#C7C7C7"/>
<path d="M4.01102 13.778H1.47601C0.923013 13.778 0.476013 13.33 0.476013 12.778C0.476013 12.226 0.923013 11.778 1.47601 11.778H4.01102C4.56402 11.778 5.01102 12.226 5.01102 12.778C5.01102 13.33 4.56402 13.778 4.01102 13.778Z" fill="#C7C7C7"/>
<path d="M13.077 4.79801C12.557 4.79801 12.118 4.39601 12.081 3.86901L11.9 1.34C11.86 0.789002 12.275 0.311002 12.826 0.271002C13.388 0.230002 13.855 0.647012 13.894 1.19701L14.075 3.726C14.115 4.277 13.7 4.755 13.149 4.795C13.125 4.797 13.101 4.79801 13.077 4.79801Z" fill="#C7C7C7"/>
<path d="M98.194 102.833L138.415 143.054V102.833H98.194Z" fill="#C7C7C7"/>
<path d="M109.218 85.209L107.27 76.716C106.759 74.488 106.753 72.174 107.253 69.944L109.963 57.846C112.379 47.06 106.905 36.284 97.42 31.542C97.501 31.317 97.593 31.098 97.647 30.859C98.338 27.774 96.397 24.713 93.313 24.022C90.228 23.331 87.167 25.271 86.476 28.356C86.422 28.595 86.413 28.833 86.39 29.071C75.788 29.313 66.239 36.723 63.823 47.509L61.113 59.607C60.613 61.837 59.62 63.928 58.208 65.725L52.822 72.575C50.526 75.496 52.063 79.814 55.689 80.626L103.19 91.268C106.816 92.08 110.049 88.831 109.218 85.209Z" fill="white"/>
<path d="M73.345 87.832C71.782 87.482 70.378 88.838 70.647 90.417C71.189 93.605 73.599 96.305 76.95 97.056C80.301 97.807 83.632 96.393 85.483 93.741C86.4 92.428 85.709 90.602 84.146 90.252L73.345 87.832Z" fill="white"/>
<path d="M36.867 70.981C36.383 70.981 35.908 70.747 35.619 70.314C30.86 63.187 29.162 54.635 30.837 46.232C32.512 37.829 37.359 30.581 44.485 25.823C45.174 25.363 46.104 25.549 46.565 26.238C47.025 26.927 46.839 27.859 46.151 28.319C39.691 32.632 35.297 39.202 33.779 46.819C32.261 54.436 33.8 62.189 38.113 68.649C38.573 69.338 38.387 70.269 37.699 70.729C37.443 70.899 37.153 70.981 36.867 70.981Z" fill="white"/>
<path d="M43.225 66.736C42.741 66.736 42.266 66.502 41.977 66.069C38.353 60.641 37.059 54.127 38.335 47.726C39.61 41.326 43.303 35.805 48.73 32.181C49.418 31.72 50.35 31.906 50.81 32.596C51.27 33.285 51.084 34.217 50.396 34.677C45.634 37.856 42.396 42.699 41.276 48.313C40.157 53.928 41.292 59.642 44.47 64.404C44.93 65.093 44.744 66.024 44.056 66.484C43.801 66.654 43.511 66.736 43.225 66.736Z" fill="white"/>
<path d="M49.583 62.492C49.099 62.492 48.624 62.258 48.335 61.825C45.844 58.096 44.955 53.619 45.832 49.221C46.708 44.823 49.245 41.03 52.975 38.539C53.663 38.078 54.594 38.264 55.055 38.954C55.515 39.643 55.329 40.575 54.641 41.035C51.577 43.08 49.495 46.196 48.775 49.808C48.054 53.42 48.785 57.097 50.83 60.16C51.29 60.849 51.104 61.78 50.416 62.24C50.159 62.41 49.87 62.492 49.583 62.492Z" fill="white"/>
<path d="M123.348 92.093C122.805 92.093 122.281 91.797 122.014 91.282C121.634 90.546 121.923 89.64 122.659 89.26C129.561 85.697 134.662 79.659 137.023 72.26C139.383 64.86 138.72 56.984 135.157 50.082C134.777 49.346 135.066 48.441 135.802 48.061C136.538 47.683 137.443 47.969 137.823 48.706C141.754 56.319 142.485 65.008 139.881 73.171C137.277 81.335 131.649 87.995 124.036 91.926C123.815 92.039 123.579 92.093 123.348 92.093Z" fill="white"/>
<path d="M119.841 85.301C119.298 85.301 118.774 85.005 118.507 84.489C118.127 83.753 118.416 82.847 119.152 82.468C124.24 79.841 128 75.391 129.74 69.937C131.479 64.482 130.991 58.676 128.364 53.589C127.984 52.853 128.273 51.948 129.009 51.568C129.745 51.19 130.65 51.476 131.03 52.213C134.024 58.012 134.581 64.63 132.597 70.848C130.614 77.066 126.327 82.139 120.529 85.134C120.308 85.247 120.073 85.301 119.841 85.301Z" fill="white"/>
<path d="M116.334 78.508C115.791 78.508 115.267 78.212 115 77.697C114.62 76.961 114.909 76.055 115.645 75.676C118.918 73.987 121.337 71.123 122.456 67.614C123.575 64.104 123.262 60.37 121.571 57.097C121.191 56.361 121.48 55.455 122.216 55.076C122.953 54.698 123.857 54.984 124.237 55.721C128.484 63.947 125.247 74.094 117.021 78.342C116.801 78.454 116.566 78.508 116.334 78.508Z" fill="white"/>
</svg>
