<svg width="185" height="185" viewBox="0 0 185 185" fill="none" xmlns="http://www.w3.org/2000/svg">
<g clip-path="url(#clip0_114_110)">
<path d="M85.6968 53.5553C80.0036 32.9026 54.3485 26.2497 39.6455 41.6846C39.4342 41.9062 39.2233 42.1315 39.0124 42.3606C17.9339 65.2739 27.8913 121.74 71.8821 136.051C115.873 150.363 161.629 124.229 164.2 100.866C166.77 77.5043 146.475 70.1635 114.979 76.6962C97.1853 80.3866 89.241 66.412 85.6968 53.5553Z" fill="#A8A8A8"/>
<path d="M130.081 58.3105C124.195 59.2688 122.564 64.4832 127.108 68.1825C128.611 69.4053 130.755 70.421 133.812 70.9279C145.453 72.8593 151.63 67.7085 146.964 61.0308C144.084 56.9093 135.914 57.3607 130.081 58.3105Z" fill="#CCE1F7"/>
<path d="M23.0983 93.1612C19.4394 88.4526 14.0803 89.517 13.0081 95.2779C12.6536 97.182 12.7886 99.5518 13.8069 102.477C17.6845 113.623 25.164 116.58 28.793 109.287C31.0326 104.784 26.7247 97.8276 23.0983 93.1612Z" fill="#A8A8A8"/>
<path d="M103.287 47.895L103.898 44.7774L100.977 44.2043C100.975 43.4365 100.844 42.6669 100.59 41.9225L102.997 40.3056L101.225 37.6682L98.9217 39.2159C98.2361 38.5196 97.4299 37.9838 96.557 37.6249L97.1309 34.7034L94.0133 34.0918L93.4224 37.1029C92.7827 37.1384 92.1459 37.2601 91.5254 37.4721L89.9085 35.0649L87.2711 36.8368L88.8189 39.1404C88.1225 39.8261 87.5868 40.6323 87.2279 41.5051L84.6741 41.0034L84.0618 44.121L86.7054 44.6398C86.7509 45.4556 86.9333 46.2692 87.2667 47.0455L84.9627 48.5932L86.7346 51.2306L89.1419 49.6137C89.8327 50.2157 90.6215 50.6674 91.4644 50.9631L90.8868 53.902L94.0044 54.5136L94.6301 51.3275C95.3153 51.252 95.9946 51.0759 96.6481 50.7951L98.1958 53.0994L100.833 51.3275L99.2162 48.9207C99.6465 48.4267 100 47.8828 100.276 47.3038L103.287 47.895ZM95.4563 46.6463C94.1232 47.5417 92.3105 47.1861 91.4151 45.853C90.5197 44.5199 90.8753 42.7072 92.2084 41.8118C93.5415 40.9164 95.3542 41.272 96.2496 42.6051C97.145 43.9382 96.7894 45.7509 95.4563 46.6463Z" fill="#9A9A9A"/>
<path d="M85.6672 33.5642L86.0013 31.8603L84.4051 31.5469C84.404 31.1274 84.3326 30.7067 84.1939 30.2997L85.5092 29.4161L84.5409 27.975L83.2822 28.8208C82.9074 28.44 82.4667 28.1474 81.9898 27.9513L82.3035 26.3547L80.5997 26.0206L80.2767 27.666C79.927 27.6856 79.5792 27.7522 79.2399 27.868L78.3564 26.5523L76.9152 27.5206L77.7611 28.7797C77.3803 29.1545 77.0877 29.5948 76.8916 30.0721L75.4959 29.798L75.1614 31.5018L76.6063 31.7852C76.6311 32.2311 76.731 32.6754 76.913 33.0998L75.6539 33.9457L76.6222 35.3868L77.9379 34.5032C78.3153 34.8322 78.7464 35.079 79.207 35.2407L78.8914 36.8468L80.5953 37.1809L80.9371 35.4397C81.3116 35.3983 81.6831 35.3024 82.0401 35.1489L82.8859 36.408L84.3271 35.4397L83.4435 34.1244C83.6788 33.8543 83.872 33.5571 84.0222 33.2408L85.6672 33.5642ZM81.3882 32.8819C80.6596 33.3714 79.6691 33.1768 79.1796 32.4483C78.6901 31.7197 78.8847 30.7292 79.6133 30.2397C80.3418 29.7506 81.3323 29.9448 81.8218 30.6734C82.3109 31.4019 82.1167 32.3924 81.3882 32.8819Z" fill="#9A9A9A"/>
<path d="M171.346 42.2688L171.68 40.565L170.084 40.2516C170.083 39.832 170.012 39.4113 169.873 39.0043L171.188 38.1207L170.22 36.6796L168.961 37.5254C168.586 37.1447 168.146 36.852 167.669 36.6559L167.983 35.0593L166.279 34.7252L165.956 36.3706C165.606 36.3902 165.258 36.4568 164.919 36.5727L164.035 35.2569L162.594 36.2252L163.44 37.4843C163.06 37.8591 162.767 38.2994 162.571 38.7767L161.175 38.5026L160.84 40.2064L162.285 40.4898C162.31 40.9357 162.41 41.3804 162.592 41.8045L161.333 42.6503L162.301 44.0914L163.617 43.2079C163.994 43.5368 164.425 43.7836 164.886 43.9453L164.57 45.5514L166.274 45.8855L166.616 44.1443C166.991 44.1029 167.362 44.0071 167.719 43.8535L168.565 45.1126L170.006 44.1443L169.123 42.829C169.358 42.5589 169.551 42.2618 169.702 41.9454L171.346 42.2688ZM167.067 41.5865C166.339 42.0757 165.348 41.8814 164.859 41.1529C164.369 40.4243 164.564 39.4339 165.292 38.9443C166.021 38.4548 167.011 38.6495 167.501 39.378C167.99 40.1065 167.796 41.0974 167.067 41.5865Z" fill="#9A9A9A"/>
<path d="M25.6872 63.4409L26.0214 61.7371L24.4248 61.4237C24.4237 61.0041 24.3523 60.5834 24.2135 60.1768L25.5289 59.2932L24.5606 57.8521L23.3019 58.6979C22.927 58.3172 22.4864 58.0245 22.0094 57.8284L22.3228 56.2319L20.619 55.8978L20.296 57.5431C19.9463 57.5628 19.5985 57.6293 19.2592 57.7452L18.3757 56.4294L16.9345 57.3977L17.7803 58.6568C17.3996 59.0317 17.1069 59.4719 16.9108 59.9492L15.5152 59.6751L15.1807 61.3789L16.6256 61.6624C16.6504 62.1082 16.7503 62.5526 16.9323 62.977L15.6732 63.8228L16.6415 65.2639L17.9572 64.3804C18.3346 64.7093 18.7657 64.9561 19.2263 65.1178L18.9107 66.724L20.6145 67.0581L20.9564 65.3168C21.3309 65.2754 21.7023 65.1796 22.0594 65.026L22.9052 66.2851L24.3464 65.3168L23.4628 64.0015C23.6981 63.7314 23.8913 63.4343 24.0415 63.1179L25.6872 63.4409ZM21.4082 62.7583C20.6797 63.2474 19.6892 63.0532 19.1997 62.3247C18.7102 61.5961 18.9048 60.6056 19.6333 60.1161C20.3618 59.6266 21.3523 59.8212 21.8418 60.5498C22.331 61.2783 22.1367 62.2692 21.4082 62.7583Z" fill="#9A9A9A"/>
<path d="M92.3816 148.167C64.1561 148.167 39.4805 146.936 26.0891 145.099C24.6809 144.906 24.2539 146.944 25.6207 147.334C34.7582 149.941 47.6971 150.123 55.9629 151.013C70.2116 152.548 90.9279 152.123 92.382 157.088C93.835 162.055 93.9804 167.311 79.4579 166.571C63.6999 165.768 66.3229 157.088 66.3229 157.088C51.7079 157.505 16.9279 154.083 13.0806 148.167C9.27702 142.318 16.2471 140.965 16.4054 140.935C16.4062 140.935 16.4069 140.935 16.4077 140.934C22.2944 137.964 54.0674 135.695 92.3816 135.695C134.881 135.695 169.333 138.487 169.333 141.931C169.333 145.375 134.881 148.167 92.3816 148.167Z" fill="#CCE1F7"/>
<path d="M39.6466 130.093C36.2581 126.678 28.8563 118.672 24.1932 109.584C17.5014 96.5408 10.791 97.7066 9.4742 102.317C6.06872 114.242 26.1264 127.202 34.4433 131.989L39.6466 130.093Z" fill="#3B73AB"/>
<path d="M37.8151 130.76C31.9754 126.381 27.0385 121.2 23.6837 117.291C19.1974 112.063 16.4953 107.919 16.4679 107.877C16.3714 107.728 16.1719 107.686 16.0228 107.784C15.8734 107.88 15.8308 108.079 15.9281 108.228C15.9544 108.27 18.6761 112.443 23.1875 117.702C26.5012 121.565 31.3512 126.662 37.094 131.023L37.8151 130.76Z" fill="#00528A"/>
<path d="M38.8074 125.503C37.2379 122.371 34.262 115.809 33.1586 109.122C31.5099 99.1315 26.8505 98.4822 25.0116 101.237C19.9607 108.802 32.0649 122.719 35.9259 126.838L38.8074 125.503Z" fill="#00528A"/>
<path d="M37.7104 126.011C34.7626 121.874 32.5881 117.385 31.1969 114.083C29.3495 109.698 28.4467 106.402 28.4378 106.369C28.4056 106.251 28.2835 106.181 28.1647 106.213C28.046 106.245 27.976 106.367 28.0086 106.486C28.0171 106.519 28.9266 109.838 30.7836 114.249C32.1763 117.557 34.3515 122.049 37.2997 126.201L37.7104 126.011Z" fill="#01305A"/>
<path d="M149.875 79.3839C152.998 75.7238 159.779 67.1861 163.747 57.7733C169.441 44.265 176.221 44.9243 177.879 49.4231C182.169 61.0589 163.14 75.4867 155.206 80.8838L149.875 79.3839Z" fill="#3B73AB"/>
<path d="M151.752 79.9119C157.247 75.107 161.781 69.5704 164.833 65.4201C168.915 59.8708 171.299 55.5359 171.323 55.4919C171.408 55.3365 171.603 55.2791 171.759 55.365C171.915 55.4497 171.973 55.6454 171.887 55.8012C171.864 55.8448 169.463 60.2101 165.358 65.7927C162.343 69.8934 157.889 75.3398 152.49 80.1191L151.752 79.9119Z" fill="#00528A"/>
<path d="M150.368 74.7437C151.698 71.5025 154.173 64.7359 154.772 57.9857C155.666 47.8995 160.264 46.9023 162.304 49.5112C167.908 56.6762 156.882 71.4618 153.341 75.8592L150.368 74.7437Z" fill="#00528A"/>
<path d="M151.499 75.1681C154.129 70.8221 155.961 66.1826 157.1 62.7853C158.613 58.2743 159.266 54.9198 159.272 54.8862C159.296 54.7659 159.412 54.6871 159.533 54.7104C159.654 54.733 159.733 54.8499 159.709 54.9705C159.703 55.0042 159.045 58.3819 157.524 62.9196C156.383 66.3229 154.551 70.9649 151.922 75.3268L151.499 75.1681Z" fill="#01305A"/>
<path d="M55.0245 41.1414C55.6069 35.688 55.1533 30.4173 52.4397 31.7171C49.7232 33.0184 50.6752 42.0738 54.3689 48.0467L55.1396 50.3788C52.5237 45.9788 47.3045 42.2514 45.1625 43.6445C43.0339 45.029 46.7332 47.195 50.4424 48.6095C53.2659 49.6862 54.8673 51.0382 55.611 51.8044L59.2503 62.8201C55.0882 55.8645 46.8438 49.9892 43.4543 52.1937C40.0765 54.3907 45.9466 57.8273 51.8318 60.0717C56.2792 61.7678 58.8174 63.8957 60.0088 65.1156L60.7344 67.3119C61.1351 67.2457 61.535 67.1772 61.9346 67.1065L57.6049 54.0011C57.8957 52.876 58.4729 51.3357 59.6162 49.5445C61.7522 46.1986 63.4335 42.2551 60.899 42.4113C58.6994 42.5467 56.9304 47.1043 56.819 51.622L55.3216 47.0899C55.0967 45.6088 54.7729 43.4954 55.0245 41.1414Z" fill="#00528A"/>
<path d="M168.154 105.873C169.626 100.59 171.993 95.8592 174.035 98.0692C176.08 100.281 171.852 108.346 166.214 112.533L164.636 114.416C168.692 111.293 174.919 109.755 176.395 111.841C177.862 113.914 173.624 114.561 169.655 114.506C166.634 114.464 164.646 115.13 163.672 115.567L156.223 124.46C162.659 119.533 172.49 117.116 174.826 120.416C177.154 123.705 170.43 124.732 164.132 124.645C159.373 124.579 156.228 125.619 154.671 126.313L153.186 128.087C152.838 127.877 152.491 127.666 152.146 127.452L161.008 116.872C161.153 115.719 161.186 114.074 160.785 111.987C160.035 108.089 159.928 103.803 162.226 104.884C164.22 105.822 164.182 110.711 162.618 114.95L165.683 111.291C166.437 109.998 167.518 108.154 168.154 105.873Z" fill="#3B73AB"/>
<path d="M44.696 97.6045H50.7862C47.4954 97.0606 39.3365 93.5578 38.6091 86.5345C37.6878 77.6386 34.5199 77.7496 29.1819 76.819C23.8439 75.8885 22.3739 77.4077 18.9847 70.5013C15.5955 63.5949 8.03418 62.7242 8.03418 62.7242C8.03418 62.7242 14.9258 70.2438 13.6071 75.9588C12.2881 81.6734 16.8583 83.956 20.518 84.6741C24.1776 85.3923 23.3004 90.3107 24.6912 93.4698C25.3258 94.9113 27.9235 96.4057 30.5609 97.6045H44.696Z" fill="#00528A"/>
<path d="M31.5044 88.8474C31.7704 91.5114 33.3022 94.68 35.6021 97.3222C35.6832 97.4151 35.7672 97.5094 35.853 97.6045H36.546C36.3477 97.3958 36.1601 97.1897 35.9851 96.9888C33.7847 94.4614 32.261 91.3219 32.0083 88.7967C31.6069 84.7762 28.5004 82.0364 21.934 79.9133C18.1226 78.6816 16.919 74.0289 16.9079 73.9815C16.8738 73.8461 16.7362 73.7628 16.6004 73.7969C16.4639 73.8309 16.381 73.9685 16.4151 74.104C16.4654 74.3064 17.6953 79.0768 21.7775 80.3966C28.1252 82.4486 31.1255 85.0552 31.5044 88.8474Z" fill="#01305A"/>
<path d="M41.5632 97.6045H54.366C54.3697 97.5916 54.3734 97.5786 54.3767 97.566C54.7363 96.2873 54.9398 94.9709 54.985 93.6429C55.1374 89.1619 55.2133 77.9094 52.3169 75.0275C48.6761 71.4048 41.3786 69.9888 42.3413 64.5236C43.3041 59.0583 42.5833 51.4914 33.9434 50.2619C25.3036 49.0324 18.5551 35.4382 18.5551 35.4382C18.5551 35.4382 15.7139 46.4017 23.4869 54.8051C31.2598 63.2086 28.3635 64.4366 26.7965 72.345C25.2296 80.2534 23.3788 84.5916 35.2351 90.6348C38.4508 92.2743 40.4118 94.7973 41.5632 97.6045Z" fill="#3B73AB"/>
<path d="M34.9739 63.9408C34.4045 74.1931 36.5449 79.9736 41.911 82.6839C45.2813 84.3874 48.8234 88.1836 51.154 92.5918C51.8895 93.9837 52.6384 95.6746 53.2197 97.6049H54.0078C53.4017 95.531 52.6051 93.7191 51.8222 92.2388C49.3858 87.6308 45.8075 83.8072 42.2514 82.0112C37.1894 79.4542 35.1778 73.8934 35.7287 63.9826C36.0828 57.6086 30.1191 53.3466 29.8649 53.1683C29.6951 53.0484 29.459 53.0898 29.3392 53.2611C29.2193 53.431 29.2607 53.667 29.4309 53.7869C29.4905 53.8272 35.305 57.9901 34.9739 63.9408Z" fill="#00528A"/>
<path d="M116.238 77.3082H122.475L128.798 73.189C130.354 70.7451 131.715 68.0748 131.459 66.5208C130.9 63.1146 127.481 59.4727 130.155 56.8731C132.83 54.2734 135.413 49.8667 131.189 45.7982C126.964 41.7297 128.634 31.6676 128.634 31.6676C128.634 31.6676 122.773 36.5242 123.704 44.161C124.634 51.7978 122.572 51.3279 118.608 55.0208C114.643 58.7138 111.928 60.35 116.012 68.3068C117.538 71.2801 117.238 74.501 116.238 77.3082Z" fill="#00528A"/>
<path d="M123.228 66.3665C124.459 68.7438 124.905 72.2351 124.42 75.7042C124.403 75.8263 124.384 75.951 124.364 76.0775L123.783 76.4557C123.836 76.1726 123.88 75.8974 123.917 75.6339C124.381 72.315 123.944 68.8529 122.778 66.5993C120.92 63.0114 122.027 59.0198 126.371 53.657C128.892 50.5446 127.361 45.9891 127.344 45.9433C127.299 45.8112 127.369 45.6661 127.501 45.621C127.634 45.5747 127.778 45.645 127.824 45.7771C127.892 45.9743 129.466 50.6423 126.765 53.9767C122.566 59.1608 121.475 62.9821 123.228 66.3665Z" fill="#01305A"/>
<path d="M139.723 77.3082C140.455 76.7006 141.279 76.1519 142.21 75.6776C154.066 69.6344 152.215 65.2958 150.648 57.3877C149.081 49.4794 146.185 48.2513 153.958 39.8479C161.731 31.4444 158.889 20.481 158.889 20.481C158.889 20.481 152.141 34.0751 143.501 35.3047C134.861 36.5342 134.14 44.101 135.103 49.5663C136.066 55.0316 128.769 56.4476 125.128 60.0702C122.494 62.6906 122.318 72.2295 122.422 77.3082H139.723Z" fill="#3B73AB"/>
<path d="M126.467 77.3082C128.797 73.0398 132.247 69.3876 135.534 67.7263C140.9 65.016 143.04 59.2355 142.471 48.9832C142.14 43.0325 147.954 38.8696 148.014 38.8289C148.184 38.709 148.226 38.4733 148.106 38.3031C147.986 38.1318 147.75 38.0904 147.58 38.2103C147.326 38.3886 141.362 42.6503 141.716 49.0246C142.267 58.9354 140.256 64.4962 135.194 67.0532C131.637 68.8492 128.059 72.6728 125.623 77.2808C125.618 77.2897 125.613 77.2989 125.609 77.3082H126.467Z" fill="#00528A"/>
<path d="M154.528 62.3465V129.283C154.528 132.043 152.291 134.28 149.531 134.28H35.4556C32.6962 134.28 30.4592 132.043 30.4592 129.283V62.3465C30.4592 59.587 32.6962 57.35 35.4556 57.35H149.531C152.291 57.35 154.528 59.587 154.528 62.3465Z" fill="white"/>
<path d="M77.8224 101.319H73.6363V106.596H63.3288V101.319H46.99V94.723L60.3585 75.8137H71.2512L59.3682 93.2717H63.6443V88.5662H73.6367V93.2717H77.8228V101.319H77.8224Z" fill="url(#paint0_linear_114_110)"/>
<path d="M79.3069 91.205C79.3069 81.0029 85.2486 75.11 93.5754 75.11C101.903 75.11 107.844 81.0025 107.844 91.205C107.844 101.407 101.903 107.3 93.5754 107.3C85.2486 107.3 79.3069 101.407 79.3069 91.205ZM97.1763 91.205C97.1763 85.2685 95.6461 83.4214 93.5754 83.4214C91.505 83.4214 89.9745 85.2685 89.9745 91.205C89.9745 97.1415 91.505 98.9886 93.5754 98.9886C95.6461 98.9886 97.1763 97.1415 97.1763 91.205Z" fill="url(#paint1_linear_114_110)"/>
<path d="M140.97 101.319H136.784V106.596H126.476V101.319H110.137V94.723L123.505 75.8137H134.398L122.515 93.2717H126.791V88.5662H136.784V93.2717H140.97V101.319H140.97Z" fill="url(#paint2_linear_114_110)"/>
<path d="M166.117 131.605V132.032C166.117 134.162 165.434 136.131 164.275 137.732C162.507 140.178 159.629 141.769 156.38 141.769H28.6065C25.3576 141.769 22.4801 140.178 20.7122 137.732C19.5526 136.131 18.87 134.162 18.87 132.032V131.605H166.117Z" fill="#535353"/>
<path d="M75.9902 131.605V131.702C75.9902 132.473 76.5064 133.098 77.1435 133.098H107.203C107.84 133.098 108.356 132.473 108.356 131.702V131.605H75.9902Z" fill="#2B2B2B"/>
<path opacity="0.2" d="M148.438 63.916H36.5486C37.1265 63.0872 38.0874 62.5452 39.1748 62.5452H145.813C146.901 62.5452 147.862 63.0872 148.438 63.916Z" fill="#01305A"/>
<path opacity="0.1" d="M125.874 123.948H57.5857C56.2503 123.948 55.1681 122.866 55.1681 121.531C55.1681 120.195 56.2503 119.113 57.5857 119.113H125.874C127.21 119.113 128.292 120.195 128.292 121.531C128.292 122.866 127.21 123.948 125.874 123.948Z" fill="#01305A"/>
<path d="M143.989 112.337C143.462 113.345 142.951 114.214 142.458 114.961C138.792 120.511 136.066 119.322 134.599 117.61C134.079 117.003 133.705 116.367 133.438 115.778C133.001 114.813 132.848 113.977 132.798 113.612L133.479 113.77C134.285 114.141 135.622 114.651 136.613 114.496C136.74 114.476 136.861 114.445 136.974 114.403C137.863 114.065 139.073 112.318 139.891 110.988C140.428 110.116 140.797 109.424 140.797 109.424L143.989 112.337Z" fill="#FFC0AD"/>
<path d="M143.989 112.337C143.462 113.345 142.951 114.214 142.458 114.961C141.416 113.82 140.474 112.138 139.892 110.988C140.428 110.116 140.798 109.424 140.798 109.424L143.989 112.337Z" fill="#FDA084"/>
<path d="M137.405 114.68C137.405 114.68 136.666 116.947 133.438 115.777C133.001 114.812 132.848 113.976 132.798 113.612L133.479 113.77C134.285 114.141 135.622 114.65 136.613 114.496L137.405 114.68Z" fill="#FDA084"/>
<path d="M167.484 120.462C166.744 124.732 163.272 121.598 162.972 118.263C162.905 117.514 162.887 116.748 162.898 116.01C162.909 115.321 162.945 114.657 162.992 114.055C163.001 113.938 163.011 113.825 163.021 113.713C163.15 112.262 163.332 111.244 163.332 111.244L165.602 108.452C165.602 108.452 165.866 109.234 166.205 110.439C166.517 111.551 166.891 113.024 167.175 114.572C167.261 115.04 167.339 115.515 167.404 115.989C167.625 117.59 167.706 119.182 167.484 120.462Z" fill="#FFC0AD"/>
<path d="M166.204 110.439C165.531 111.678 164.422 113.32 162.992 114.055C163.001 113.938 163.011 113.825 163.021 113.713C163.15 112.262 163.332 111.244 163.332 111.244L165.602 108.452C165.602 108.452 165.866 109.235 166.204 110.439Z" fill="#FDA084"/>
<path d="M167.403 115.989C166.582 116.487 163.89 116.253 162.898 116.01C162.911 115.188 162.959 114.402 163.021 113.714L167.175 114.573C167.261 115.041 167.338 115.516 167.403 115.989Z" fill="#FDA084"/>
<path d="M143.523 101.712C143.523 101.712 140.237 107.513 139.697 109.477C139.697 109.477 141.941 113.229 143.978 113.644L144.733 111.086C144.733 111.086 144.813 103.08 143.523 101.712Z" fill="#F3F3F3"/>
<path d="M143.542 102.055C143.542 102.054 143.543 102.053 143.543 102.053C143.622 102.188 143.698 102.36 143.77 102.568C143.887 102.906 143.988 103.321 144.074 103.787C144.246 104.72 144.357 105.84 144.427 106.924C144.497 108.006 144.528 109.046 144.54 109.816C144.547 110.201 144.548 110.518 144.549 110.739C144.549 110.85 144.549 110.936 144.548 110.994L144.548 111.058L143.851 113.422C143.434 113.298 142.998 113.03 142.568 112.675C142.083 112.275 141.62 111.777 141.216 111.287C140.813 110.798 140.473 110.321 140.233 109.966C140.113 109.789 140.018 109.642 139.954 109.54C139.931 109.504 139.912 109.474 139.897 109.45C140.188 108.468 141.107 106.602 141.976 104.944C142.42 104.097 142.847 103.312 143.163 102.738C143.321 102.451 143.451 102.217 143.542 102.055Z" stroke="black" stroke-opacity="0.09" stroke-width="0.37"/>
<path d="M150.739 98.7313L143.523 101.712L146.715 126.442C146.715 126.442 156.649 127.837 161.785 126.442V101.712L154.769 98.5748L150.739 98.7313Z" fill="#F3F3F3"/>
<path d="M147.175 126.316C147.052 126.3 146.953 126.287 146.881 126.278L143.724 101.828L150.779 98.9148L154.733 98.7613L161.6 101.832V126.3C159.067 126.953 155.404 126.952 152.334 126.781C150.776 126.694 149.377 126.563 148.368 126.454C147.863 126.4 147.456 126.351 147.175 126.316Z" stroke="black" stroke-opacity="0.09" stroke-width="0.37"/>
<mask id="path-45-inside-1_114_110" fill="white">
<path d="M149.266 112.209C150.477 113.471 152.177 114.658 154.545 115.341C154.636 115.367 154.73 115.304 154.741 115.21C154.741 115.209 154.742 115.208 154.742 115.207C154.751 115.132 154.703 115.062 154.63 115.041C152.323 114.375 150.667 113.218 149.489 111.989C149.4 111.898 149.246 111.948 149.226 112.073C149.226 112.075 149.225 112.076 149.225 112.077C149.218 112.125 149.232 112.174 149.266 112.209Z"/>
</mask>
<path d="M149.266 112.209C150.477 113.471 152.177 114.658 154.545 115.341C154.636 115.367 154.73 115.304 154.741 115.21C154.741 115.209 154.742 115.208 154.742 115.207C154.751 115.132 154.703 115.062 154.63 115.041C152.323 114.375 150.667 113.218 149.489 111.989C149.4 111.898 149.246 111.948 149.226 112.073C149.226 112.075 149.225 112.076 149.225 112.077C149.218 112.125 149.232 112.174 149.266 112.209Z" fill="#00528A"/>
<path d="M149.266 112.209L148.999 112.465L148.999 112.465L149.266 112.209ZM154.545 115.341L154.442 115.696L154.443 115.696L154.545 115.341ZM154.741 115.21L155.109 115.255L155.111 115.232V115.21H154.741ZM154.742 115.207L154.375 115.162L154.372 115.184V115.207H154.742ZM154.63 115.041L154.733 114.685L154.733 114.685L154.63 115.041ZM149.489 111.989L149.756 111.733L149.755 111.733L149.489 111.989ZM149.226 112.073L148.861 112.014L148.856 112.043V112.073H149.226ZM149.225 112.077L148.866 111.987L148.862 112.004L148.859 112.02L149.225 112.077ZM148.999 112.465C150.251 113.77 152.007 114.994 154.442 115.696L154.647 114.985C152.348 114.322 150.703 113.171 149.533 111.953L148.999 112.465ZM154.443 115.696C154.755 115.786 155.07 115.573 155.109 115.255L154.374 115.165C154.39 115.035 154.518 114.948 154.647 114.985L154.443 115.696ZM155.111 115.21C155.111 115.23 155.11 115.246 155.108 115.256C155.107 115.266 155.106 115.274 155.106 115.275C155.105 115.275 155.105 115.276 155.105 115.275C155.105 115.275 155.106 115.275 155.106 115.274C155.106 115.272 155.107 115.269 155.107 115.264C155.108 115.26 155.109 115.253 155.11 115.244C155.111 115.235 155.112 115.222 155.112 115.207H154.372C154.372 115.192 154.373 115.18 154.374 115.171C154.374 115.162 154.375 115.155 154.376 115.151C154.377 115.147 154.377 115.143 154.378 115.142C154.378 115.142 154.378 115.141 154.378 115.141C154.378 115.141 154.378 115.141 154.378 115.141C154.378 115.141 154.378 115.141 154.378 115.142C154.377 115.143 154.376 115.151 154.374 115.162C154.373 115.173 154.371 115.189 154.371 115.21H155.111ZM155.109 115.252C155.141 114.991 154.975 114.755 154.733 114.685L154.528 115.396C154.431 115.368 154.361 115.272 154.375 115.162L155.109 115.252ZM154.733 114.685C152.493 114.039 150.893 112.919 149.756 111.733L149.222 112.246C150.442 113.517 152.152 114.711 154.528 115.396L154.733 114.685ZM149.755 111.733C149.45 111.415 148.928 111.596 148.861 112.014L149.591 112.132C149.564 112.299 149.351 112.38 149.222 112.246L149.755 111.733ZM148.856 112.073C148.856 112.042 148.86 112.016 148.864 111.999C148.865 111.991 148.867 111.985 148.867 111.984C148.868 111.98 148.866 111.986 148.866 111.987L149.584 112.167C149.584 112.168 149.583 112.173 149.584 112.168C149.584 112.166 149.586 112.16 149.588 112.152C149.591 112.133 149.596 112.106 149.596 112.073H148.856ZM148.859 112.02C148.835 112.179 148.884 112.345 148.999 112.465L149.533 111.953C149.581 112.003 149.601 112.07 149.591 112.134L148.859 112.02Z" fill="black" fill-opacity="0.09" mask="url(#path-45-inside-1_114_110)"/>
<path d="M149.326 109.856V109.862C149.326 109.888 149.332 109.912 149.345 109.934C149.425 110.072 149.516 110.217 149.621 110.366C150.192 111.18 151.272 112.258 153.174 112.772C153.186 112.775 153.199 112.776 153.211 112.776C153.273 112.776 153.331 112.735 153.348 112.671C153.368 112.596 153.324 112.518 153.248 112.497C151.201 111.944 150.129 110.709 149.592 109.783C149.518 109.657 149.325 109.71 149.326 109.856Z" fill="#00528A"/>
<path d="M149.621 110.366C150.192 111.18 151.272 112.258 153.174 112.772C153.186 112.775 153.199 112.776 153.211 112.776C153.273 112.776 153.331 112.735 153.348 112.671L149.345 109.934C149.425 110.072 149.516 110.217 149.621 110.366ZM149.621 110.366L149.621 110.366L149.621 110.366Z" stroke="black" stroke-opacity="0.09" stroke-width="0.37"/>
<path d="M149.585 103.424C149.585 103.425 149.585 103.426 149.585 103.427C149.591 103.512 149.669 103.574 149.753 103.558C151.473 103.222 152.827 102.456 153.728 101.799C154.97 100.893 155.628 100.018 155.656 99.9811C155.703 99.9186 155.69 99.8294 155.627 99.7824C155.564 99.7354 155.475 99.7491 155.428 99.8113C155.406 99.842 153.329 102.57 149.699 103.277C149.629 103.292 149.58 103.353 149.585 103.424Z" fill="#00528A"/>
<path d="M155.508 99.87L155.508 99.8701L155.508 99.87Z" stroke="black" stroke-opacity="0.09" stroke-width="0.37"/>
<path d="M138.5 142.179L139.274 138.197H136.63L135.984 141.957C135.984 141.957 137.043 142.647 138.5 142.179Z" fill="#FFC0AD"/>
<path d="M136.688 142.138C136.688 142.138 136.101 141.367 135.642 141.406C135.182 141.444 131.67 144.303 130.458 144.55C129.246 144.797 129.492 145.688 129.719 146.143C129.947 146.597 139.406 145.86 139.406 145.86C139.406 145.86 139.634 143.04 139.315 142.181C138.996 141.323 137.64 142.331 136.688 142.138Z" fill="#363636"/>
<path d="M150.5 123.962C150.5 123.962 145.973 112.724 143.16 113.167C138.805 113.854 135.891 127.231 136.248 139.71L139.237 139.88C139.237 139.88 142.582 128.125 143.181 125.044C143.181 125.044 145.487 133.045 150.68 131.931C154.524 131.106 152.018 127.172 150.5 123.962Z" fill="#363636"/>
<path d="M138.882 139.365L138.514 139.298C138.522 139.255 139.318 134.88 140.282 130.459C142.248 121.441 142.986 121.019 143.229 120.881C143.431 120.765 143.598 120.795 143.702 120.84C144.195 121.055 144.442 122.107 144.817 123.7C145.421 126.274 146.25 129.801 148.536 131.277L148.333 131.591C145.92 130.033 145.072 126.422 144.453 123.785C144.155 122.519 143.874 121.323 143.553 121.183C143.535 121.175 143.497 121.158 143.415 121.205C142.403 121.784 140.15 132.382 138.882 139.365Z" fill="#FFEAA1"/>
<path d="M135.952 138.794L139.616 139.101L139.686 139.107L139.485 140.321L135.884 140.068L135.952 138.794Z" fill="#FFEAA1"/>
<path d="M149.342 131.987C149.342 131.987 154.604 132.998 161.581 131.742C161.006 128.859 159.702 126.596 157.575 124.584L148.166 125.264C147.573 127.485 148.003 129.727 149.342 131.987Z" fill="#363636"/>
<path d="M147.841 141.288C147.841 141.288 146.594 141.014 146.254 141.036C145.914 141.058 143.746 143.711 142.984 143.896C141.603 144.231 141.699 146.406 142.551 146.476C145.017 146.679 149.166 145.456 149.166 145.456C149.166 145.456 149.428 142.648 149.221 141.779C149.014 140.911 148.537 141.515 147.841 141.288Z" fill="#363636"/>
<path d="M148.573 141.478L149.49 137.9H146.847L146.254 141.352C146.254 141.352 147.117 141.945 148.573 141.478Z" fill="#FFC0AD"/>
<path d="M160.938 131.93C160.27 132.074 159.65 132.066 159.076 131.944C158.888 131.904 158.705 131.852 158.528 131.788C155.025 130.545 153.44 125.043 153.44 125.043C152.84 128.125 149.371 139.872 149.371 139.872L148.83 139.801L148.457 139.751L146.41 139.482C146.007 127.401 149.063 113.853 153.418 113.168C156.231 112.724 160.757 123.962 160.757 123.962C162.276 127.172 164.781 131.106 160.938 131.93Z" fill="#363636"/>
<path d="M159.076 131.944C158.888 131.904 158.705 131.852 158.528 131.788C157.246 129.725 156.577 126.838 156.039 124.514C155.611 122.664 155.207 120.919 154.676 120.619C154.594 120.575 154.515 120.567 154.422 120.598C153.971 120.746 152.907 122.242 150.862 130.598C149.887 134.58 149.079 138.55 148.83 139.801C148.779 140.056 148.75 140.199 148.749 140.206L148.383 140.135C148.384 140.128 148.41 139.993 148.457 139.751C148.703 138.521 149.515 134.522 150.499 130.508C152.9 120.702 153.958 120.356 154.306 120.241C154.5 120.179 154.686 120.196 154.859 120.293C155.534 120.674 155.899 122.248 156.403 124.428C156.968 126.864 157.677 129.929 159.076 131.944Z" fill="#FFEAA2"/>
<path d="M146.166 138.63L149.783 139.291L149.853 139.303L149.535 140.492L145.976 139.891L146.166 138.63Z" fill="#FFEAA2"/>
<path d="M161.785 101.712L166.465 108.49C166.465 108.49 164.387 112.408 162.35 112.819C162.35 112.819 160.23 109.114 159.98 107.223C159.732 105.331 161.054 101.874 161.785 101.712Z" fill="#F3F3F3"/>
<path d="M161.724 101.949L166.248 108.502C166.237 108.521 166.224 108.544 166.21 108.569C166.15 108.675 166.062 108.828 165.95 109.013C165.726 109.383 165.406 109.88 165.023 110.39C164.64 110.899 164.198 111.417 163.73 111.831C163.302 112.208 162.865 112.488 162.442 112.606C162.435 112.594 162.428 112.58 162.42 112.566C162.362 112.461 162.278 112.31 162.177 112.123C161.976 111.747 161.704 111.228 161.425 110.65C160.863 109.484 160.284 108.111 160.164 107.199L161.724 101.949ZM161.724 101.949C161.695 101.972 161.661 102.002 161.623 102.043C161.53 102.144 161.426 102.288 161.319 102.47C161.104 102.833 160.883 103.327 160.69 103.88C160.302 104.991 160.045 106.296 160.164 107.199L161.724 101.949Z" stroke="black" stroke-opacity="0.09" stroke-width="0.37"/>
<path d="M148.366 91.2229C148.366 93.8536 149.985 95.6662 152.616 95.6662C155.246 95.6662 157.079 93.717 157.079 91.0867C157.079 88.456 155.522 86.4632 152.891 86.4632C149.736 86.4632 148.366 88.5922 148.366 91.2229Z" fill="#01305A"/>
<path d="M148.521 89.7713C148.521 89.7713 146.561 87.8326 147.294 86.9179C148.026 86.0036 148.982 86.8765 149.274 86.0036C149.564 85.1308 149.679 84.0086 150.869 84.4655C152.059 84.9229 152.113 85.671 153.25 85.0058C154.386 84.3409 154.136 85.4631 155.134 85.9618C156.131 86.4606 156.828 86.3773 156.667 87.3334C156.506 88.2895 157.624 88.4871 157.166 89.5438C156.708 90.6002 156.173 90.0673 156.173 90.0673L148.521 89.7713Z" fill="#01305A"/>
<path d="M148.957 92.3554C148.957 92.3554 148.226 91.3809 147.683 92.1867C147.139 92.9926 147.907 95.3724 149.238 94.7915L148.957 92.3554Z" fill="#FDA084"/>
<path d="M148.947 94.0563C148.898 94.0563 148.853 94.0238 148.839 93.9742C148.633 93.2394 147.871 92.9415 147.864 92.9386C147.806 92.9164 147.777 92.8516 147.799 92.7935C147.821 92.7354 147.886 92.7062 147.943 92.728C147.979 92.7413 148.818 93.0669 149.055 93.9131C149.072 93.9731 149.037 94.0349 148.977 94.0519C148.968 94.0548 148.958 94.0563 148.947 94.0563Z" fill="#FFEAA1"/>
<path d="M148.179 93.686C148.158 93.686 148.137 93.68 148.118 93.6678C148.066 93.6342 148.051 93.5646 148.085 93.5124C148.09 93.5039 148.225 93.2982 148.507 93.1724C148.563 93.1469 148.63 93.1724 148.655 93.229C148.681 93.2856 148.655 93.3522 148.599 93.3774C148.381 93.4751 148.275 93.6327 148.274 93.6342C148.252 93.6678 148.216 93.686 148.179 93.686Z" fill="#FFEAA1"/>
<path d="M156.489 92.3554C156.489 92.3554 157.219 91.3809 157.763 92.1867C158.306 92.9926 157.538 95.3724 156.207 94.7915L156.489 92.3554Z" fill="#FDA084"/>
<path d="M156.498 94.0563C156.547 94.0563 156.593 94.0238 156.607 93.9742C156.813 93.2394 157.574 92.9415 157.582 92.9386C157.639 92.9164 157.668 92.8516 157.647 92.7935C157.625 92.7354 157.56 92.7062 157.502 92.728C157.466 92.7413 156.628 93.0669 156.39 93.9131C156.373 93.9731 156.408 94.0349 156.468 94.0519C156.478 94.0548 156.488 94.0563 156.498 94.0563Z" fill="#FFEAA1"/>
<path d="M157.267 93.686C157.287 93.686 157.308 93.68 157.327 93.6678C157.379 93.6342 157.395 93.5646 157.361 93.5124C157.355 93.5039 157.221 93.2982 156.939 93.1724C156.883 93.1469 156.816 93.1724 156.79 93.229C156.765 93.2856 156.79 93.3522 156.847 93.3774C157.065 93.4751 157.171 93.6327 157.172 93.6342C157.193 93.6678 157.23 93.686 157.267 93.686Z" fill="#FFEAA1"/>
<path d="M154.522 96.8102V99.1771C154.522 99.1771 153.816 100.383 152.861 100.464C151.908 100.548 151.06 99.4265 151.06 99.4265V96.9764L154.522 96.8102Z" fill="#FFC0AD"/>
<path d="M154.522 96.8102V97.8603C153.881 98.5711 152.744 98.7487 151.06 98.5V96.9764L154.522 96.8102Z" fill="#FDA084"/>
<path d="M148.566 92.2803C148.602 92.7817 148.661 93.3111 148.758 93.8384C149.075 95.5829 149.79 97.2986 151.33 97.8496C154.818 99.095 156.064 96.1039 156.562 94.3601C156.617 94.1669 156.666 93.9512 156.709 93.7211C156.789 93.3056 156.85 92.842 156.898 92.375C156.955 91.8086 156.993 91.2358 157.017 90.7319C157.068 89.6707 156.432 88.6969 155.439 88.3147C154.01 87.7652 151.837 87.3305 149.778 88.4978C149.017 88.9277 148.541 89.7266 148.524 90.6001C148.515 91.0749 148.522 91.6546 148.566 92.2803Z" fill="#FFC0AD"/>
<path d="M148.566 92.2803C148.602 92.7817 148.661 93.3111 148.758 93.8384C149.075 95.5829 149.79 97.2986 151.33 97.8496C154.818 99.095 156.064 96.1039 156.562 94.3601C156.617 94.1669 156.666 93.9512 156.709 93.7211C156.789 93.3056 156.85 92.842 156.898 92.375H156.389C156.282 92.6999 155.715 94.6783 155.531 94.9599C155.134 94.0093 153.121 94.6405 153.121 94.6405L153.111 94.6439C152.989 94.682 152.863 94.702 152.737 94.702C152.606 94.702 152.477 94.6809 152.352 94.6405C152.352 94.6405 150.362 93.9816 149.95 94.8885C149.768 94.6058 149.114 92.5896 148.997 92.3754L148.566 92.2803ZM152.732 95.0705C155.009 94.7634 154.65 95.9885 154.65 95.9885C154.398 96.2197 154.166 96.3873 154.012 96.4743C153.515 96.7514 153.026 96.8565 152.671 96.8395C152.322 96.8239 152.226 96.8964 151.343 96.4184C151.186 96.3348 151.029 96.2108 150.875 96.0632C150.875 96.0632 150.875 96.0632 150.873 96.0632V96.0621C150.835 95.8234 150.45 94.6783 152.732 95.0705Z" fill="#01305A"/>
<path d="M151.227 92.6644C151.227 92.9171 151.097 93.1217 150.936 93.1217C150.776 93.1217 150.645 92.9167 150.645 92.6644C150.645 92.412 150.776 92.2071 150.936 92.2071C151.097 92.2071 151.227 92.4117 151.227 92.6644Z" fill="#01305A"/>
<path d="M154.655 92.6551C154.655 92.9078 154.525 93.1124 154.364 93.1124C154.204 93.1124 154.074 92.9078 154.074 92.6551C154.074 92.4024 154.204 92.1978 154.364 92.1978C154.525 92.1974 154.655 92.4024 154.655 92.6551Z" fill="#01305A"/>
<path d="M149.684 91.5455C149.684 91.5455 150.638 90.8214 151.565 90.9472L151.61 91.4297C151.61 91.4297 150.369 91.6661 149.827 92.0846C149.723 91.9229 149.665 91.7464 149.684 91.5455Z" fill="#01305A"/>
<path d="M155.632 91.5455C155.632 91.5455 154.677 90.8214 153.751 90.9472L153.705 91.4297C153.705 91.4297 154.947 91.6661 155.488 92.0846C155.593 91.9229 155.651 91.7464 155.632 91.5455Z" fill="#01305A"/>
<path d="M152.762 94.4348C152.952 94.4348 153.14 94.3612 153.169 94.349C153.226 94.3253 153.254 94.2598 153.23 94.2025C153.207 94.1451 153.141 94.1174 153.084 94.1407C152.982 94.1818 152.739 94.2465 152.633 94.1832C152.612 94.171 152.585 94.147 152.578 94.0785C152.537 93.686 152.645 92.3699 152.646 92.3565C152.651 92.2948 152.605 92.2404 152.543 92.2352C152.481 92.23 152.427 92.2763 152.421 92.338C152.417 92.3928 152.311 93.6885 152.354 94.1018C152.37 94.2572 152.451 94.3368 152.517 94.3764C152.589 94.4197 152.676 94.4348 152.762 94.4348Z" fill="#FDA084"/>
<path d="M156.898 92.3754H156.389C156.445 91.8641 156.526 90.9627 156.106 90.8336C154.778 90.4259 156.499 89.4876 155.899 89.0199C155.3 88.5511 153.808 88.752 152.771 88.7183C151.727 88.6847 150.049 88.6995 149.642 88.7938C149.234 88.887 149.458 89.5649 149.608 90.0899C149.758 90.6138 149.107 91.1944 148.998 91.7372C148.967 91.8929 148.973 92.1246 148.998 92.3754H148.573C148.523 91.7146 148.515 91.0993 148.525 90.6001C148.542 89.7266 149.018 88.9281 149.778 88.4974C151.837 87.3305 154.009 87.7656 155.44 88.3154C156.432 88.6965 157.068 89.6715 157.017 90.7319C156.993 91.2358 156.956 91.8089 156.898 92.3754Z" fill="#01305A"/>
<path d="M174.372 129.87C172.711 131.535 170.2 133.57 167.897 135.05C166.685 135.829 165.76 136.16 165.205 136.345C165.205 135.79 165.205 135.975 165.205 136.345C165.39 135.79 165.862 135.05 165.862 134.68C167.712 133.94 173.88 129.555 174.64 127.835C175.4 126.115 177.088 123.941 174.923 120.766C173.207 118.249 170.74 114.896 163.928 114.054C157.981 113.319 154.118 114.223 150.71 115.02C147.813 115.697 145.077 116.336 141.728 115.751C139.27 115.32 137.382 114.696 135.717 114.144C132.653 113.131 130.629 112.462 127.415 113.778C121.994 115.999 119.577 125.205 119.553 125.297L118.03 124.908C118.135 124.498 120.665 114.845 126.819 112.323C130.571 110.786 133.06 111.609 136.211 112.651C137.825 113.186 139.655 113.791 141.999 114.202C145.033 114.733 147.498 114.157 150.351 113.489C153.887 112.662 157.896 111.725 164.121 112.494C167.028 112.853 169.738 113.851 172.176 115.46C174.298 116.861 174.763 117.738 176.222 119.88C178.667 123.467 176.033 128.205 174.372 129.87Z" fill="#00528A"/>
<path d="M104.34 140.208L107.868 129.058C109.371 124.309 114.438 121.678 119.187 123.18C123.936 124.683 126.568 129.751 125.066 134.5L121.538 145.649C114.391 143.389 111.511 142.477 104.34 140.208Z" fill="#A7A7A7"/>
<path d="M132.02 113.79C132.02 113.79 132.326 113.087 132.935 112.141C133.245 111.661 133.966 111.425 134.045 112.002C134.107 112.457 133.782 112.801 133.716 113.245C133.716 113.245 133.875 112.992 134.23 112.335C134.552 111.742 134.992 111.786 135.057 112.236C135.119 112.66 134.995 112.643 134.89 112.965C134.75 113.392 134.551 113.925 134.551 113.925C134.551 113.925 134.704 113.307 135.229 112.597C135.469 112.272 135.708 111.911 136.063 112.415C136.241 112.668 136.006 113.355 135.815 114.091C135.815 114.091 136.198 113.105 136.691 112.852C137.081 112.652 137.28 112.828 137.129 113.371C136.934 114.071 136.81 114.264 136.662 114.679C136.514 115.093 135.971 115.687 135.539 115.55C135.108 115.412 135.015 115.111 134.721 115.09C134.428 115.069 133.957 115.096 133.757 114.914C133.557 114.733 133.35 114.692 133.009 114.68C132.675 114.668 132.001 114.236 132.02 113.79Z" fill="#FFC0AD"/>
<path d="M162.55 114.474C162.55 114.474 162.743 113.732 163.201 112.704C163.433 112.181 164.021 111.806 164.187 112.363C164.319 112.803 164.138 113.225 164.142 113.673C164.142 113.673 164.26 113.399 164.51 112.696C164.736 112.06 165.178 112.036 165.312 112.47C165.438 112.88 165.313 112.882 165.259 113.216C165.186 113.66 165.072 114.217 165.072 114.217C165.072 114.217 165.128 113.582 165.537 112.8C165.724 112.442 165.904 112.049 166.333 112.492C166.548 112.714 166.421 113.43 166.346 114.186C166.346 114.186 166.435 113.282 166.883 112.956C167.237 112.698 167.599 112.712 167.533 113.272C167.448 113.995 167.355 114.204 167.273 114.636C167.19 115.069 166.745 115.739 166.298 115.669C165.851 115.6 165.712 115.317 165.419 115.341C165.125 115.366 164.664 115.464 164.439 115.316C164.214 115.167 164.002 115.159 163.664 115.2C163.332 115.24 162.599 114.917 162.55 114.474Z" fill="#FFC0AD"/>
<path d="M94.4425 151.013C94.4425 151.319 94.3186 151.596 94.1176 151.797C93.9171 151.998 93.6396 152.123 93.3325 152.123H88.911V149.903H93.3325C93.9456 149.903 94.4425 150.4 94.4425 151.013Z" fill="#00528A"/>
<path d="M94.4425 158.906C94.4425 159.213 94.3186 159.491 94.1176 159.691C93.9171 159.892 93.6396 160.016 93.3325 160.016H88.911V157.796H93.3325C93.9456 157.796 94.4425 158.293 94.4425 158.906Z" fill="#00528A"/>
<path d="M90.9275 149.903H88.911V152.123H90.9275V149.903Z" fill="#01305A"/>
<path d="M90.9275 157.796H88.911V160.016H90.9275V157.796Z" fill="#01305A"/>
<path d="M71.3637 153.66L71.3027 155.417C52.9755 154.774 38.7619 153.437 29.0587 151.444C20.7374 149.735 15.5259 147.539 13.1265 144.729C11.8944 143.286 11.3812 141.645 11.6013 139.851C11.9721 136.83 14.6575 134.599 19.5959 133.202C19.6699 133.795 19.7968 134.37 19.9733 134.924C16.6581 135.88 13.6659 137.461 13.3459 140.066C13.1857 141.368 13.5512 142.52 14.4633 143.588C16.5686 146.054 21.5987 148.117 29.412 149.722C39.0202 151.697 53.1346 153.021 71.3637 153.66Z" fill="#00528A"/>
<path d="M88.911 163.978H77.2164C72.2354 163.978 68.1976 159.94 68.1976 154.959C68.1976 149.978 72.2354 145.941 77.2164 145.941H88.911C88.911 153.436 88.911 156.457 88.911 163.978Z" fill="#A7A7A7"/>
<path d="M114.283 47.9346C114.283 46.586 115.381 45.4885 116.729 45.4885C118.078 45.4885 119.176 46.586 119.176 47.9346C119.176 49.2833 118.078 50.3807 116.729 50.3807C115.381 50.3807 114.283 49.2833 114.283 47.9346ZM115.051 47.9346C115.051 48.86 115.804 49.6133 116.729 49.6133C117.655 49.6133 118.408 48.8603 118.408 47.9346C118.408 47.0089 117.655 46.2559 116.729 46.2559C115.804 46.2559 115.051 47.0089 115.051 47.9346Z" fill="#00528A"/>
<path d="M106.107 37.4573C106.107 36.1087 107.205 35.0112 108.553 35.0112C109.902 35.0112 110.999 36.1087 110.999 37.4573C110.999 38.806 109.902 39.9034 108.553 39.9034C107.204 39.9034 106.107 38.806 106.107 37.4573ZM106.874 37.4573C106.874 38.3831 107.627 39.136 108.553 39.136C109.479 39.136 110.232 38.3831 110.232 37.4573C110.232 36.5316 109.479 35.7786 108.553 35.7786C107.627 35.779 106.874 36.5319 106.874 37.4573Z" fill="#00528A"/>
<path d="M106.874 49.1641C107.086 49.1641 107.258 48.9924 107.258 48.7804V47.0884C107.258 46.8764 107.086 46.7047 106.874 46.7047C106.662 46.7047 106.491 46.8764 106.491 47.0884V48.7804C106.491 48.9924 106.662 49.1641 106.874 49.1641Z" fill="#3B73AB"/>
<path d="M106.875 52.1249C107.087 52.1249 107.258 51.9532 107.258 51.7412V50.0492C107.258 49.8372 107.087 49.6655 106.875 49.6655C106.663 49.6655 106.491 49.8372 106.491 50.0492V51.7412C106.491 51.9532 106.663 52.1249 106.875 52.1249Z" fill="#3B73AB"/>
<path d="M104.499 49.7987H106.019C106.231 49.7987 106.403 49.627 106.403 49.415C106.403 49.203 106.231 49.0313 106.019 49.0313H104.499C104.287 49.0313 104.116 49.203 104.116 49.415C104.116 49.627 104.287 49.7987 104.499 49.7987Z" fill="#3B73AB"/>
<path d="M107.729 49.7987H109.249C109.461 49.7987 109.633 49.627 109.633 49.415C109.633 49.203 109.461 49.0313 109.249 49.0313H107.729C107.517 49.0313 107.345 49.203 107.345 49.415C107.345 49.627 107.518 49.7987 107.729 49.7987Z" fill="#3B73AB"/>
<path d="M117.201 37.8913C117.413 37.8913 117.584 37.7196 117.584 37.5076V35.8156C117.584 35.6036 117.413 35.4319 117.201 35.4319C116.989 35.4319 116.817 35.6036 116.817 35.8156V37.5076C116.817 37.7196 116.989 37.8913 117.201 37.8913Z" fill="#00528A"/>
<path d="M117.201 40.8521C117.413 40.8521 117.584 40.6804 117.584 40.4684V38.7764C117.584 38.5644 117.413 38.3927 117.201 38.3927C116.989 38.3927 116.817 38.5644 116.817 38.7764V40.4684C116.817 40.6804 116.989 40.8521 117.201 40.8521Z" fill="#00528A"/>
<path d="M114.826 38.5259H116.346C116.557 38.5259 116.729 38.3542 116.729 38.1422C116.729 37.9302 116.558 37.7585 116.346 37.7585H114.826C114.614 37.7585 114.442 37.9302 114.442 38.1422C114.442 38.3542 114.614 38.5259 114.826 38.5259Z" fill="#00528A"/>
<path d="M118.056 38.5259H119.576C119.788 38.5259 119.96 38.3542 119.96 38.1422C119.96 37.9302 119.788 37.7585 119.576 37.7585H118.056C117.844 37.7585 117.672 37.9302 117.672 38.1422C117.672 38.3542 117.844 38.5259 118.056 38.5259Z" fill="#00528A"/>
<path d="M43.5819 31.1766C43.5819 29.8279 44.6793 28.7305 46.0276 28.7305C47.3763 28.7305 48.4737 29.8279 48.4737 31.1766C48.4737 32.5252 47.3763 33.6223 46.0276 33.6223C44.6793 33.6223 43.5819 32.5252 43.5819 31.1766ZM44.3493 31.1766C44.3493 32.1019 45.1022 32.8553 46.028 32.8553C46.9537 32.8553 47.7067 32.1023 47.7067 31.1766C47.7067 30.2508 46.9537 29.4979 46.028 29.4979C45.1022 29.4979 44.3493 30.2508 44.3493 31.1766Z" fill="#00528A"/>
<path d="M34.1761 35.779C34.1761 34.4303 35.2732 33.3329 36.6222 33.3329C37.9709 33.3329 39.0679 34.4303 39.0679 35.779C39.0679 37.1276 37.9705 38.2247 36.6222 38.2247C35.2732 38.2247 34.1761 37.1276 34.1761 35.779ZM34.9435 35.779C34.9435 36.7047 35.6965 37.4577 36.6222 37.4577C37.548 37.4577 38.3009 36.7047 38.3009 35.779C38.3009 34.8533 37.548 34.1003 36.6222 34.1003C35.6965 34.1003 34.9435 34.8533 34.9435 35.779Z" fill="#3B73AB"/>
<path d="M32.7687 42.3628C32.9807 42.3628 33.1524 42.1911 33.1524 41.9791V40.2871C33.1524 40.0751 32.9807 39.9034 32.7687 39.9034C32.5567 39.9034 32.385 40.0751 32.385 40.2871V41.9791C32.385 42.1911 32.5567 42.3628 32.7687 42.3628Z" fill="#00528A"/>
<path d="M32.7687 45.3235C32.9807 45.3235 33.1524 45.1518 33.1524 44.9398V43.2478C33.1524 43.0358 32.9807 42.8641 32.7687 42.8641C32.5567 42.8641 32.385 43.0358 32.385 43.2478V44.9398C32.385 45.1518 32.5567 45.3235 32.7687 45.3235Z" fill="#00528A"/>
<path d="M30.3936 42.9973H31.9136C32.1256 42.9973 32.2973 42.8256 32.2973 42.6136C32.2973 42.4016 32.1256 42.2299 31.9136 42.2299H30.3936C30.1816 42.2299 30.0099 42.4016 30.0099 42.6136C30.0099 42.8253 30.182 42.9973 30.3936 42.9973Z" fill="#00528A"/>
<path d="M33.6237 42.9973H35.1437C35.3553 42.9973 35.5274 42.8256 35.5274 42.6136C35.5274 42.4016 35.3557 42.2299 35.1437 42.2299H33.6237C33.4117 42.2299 33.2401 42.4016 33.2401 42.6136C33.2401 42.8253 33.4117 42.9973 33.6237 42.9973Z" fill="#00528A"/>
<path d="M39.6466 26.5371C39.8586 26.5371 40.0303 26.3655 40.0303 26.1534V24.4614C40.0303 24.2494 39.8586 24.0777 39.6466 24.0777C39.4346 24.0777 39.2629 24.2494 39.2629 24.4614V26.1534C39.2629 26.3651 39.4346 26.5371 39.6466 26.5371Z" fill="#00528A"/>
<path d="M39.6466 29.4979C39.8586 29.4979 40.0303 29.3262 40.0303 29.1142V27.4222C40.0303 27.2102 39.8586 27.0385 39.6466 27.0385C39.4346 27.0385 39.2629 27.2102 39.2629 27.4222V29.1142C39.2629 29.3262 39.4346 29.4979 39.6466 29.4979Z" fill="#00528A"/>
<path d="M37.2716 27.1717H38.7915C39.0035 27.1717 39.1752 27 39.1752 26.788C39.1752 26.576 39.0035 26.4043 38.7915 26.4043H37.2716C37.0599 26.4043 36.8879 26.576 36.8879 26.788C36.8879 26.9996 37.0599 27.1717 37.2716 27.1717Z" fill="#00528A"/>
<path d="M40.5017 27.1717H42.0216C42.2336 27.1717 42.4053 27 42.4053 26.788C42.4053 26.576 42.2336 26.4043 42.0216 26.4043H40.5017C40.2897 26.4043 40.118 26.576 40.118 26.788C40.118 26.9996 40.2897 27.1717 40.5017 27.1717Z" fill="#00528A"/>
</g>
<defs>
<linearGradient id="paint0_linear_114_110" x1="47.1721" y1="96.689" x2="78.0682" y2="96.5849" gradientUnits="userSpaceOnUse">
<stop stop-color="#223F80"/>
<stop offset="0.515625" stop-color="#444584"/>
<stop offset="1" stop-color="#A43936"/>
</linearGradient>
<linearGradient id="paint1_linear_114_110" x1="79.4754" y1="96.94" x2="108.071" y2="96.8547" gradientUnits="userSpaceOnUse">
<stop stop-color="#223F80"/>
<stop offset="0.515625" stop-color="#444584"/>
<stop offset="1" stop-color="#A43936"/>
</linearGradient>
<linearGradient id="paint2_linear_114_110" x1="110.319" y1="96.689" x2="141.215" y2="96.5849" gradientUnits="userSpaceOnUse">
<stop stop-color="#223F80"/>
<stop offset="0.515625" stop-color="#444584"/>
<stop offset="1" stop-color="#A43936"/>
</linearGradient>
<clipPath id="clip0_114_110">
<rect width="185" height="185" fill="white"/>
</clipPath>
</defs>
</svg>
