<svg width="37" height="37" viewBox="0 0 37 37" fill="none" xmlns="http://www.w3.org/2000/svg">
<circle cx="18.4999" cy="12.3333" r="5.16667" stroke="url(#paint0_linear_31_2984)" stroke-width="2" stroke-linecap="round"/>
<path d="M23.0689 12.0625C23.5496 11.2299 24.3414 10.6224 25.27 10.3735C26.1987 10.1247 27.1881 10.255 28.0208 10.7357C28.8534 11.2164 29.4609 12.0081 29.7097 12.9368C29.9586 13.8654 29.8283 14.8549 29.3476 15.6875C28.8669 16.5201 28.0751 17.1276 27.1465 17.3765C26.2178 17.6253 25.2284 17.495 24.3958 17.0143C23.5631 16.5336 22.9556 15.7419 22.7068 14.8132C22.4579 13.8846 22.5882 12.8951 23.0689 12.0625L23.0689 12.0625Z" stroke="url(#paint1_linear_31_2984)" stroke-width="2"/>
<path d="M7.65241 12.0625C8.13311 11.2299 8.92488 10.6224 9.85353 10.3735C10.7822 10.1247 11.7716 10.255 12.6042 10.7357C13.4369 11.2164 14.0444 12.0081 14.2932 12.9368C14.5421 13.8654 14.4118 14.8549 13.9311 15.6875C13.4504 16.5201 12.6586 17.1276 11.73 17.3765C10.8013 17.6253 9.81185 17.495 8.97925 17.0143C8.14664 16.5336 7.5391 15.7419 7.29027 14.8132C7.04144 13.8846 7.1717 12.8951 7.65241 12.0625L7.65241 12.0625Z" stroke="url(#paint2_linear_31_2984)" stroke-width="2"/>
<path d="M26.0258 27.75L25.0455 27.9475L25.2072 28.75H26.0258V27.75ZM32.1314 26.6469L33.0927 26.3715L33.0927 26.3715L32.1314 26.6469ZM22.7871 22.6788L22.1823 21.8824L21.0257 22.7609L22.259 23.5279L22.7871 22.6788ZM31.2422 26.75H26.0258V28.75H31.2422V26.75ZM31.17 26.9223C31.1662 26.909 31.1629 26.8821 31.1701 26.8492C31.1769 26.8182 31.1902 26.7946 31.2029 26.7791C31.2279 26.7488 31.2489 26.75 31.2422 26.75V28.75C32.4101 28.75 33.4676 27.6801 33.0927 26.3715L31.17 26.9223ZM26.2084 22.5834C27.8578 22.5834 28.9493 23.2556 29.7085 24.1129C30.4943 25.0003 30.9364 26.1069 31.17 26.9223L33.0927 26.3715C32.8181 25.413 32.2692 23.9878 31.2058 22.787C30.1158 21.556 28.5 20.5834 26.2084 20.5834V22.5834ZM23.392 23.4751C24.0774 22.9545 24.9812 22.5834 26.2084 22.5834V20.5834C24.5373 20.5834 23.21 21.1018 22.1823 21.8824L23.392 23.4751ZM22.259 23.5279C24.0477 24.6404 24.7651 26.5551 25.0455 27.9475L27.0062 27.5526C26.682 25.943 25.7933 23.3708 23.3152 21.8296L22.259 23.5279Z" fill="url(#paint3_linear_31_2984)"/>
<path d="M14.213 22.6788L14.7411 23.5279L15.9744 22.7609L14.8178 21.8824L14.213 22.6788ZM4.86871 26.6469L3.90739 26.3715H3.90739L4.86871 26.6469ZM10.9742 27.75V28.75H11.7929L11.9545 27.9475L10.9742 27.75ZM10.7917 22.5834C12.0189 22.5834 12.9227 22.9545 13.6081 23.4751L14.8178 21.8824C13.79 21.1018 12.4628 20.5834 10.7917 20.5834V22.5834ZM5.83003 26.9223C6.06366 26.1069 6.50575 25.0003 7.2916 24.1129C8.05076 23.2556 9.14233 22.5834 10.7917 22.5834V20.5834C8.50015 20.5834 6.88432 21.556 5.79427 22.787C4.73091 23.9878 4.18199 25.413 3.90739 26.3715L5.83003 26.9223ZM5.75784 26.75C5.75121 26.75 5.77213 26.7488 5.79712 26.7791C5.80986 26.7946 5.8232 26.8182 5.82999 26.8492C5.83719 26.8821 5.83385 26.909 5.83003 26.9223L3.90739 26.3715C3.53246 27.6801 4.58994 28.75 5.75784 28.75V26.75ZM10.9742 26.75H5.75784V28.75H10.9742V26.75ZM11.9545 27.9475C12.2349 26.5551 12.9524 24.6404 14.7411 23.5279L13.6848 21.8296C11.2068 23.3708 10.318 25.943 9.99387 27.5526L11.9545 27.9475Z" fill="url(#paint4_linear_31_2984)"/>
<path d="M18.5001 21.5834C24.4755 21.5834 25.8189 26.2155 26.1208 28.2982C26.2001 28.8447 25.7607 29.2917 25.2084 29.2917H11.7917C11.2395 29.2917 10.8001 28.8447 10.8793 28.2982C11.1813 26.2155 12.5246 21.5834 18.5001 21.5834Z" stroke="url(#paint5_linear_31_2984)" stroke-width="2" stroke-linecap="round"/>
<defs>
<linearGradient id="paint0_linear_31_2984" x1="12.4999" y1="18.4999" x2="21.4999" y2="1.99994" gradientUnits="userSpaceOnUse">
<stop stop-color="#223F80"/>
<stop offset="0.499547" stop-color="#444584"/>
<stop offset="1" stop-color="#A43936"/>
</linearGradient>
<linearGradient id="paint1_linear_31_2984" x1="22.4999" y1="21" x2="31.4999" y2="6" gradientUnits="userSpaceOnUse">
<stop stop-color="#223F80"/>
<stop offset="0.453125" stop-color="#444584"/>
<stop offset="1" stop-color="#A43936"/>
</linearGradient>
<linearGradient id="paint2_linear_31_2984" x1="6.50012" y1="18" x2="13.5001" y2="5" gradientUnits="userSpaceOnUse">
<stop stop-color="#223F80"/>
<stop offset="0.411458" stop-color="#444584"/>
<stop offset="1" stop-color="#A43936"/>
</linearGradient>
<linearGradient id="paint3_linear_31_2984" x1="24" y1="30.5001" x2="32" y2="19.0001" gradientUnits="userSpaceOnUse">
<stop stop-color="#223F80"/>
<stop offset="0.505208" stop-color="#444584"/>
<stop offset="1" stop-color="#A43936"/>
</linearGradient>
<linearGradient id="paint4_linear_31_2984" x1="5" y1="29.5001" x2="15" y2="17.0001" gradientUnits="userSpaceOnUse">
<stop stop-color="#223F80"/>
<stop offset="0.463542" stop-color="#444584"/>
<stop offset="1" stop-color="#A43936"/>
</linearGradient>
<linearGradient id="paint5_linear_31_2984" x1="12.0001" y1="33.0001" x2="23.5001" y2="15.0001" gradientUnits="userSpaceOnUse">
<stop stop-color="#223F80"/>
<stop offset="0.479167" stop-color="#444584"/>
<stop offset="1" stop-color="#A43936"/>
</linearGradient>
</defs>
</svg>
