<svg width="10" height="10" viewBox="0 0 10 10" fill="none" xmlns="http://www.w3.org/2000/svg">
<g clip-path="url(#clip0_2_295)">
<path d="M5.50446 0.183685C5.22545 -0.0604553 4.77232 -0.0604553 4.4933 0.183685L1.63616 2.68369C1.35714 2.92783 1.35714 3.32431 1.63616 3.56845C1.91518 3.81259 2.3683 3.81259 2.64732 3.56845L4.28571 2.13486V6.25009C4.28571 6.59579 4.60491 6.87509 5 6.87509C5.39509 6.87509 5.71429 6.59579 5.71429 6.25009V2.13486L7.35268 3.56845C7.6317 3.81259 8.08482 3.81259 8.36384 3.56845C8.64286 3.32431 8.64286 2.92783 8.36384 2.68369L5.5067 0.183685H5.50446ZM1.42857 6.87509C1.42857 6.52939 1.10938 6.25009 0.714286 6.25009C0.319196 6.25009 0 6.52939 0 6.87509V8.12509C0 9.16025 0.959821 10.0001 2.14286 10.0001H7.85714C9.04018 10.0001 10 9.16025 10 8.12509V6.87509C10 6.52939 9.6808 6.25009 9.28571 6.25009C8.89063 6.25009 8.57143 6.52939 8.57143 6.87509V8.12509C8.57143 8.47079 8.25223 8.75009 7.85714 8.75009H2.14286C1.74777 8.75009 1.42857 8.47079 1.42857 8.12509V6.87509Z" fill="#4D4D4D"/>
</g>
<defs>
<clipPath id="clip0_2_295">
<rect width="10" height="10" fill="white"/>
</clipPath>
</defs>
</svg>
