<svg width="505" height="362" viewBox="0 0 505 362" fill="none" xmlns="http://www.w3.org/2000/svg">
<path d="M71.7274 94.5955C65.8297 93.0677 59.8131 96.6118 58.2881 102.511C56.7631 108.411 60.3055 114.433 66.2033 115.96C72.101 117.488 78.1175 113.944 79.6425 108.045C81.1675 102.144 77.6236 96.1233 71.7274 94.5955Z" fill="#FF8D24"/>
<path d="M70.7969 94.3551C64.8991 92.8273 58.8826 96.3713 57.3576 102.27C55.8326 108.171 59.3765 114.192 65.2727 115.72C71.1705 117.248 77.187 113.704 78.712 107.805C80.237 101.904 76.6931 95.8829 70.7969 94.3551Z" fill="#FFE27C"/>
<path d="M68.2653 99.2035C64.94 99.2181 62.256 101.928 62.2716 105.255C62.2872 108.583 64.9963 111.269 68.3216 111.254C71.6469 111.24 74.3309 108.53 74.3153 105.203C74.2997 101.875 71.5914 99.189 68.2653 99.2035Z" fill="#FF9D43"/>
<path d="M70.5501 103.639L70.3252 104.322L66.0339 104.322L66.2588 103.639L70.5501 103.639ZM68.5384 108.241L66.1138 105.605L66.1004 105.11L67.3056 105.11C67.6191 105.11 67.8862 105.071 68.1069 104.993C68.3276 104.912 68.4965 104.793 68.6134 104.634C68.7304 104.473 68.7888 104.271 68.7887 104.028C68.7886 103.669 68.6671 103.387 68.4242 103.183C68.1813 102.977 67.8082 102.874 67.3049 102.874L66.0334 102.874L66.2584 102.215L67.3047 102.215C67.8433 102.215 68.2848 102.295 68.6293 102.454C68.9759 102.611 69.232 102.826 69.3977 103.101C69.5655 103.374 69.6495 103.683 69.6496 104.028C69.6497 104.34 69.5725 104.627 69.4181 104.89C69.2659 105.151 69.0209 105.361 68.6832 105.519C68.3478 105.678 67.9041 105.758 67.3522 105.758L67.3324 105.758L69.5715 108.194L69.5715 108.241L68.5384 108.241ZM70.5497 102.215L70.3247 102.898L66.9473 102.874L67.1723 102.215L70.5497 102.215Z" fill="#F7DE61"/>
<path d="M68.0006 115.22C67.1693 115.22 66.3242 115.116 65.4821 114.898C62.8841 114.225 60.7022 112.579 59.3408 110.264C57.9778 107.948 57.5987 105.242 58.2705 102.643C58.9424 100.044 60.5876 97.8613 62.8996 96.4984C65.2132 95.1354 67.9176 94.7569 70.5156 95.43C73.1151 96.103 75.2955 97.7484 76.6584 100.064C78.0198 102.379 78.4006 105.085 77.7287 107.684C76.5587 112.21 72.4701 115.218 68.0021 115.22L68.0006 115.22ZM67.9805 95.7047C66.3163 95.7047 64.6766 96.1488 63.2049 97.0158C61.0301 98.2963 59.484 100.349 58.8517 102.793C58.2195 105.238 58.5773 107.782 59.8578 109.959C61.1383 112.135 63.1905 113.683 65.6344 114.316C66.4262 114.521 67.2209 114.62 68.0019 114.62C72.2044 114.62 76.0491 111.79 77.149 107.535C78.4546 102.487 75.4113 97.318 70.3663 96.0115C69.5761 95.807 68.7752 95.7062 67.9805 95.7062L67.9805 95.7047Z" fill="#FF9D43"/>
<path fill-rule="evenodd" clip-rule="evenodd" d="M64.6832 86.4182C69.1112 87.2286 69.9187 92.8803 69.9187 92.8803C69.9187 92.8803 65.1872 90.9601 64.2821 89.2467C63.377 87.5333 64.6832 86.4182 64.6832 86.4182Z" fill="url(#paint0_linear_40_2706)"/>
<path fill-rule="evenodd" clip-rule="evenodd" d="M78.7148 90.0296C76.7887 94.1125 71.1404 93.4326 71.1404 93.4326C71.1404 93.4326 74.213 89.3427 76.0964 88.9087C77.9797 88.4748 78.7148 90.0296 78.7148 90.0296Z" fill="url(#paint1_linear_40_2706)"/>
<path fill-rule="evenodd" clip-rule="evenodd" d="M73.3345 85.62C74.8491 89.8739 70.3761 93.4016 70.3761 93.4016C70.3761 93.4016 69.6673 88.3291 70.6932 86.6856C71.7192 85.0422 73.3345 85.62 73.3345 85.62Z" fill="url(#paint2_linear_40_2706)"/>
<path d="M312.667 94L308.289 100.566C307.863 101.205 306.906 101.146 306.563 100.459L305.437 98.2079C305.094 97.5212 304.137 97.4616 303.711 98.1004L299.333 104.667" stroke="url(#paint3_linear_40_2706)" stroke-width="2" stroke-linecap="round" stroke-linejoin="round"/>
<rect x="294" y="86" width="24" height="24" rx="2" stroke="url(#paint4_linear_40_2706)" stroke-width="2"/>
<path d="M259.378 170.212C259.967 170.089 260.318 169.474 260.058 168.931C259.078 166.883 257.375 165.083 255.131 163.744C252.512 162.181 249.302 161.333 246 161.333C242.698 161.333 239.488 162.181 236.868 163.744C234.625 165.083 232.921 166.883 231.942 168.931C231.682 169.474 232.033 170.089 232.622 170.212L237.839 171.299C243.222 172.421 248.778 172.421 254.161 171.299L259.378 170.212Z" fill="url(#paint5_linear_40_2706)"/>
<circle cx="246" cy="151.333" r="8.33333" fill="url(#paint6_linear_40_2706)"/>
<path fill-rule="evenodd" clip-rule="evenodd" d="M295.545 150.545C294.667 151.424 294.667 152.838 294.667 155.667V170.333C294.667 173.162 294.667 174.576 295.545 175.455C296.424 176.333 297.838 176.333 300.667 176.333H315.333C318.162 176.333 319.576 176.333 320.455 175.455C321.333 174.576 321.333 173.162 321.333 170.333V155.667C321.333 152.838 321.333 151.424 320.455 150.545C319.576 149.667 318.162 149.667 315.333 149.667H300.667C297.838 149.667 296.424 149.667 295.545 150.545ZM315.499 159.555C315.805 159.095 315.681 158.474 315.221 158.168C314.762 157.862 314.141 157.986 313.835 158.445L309.457 165.011L308.332 162.761C307.645 161.387 305.731 161.268 304.879 162.546L300.501 169.112C300.195 169.571 300.319 170.192 300.779 170.499C301.238 170.805 301.859 170.681 302.165 170.221L306.543 163.655L307.668 165.906C308.355 167.279 310.269 167.399 311.121 166.121L315.499 159.555Z" fill="url(#paint7_linear_40_2706)"/>
<circle cx="167.5" cy="150.333" r="5.16667" stroke="url(#paint8_linear_40_2706)" stroke-width="2" stroke-linecap="round"/>
<path d="M172.069 150.063C172.55 149.23 173.341 148.622 174.27 148.374C175.199 148.125 176.188 148.255 177.021 148.736C177.853 149.216 178.461 150.008 178.71 150.937C178.959 151.865 178.828 152.855 178.348 153.687C177.867 154.52 177.075 155.128 176.146 155.376C175.218 155.625 174.228 155.495 173.396 155.014C172.563 154.534 171.956 153.742 171.707 152.813C171.458 151.885 171.588 150.895 172.069 150.063L172.069 150.063Z" stroke="url(#paint9_linear_40_2706)" stroke-width="2"/>
<path d="M156.652 150.063C157.133 149.23 157.925 148.622 158.854 148.374C159.782 148.125 160.772 148.255 161.604 148.736C162.437 149.216 163.044 150.008 163.293 150.937C163.542 151.865 163.412 152.855 162.931 153.687C162.45 154.52 161.659 155.128 160.73 155.376C159.801 155.625 158.812 155.495 157.979 155.014C157.147 154.534 156.539 153.742 156.29 152.813C156.041 151.885 156.172 150.895 156.652 150.063L156.652 150.063Z" stroke="url(#paint10_linear_40_2706)" stroke-width="2"/>
<path d="M175.026 165.75L174.046 165.947L174.207 166.75H175.026V165.75ZM181.131 164.647L182.093 164.371L182.093 164.371L181.131 164.647ZM171.787 160.679L171.182 159.882L170.026 160.761L171.259 161.528L171.787 160.679ZM180.242 164.75H175.026V166.75H180.242V164.75ZM180.17 164.922C180.166 164.909 180.163 164.882 180.17 164.849C180.177 164.818 180.19 164.795 180.203 164.779C180.228 164.749 180.249 164.75 180.242 164.75V166.75C181.41 166.75 182.468 165.68 182.093 164.371L180.17 164.922ZM175.208 160.583C176.858 160.583 177.949 161.256 178.708 162.113C179.494 163 179.936 164.107 180.17 164.922L182.093 164.371C181.818 163.413 181.269 161.988 180.206 160.787C179.116 159.556 177.5 158.583 175.208 158.583V160.583ZM172.392 161.475C173.077 160.954 173.981 160.583 175.208 160.583V158.583C173.537 158.583 172.21 159.102 171.182 159.882L172.392 161.475ZM171.259 161.528C173.048 162.64 173.765 164.555 174.046 165.947L176.006 165.553C175.682 163.943 174.793 161.371 172.315 159.83L171.259 161.528Z" fill="url(#paint11_linear_40_2706)"/>
<path d="M163.213 160.679L163.741 161.528L164.974 160.761L163.818 159.882L163.213 160.679ZM153.869 164.647L152.907 164.371H152.907L153.869 164.647ZM159.974 165.75V166.75H160.793L160.955 165.947L159.974 165.75ZM159.792 160.583C161.019 160.583 161.923 160.954 162.608 161.475L163.818 159.882C162.79 159.102 161.463 158.583 159.792 158.583V160.583ZM154.83 164.922C155.064 164.107 155.506 163 156.292 162.113C157.051 161.256 158.142 160.583 159.792 160.583V158.583C157.5 158.583 155.884 159.556 154.794 160.787C153.731 161.988 153.182 163.413 152.907 164.371L154.83 164.922ZM154.758 164.75C154.751 164.75 154.772 164.749 154.797 164.779C154.81 164.795 154.823 164.818 154.83 164.849C154.837 164.882 154.834 164.909 154.83 164.922L152.907 164.371C152.532 165.68 153.59 166.75 154.758 166.75V164.75ZM159.974 164.75H154.758V166.75H159.974V164.75ZM160.955 165.947C161.235 164.555 161.952 162.64 163.741 161.528L162.685 159.83C160.207 161.371 159.318 163.943 158.994 165.553L160.955 165.947Z" fill="url(#paint12_linear_40_2706)"/>
<path d="M167.5 159.583C173.476 159.583 174.819 164.216 175.121 166.298C175.2 166.845 174.761 167.292 174.208 167.292H160.792C160.239 167.292 159.8 166.845 159.879 166.298C160.181 164.216 161.525 159.583 167.5 159.583Z" stroke="url(#paint13_linear_40_2706)" stroke-width="2" stroke-linecap="round"/>
<path d="M258.701 112.078C257.922 109.952 256.206 108.073 253.82 106.733C251.433 105.393 248.508 104.667 245.5 104.667C242.491 104.667 239.567 105.393 237.18 106.733C234.793 108.073 233.078 109.952 232.299 112.078" stroke="url(#paint14_linear_40_2706)" stroke-width="2" stroke-linecap="round"/>
<ellipse cx="245.5" cy="91.3333" rx="6.83333" ry="6.66667" stroke="url(#paint15_linear_40_2706)" stroke-width="2" stroke-linecap="round"/>
<path fill-rule="evenodd" clip-rule="evenodd" d="M354.261 156C354.422 156.001 354.585 156.042 354.736 156.126L370 164.606L385.264 156.126C385.415 156.042 385.578 156.001 385.739 156C385.703 154.295 385.546 153.304 384.871 152.629C383.993 151.75 382.578 151.75 379.75 151.75H360.25C357.422 151.75 356.007 151.75 355.129 152.629C354.454 153.304 354.297 154.295 354.261 156ZM385.75 158.144L370.971 166.354C370.367 166.69 369.633 166.69 369.029 166.354L354.25 158.144V170.25C354.25 173.078 354.25 174.493 355.129 175.371C356.007 176.25 357.422 176.25 360.25 176.25H379.75C382.578 176.25 383.993 176.25 384.871 175.371C385.75 174.493 385.75 173.078 385.75 170.25V158.144Z" fill="url(#paint16_linear_40_2706)"/>
<circle cx="165.5" cy="102.875" r="9.625" stroke="url(#paint17_linear_40_2706)" stroke-width="2"/>
<path d="M155.875 91.875L153.125 94.625" stroke="url(#paint18_linear_40_2706)" stroke-width="2" stroke-linecap="round"/>
<path d="M175.125 91.875L177.875 94.625" stroke="url(#paint19_linear_40_2706)" stroke-width="2" stroke-linecap="round"/>
<path d="M161.375 100.125L165.309 102.748C165.417 102.82 165.562 102.797 165.643 102.696L168.25 99.4375" stroke="url(#paint20_linear_40_2706)" stroke-width="2" stroke-linecap="round"/>
<path d="M130.5 91.75V91.75C131.197 91.75 131.545 91.75 131.835 91.8077C133.025 92.0444 133.956 92.9747 134.192 94.1647C134.25 94.4545 134.25 94.803 134.25 95.5L134.25 98.25C134.25 98.7214 134.25 98.9571 134.104 99.1036C133.957 99.25 133.721 99.25 133.25 99.25L126.75 99.25M130.5 91.75V91.75C129.803 91.75 129.455 91.75 129.165 91.8077C127.975 92.0444 127.044 92.9747 126.808 94.1647C126.75 94.4545 126.75 94.803 126.75 95.5L126.75 99.25M130.5 91.75L115.75 91.75C113.864 91.75 112.922 91.75 112.336 92.3358C111.75 92.9216 111.75 93.8644 111.75 95.75L111.75 114.25L115.5 114.25L119.25 114.25L123 114.25L126.75 114.25L126.75 99.25" stroke="url(#paint21_linear_40_2706)" stroke-width="2"/>
<path d="M116.75 96.75L121.75 96.75" stroke="#464583" stroke-width="2" stroke-linecap="round"/>
<path d="M118 101.75H116.75" stroke="#404584" stroke-width="2" stroke-linecap="round"/>
<path d="M116.75 106.75L120.5 106.75" stroke="#3A4483" stroke-width="2" stroke-linecap="round"/>
<circle cx="441" cy="92.5" r="5.25" stroke="url(#paint22_linear_40_2706)" stroke-width="2" stroke-linecap="round"/>
<circle cx="441" cy="96" r="15.75" stroke="url(#paint23_linear_40_2706)" stroke-width="2"/>
<path d="M451.5 107.735C450.881 105.875 449.516 104.231 447.617 103.058C445.719 101.886 443.393 101.25 441 101.25C438.607 101.25 436.281 101.886 434.383 103.058C432.484 104.231 431.119 105.875 430.5 107.735" stroke="url(#paint24_linear_40_2706)" stroke-width="2" stroke-linecap="round"/>
<path fill-rule="evenodd" clip-rule="evenodd" d="M420.333 170C420.333 160.795 427.795 153.333 437 153.333C446.205 153.333 453.667 160.795 453.667 170C453.667 175.278 451.213 179.984 447.384 183.037C446.679 181.021 445.4 179.247 443.696 177.94C441.775 176.466 439.421 175.667 437 175.667C434.578 175.667 432.225 176.466 430.304 177.94C428.6 179.247 427.321 181.021 426.616 183.037C422.787 179.984 420.333 175.278 420.333 170ZM442.479 179.527C444.024 180.712 445.142 182.366 445.666 184.239C443.141 185.779 440.174 186.667 437 186.667C433.826 186.667 430.859 185.779 428.334 184.239C428.858 182.366 429.976 180.712 431.521 179.527C433.093 178.32 435.019 177.667 437 177.667C438.981 177.667 440.907 178.32 442.479 179.527ZM433 165C433 162.791 434.791 161 437 161C439.209 161 441 162.791 441 165C441 167.209 439.209 169 437 169C434.791 169 433 167.209 433 165ZM437 159C433.686 159 431 161.686 431 165C431 168.314 433.686 171 437 171C440.314 171 443 168.314 443 165C443 161.686 440.314 159 437 159Z" fill="url(#paint25_linear_40_2706)"/>
<path d="M85.0641 182.67L82.4308 185.161C80.4918 186.996 77.4326 186.911 75.5981 184.972V184.972C73.7636 183.033 73.8483 179.974 75.7874 178.139L78.4206 175.648" stroke="#223F80" stroke-width="2" stroke-linecap="round" stroke-linejoin="round"/>
<path d="M87.0093 174.176L79.9873 180.82" stroke="#223F80" stroke-width="2" stroke-linecap="round" stroke-linejoin="round"/>
<path d="M88.5754 179.348L91.2086 176.857C93.1477 175.023 93.2325 171.963 91.3979 170.024V170.024C89.5634 168.085 86.5042 168 84.5652 169.835L81.9319 172.326" stroke="#223F80" stroke-width="2" stroke-linecap="round" stroke-linejoin="round"/>
<circle cx="193" cy="221.167" r="8.16667" stroke="#AAAAAA" stroke-width="2"/>
<path d="M184.833 211.833L182.5 214.167" stroke="#AAAAAA" stroke-width="2" stroke-linecap="round"/>
<path d="M201.167 211.833L203.5 214.167" stroke="#AAAAAA" stroke-width="2" stroke-linecap="round"/>
<path d="M189.5 218.833L192.809 221.04C192.917 221.111 193.062 221.089 193.143 220.988L195.333 218.25" stroke="#AAAAAA" stroke-width="2" stroke-linecap="round"/>
<rect x="116.125" y="214.25" width="18.75" height="15.625" rx="2" stroke="#AAAAAA" stroke-width="2"/>
<path d="M116.125 218.25C116.125 216.364 116.125 215.422 116.711 214.836C117.297 214.25 118.239 214.25 120.125 214.25H130.875C132.761 214.25 133.703 214.25 134.289 214.836C134.875 215.422 134.875 216.364 134.875 218.25V218.417H116.125V218.25Z" fill="#AAAAAA"/>
<path d="M120.292 211.125L120.292 214.25" stroke="#AAAAAA" stroke-width="2" stroke-linecap="round"/>
<path d="M130.708 211.125L130.708 214.25" stroke="#AAAAAA" stroke-width="2" stroke-linecap="round"/>
<rect x="120.292" y="220.5" width="4.16667" height="2.08333" rx="0.5" fill="#AAAAAA"/>
<rect x="120.292" y="224.667" width="4.16667" height="2.08333" rx="0.5" fill="#AAAAAA"/>
<rect x="126.542" y="220.5" width="4.16667" height="2.08333" rx="0.5" fill="#AAAAAA"/>
<rect x="126.542" y="224.667" width="4.16667" height="2.08333" rx="0.5" fill="#AAAAAA"/>
<path d="M227.333 300L226.626 299.293L225.919 300L226.626 300.707L227.333 300ZM251.083 301C251.635 301 252.083 300.552 252.083 300C252.083 299.448 251.635 299 251.083 299V301ZM236.126 289.793L226.626 299.293L228.04 300.707L237.54 291.207L236.126 289.793ZM226.626 300.707L236.126 310.207L237.54 308.793L228.04 299.293L226.626 300.707ZM227.333 301H251.083V299H227.333V301Z" fill="#33363F"/>
<rect x="360.333" y="87" width="29.3333" height="22" rx="2" stroke="url(#paint26_linear_40_2706)" stroke-width="2"/>
<path d="M360.333 92.5L374.105 99.3861C374.669 99.6676 375.331 99.6676 375.894 99.3861L389.667 92.5" stroke="url(#paint27_linear_40_2706)" stroke-width="2"/>
<circle cx="114" cy="280.667" r="4.33333" stroke="#223F80" stroke-width="2" stroke-linecap="round"/>
<path d="M118.069 280.5C118.467 279.811 119.122 279.308 119.891 279.102C120.659 278.896 121.478 279.004 122.167 279.402C122.856 279.8 123.359 280.455 123.565 281.224C123.771 281.992 123.663 282.811 123.265 283.5C122.867 284.189 122.212 284.692 121.443 284.898C120.675 285.104 119.856 284.996 119.167 284.598C118.478 284.2 117.975 283.545 117.769 282.776C117.563 282.008 117.671 281.189 118.069 280.5L118.069 280.5Z" stroke="#223F80" stroke-width="2"/>
<path d="M104.735 280.5C105.133 279.811 105.788 279.308 106.557 279.102C107.325 278.896 108.144 279.004 108.833 279.402C109.522 279.8 110.025 280.455 110.231 281.224C110.437 281.992 110.329 282.811 109.931 283.5C109.533 284.189 108.878 284.692 108.109 284.898C107.341 285.104 106.522 284.996 105.833 284.598C105.144 284.2 104.641 283.545 104.435 282.776C104.229 282.008 104.337 281.189 104.735 280.5L104.735 280.5Z" stroke="#223F80" stroke-width="2"/>
<path d="M120.51 294L119.529 294.198L119.691 295H120.51V294ZM125.746 292.899L126.703 292.607V292.607L125.746 292.899ZM117.708 289.614L117.104 288.818L115.947 289.696L117.18 290.463L117.708 289.614ZM124.868 293H120.51V295H124.868V293ZM124.79 293.191C124.786 293.176 124.781 293.146 124.789 293.11C124.796 293.075 124.811 293.049 124.825 293.032C124.852 292.999 124.875 293 124.868 293V295C126.03 295 127.107 293.927 126.703 292.607L124.79 293.191ZM120.667 289.667C123.26 289.667 124.339 291.716 124.79 293.191L126.703 292.607C126.199 290.959 124.68 287.667 120.667 287.667V289.667ZM118.313 290.41C118.883 289.978 119.636 289.667 120.667 289.667V287.667C119.192 287.667 118.016 288.125 117.104 288.818L118.313 290.41ZM117.18 290.463C118.681 291.396 119.29 293.008 119.529 294.198L121.49 293.803C121.207 292.396 120.426 290.127 118.237 288.765L117.18 290.463Z" fill="#223F80"/>
<path d="M110.292 289.614L110.82 290.463L112.054 289.696L110.897 288.818L110.292 289.614ZM102.254 292.899L103.21 293.191L102.254 292.899ZM107.491 294V295H108.31L108.471 294.197L107.491 294ZM107.333 289.667C108.365 289.667 109.118 289.978 109.687 290.41L110.897 288.818C109.985 288.125 108.808 287.667 107.333 287.667V289.667ZM103.21 293.191C103.661 291.716 104.741 289.667 107.333 289.667V287.667C103.321 287.667 101.802 290.958 101.298 292.607L103.21 293.191ZM103.133 293C103.126 293 103.149 292.999 103.176 293.032C103.19 293.049 103.204 293.075 103.212 293.11C103.219 293.146 103.215 293.176 103.21 293.191L101.298 292.607C100.894 293.927 101.971 295 103.133 295V293ZM107.491 293H103.133V295H107.491V293ZM108.471 294.197C108.711 293.008 109.32 291.396 110.82 290.463L109.764 288.765C107.574 290.127 106.794 292.396 106.511 293.803L108.471 294.197Z" fill="#223F80"/>
<path d="M114 288.667C119.044 288.667 120.271 292.483 120.57 294.341C120.658 294.886 120.219 295.333 119.666 295.333H108.333C107.781 295.333 107.341 294.886 107.429 294.341C107.728 292.483 108.956 288.667 114 288.667Z" stroke="#223F80" stroke-width="2" stroke-linecap="round"/>
<circle cx="114" cy="322.667" r="4.33333" stroke="white" stroke-width="2" stroke-linecap="round"/>
<path d="M118.069 322.5C118.467 321.811 119.122 321.308 119.891 321.102C120.659 320.896 121.478 321.004 122.167 321.402C122.856 321.8 123.359 322.455 123.565 323.224C123.771 323.992 123.663 324.811 123.265 325.5C122.867 326.189 122.212 326.692 121.443 326.898C120.675 327.104 119.856 326.996 119.167 326.598C118.478 326.2 117.975 325.545 117.769 324.776C117.563 324.008 117.671 323.189 118.069 322.5L118.069 322.5Z" stroke="white" stroke-width="2"/>
<path d="M104.735 322.5C105.133 321.811 105.788 321.308 106.557 321.102C107.325 320.896 108.144 321.004 108.833 321.402C109.522 321.8 110.025 322.455 110.231 323.224C110.437 323.992 110.329 324.811 109.931 325.5C109.533 326.189 108.878 326.692 108.109 326.898C107.341 327.104 106.522 326.996 105.833 326.598C105.144 326.2 104.641 325.545 104.435 324.776C104.229 324.008 104.337 323.189 104.735 322.5L104.735 322.5Z" stroke="white" stroke-width="2"/>
<path d="M120.51 336L119.529 336.198L119.691 337H120.51V336ZM125.746 334.899L126.703 334.607V334.607L125.746 334.899ZM117.708 331.614L117.104 330.818L115.947 331.696L117.18 332.463L117.708 331.614ZM124.868 335H120.51V337H124.868V335ZM124.79 335.191C124.786 335.176 124.781 335.146 124.789 335.11C124.796 335.075 124.811 335.049 124.825 335.032C124.852 334.999 124.875 335 124.868 335V337C126.03 337 127.107 335.927 126.703 334.607L124.79 335.191ZM120.667 331.667C123.26 331.667 124.339 333.716 124.79 335.191L126.703 334.607C126.199 332.959 124.68 329.667 120.667 329.667V331.667ZM118.313 332.41C118.883 331.978 119.636 331.667 120.667 331.667V329.667C119.192 329.667 118.016 330.125 117.104 330.818L118.313 332.41ZM117.18 332.463C118.681 333.396 119.29 335.008 119.529 336.198L121.49 335.803C121.207 334.396 120.426 332.127 118.237 330.765L117.18 332.463Z" fill="white"/>
<path d="M110.292 331.614L110.82 332.463L112.054 331.696L110.897 330.818L110.292 331.614ZM102.254 334.899L103.21 335.191L102.254 334.899ZM107.491 336V337H108.31L108.471 336.197L107.491 336ZM107.333 331.667C108.365 331.667 109.118 331.978 109.687 332.41L110.897 330.818C109.985 330.125 108.808 329.667 107.333 329.667V331.667ZM103.21 335.191C103.661 333.716 104.741 331.667 107.333 331.667V329.667C103.321 329.667 101.802 332.958 101.298 334.607L103.21 335.191ZM103.133 335C103.126 335 103.149 334.999 103.176 335.032C103.19 335.049 103.204 335.075 103.212 335.11C103.219 335.146 103.215 335.176 103.21 335.191L101.298 334.607C100.894 335.927 101.971 337 103.133 337V335ZM107.491 335H103.133V337H107.491V335ZM108.471 336.197C108.711 335.008 109.32 333.396 110.82 332.463L109.764 330.765C107.574 332.127 106.794 334.396 106.511 335.803L108.471 336.197Z" fill="white"/>
<path d="M114 330.667C119.044 330.667 120.271 334.483 120.57 336.341C120.658 336.886 120.219 337.333 119.666 337.333H108.333C107.781 337.333 107.341 336.886 107.429 336.341C107.728 334.483 108.956 330.667 114 330.667Z" stroke="white" stroke-width="2" stroke-linecap="round"/>
<rect x="360.333" y="33" width="29.3333" height="22" rx="2" stroke="url(#paint28_linear_40_2706)" stroke-width="2"/>
<path d="M360.333 38.5L374.105 45.3861C374.669 45.6676 375.331 45.6676 375.894 45.3861L389.667 38.5" stroke="url(#paint29_linear_40_2706)" stroke-width="2"/>
<circle cx="388.5" cy="35.5" r="5.5" fill="#A43936" stroke="white" stroke-width="2"/>
<mask id="path-68-outside-1_40_2706" maskUnits="userSpaceOnUse" x="158.667" y="276" width="21" height="22" fill="black">
<rect fill="white" x="158.667" y="276" width="21" height="22"/>
<path d="M172.586 279.414L162.392 289.608C162.197 289.803 162.1 289.9 162.033 290.019C161.966 290.137 161.933 290.27 161.866 290.537L160.869 294.525C160.779 294.886 160.734 295.066 160.834 295.167C160.934 295.267 161.114 295.221 161.475 295.131L165.463 294.134C165.73 294.068 165.863 294.034 165.982 293.967C166.1 293.9 166.197 293.803 166.392 293.608L176.586 283.414C177.253 282.748 177.586 282.414 177.586 282C177.586 281.586 177.253 281.252 176.586 280.586L176.586 280.586L175.415 279.414C174.748 278.748 174.415 278.414 174 278.414C173.586 278.414 173.253 278.748 172.586 279.414Z"/>
</mask>
<path d="M162.392 289.608L163.806 291.022L163.806 291.022L162.392 289.608ZM172.586 279.414L174 280.828H174L172.586 279.414ZM175.415 279.414L176.829 278V278L175.415 279.414ZM176.586 280.586L175.172 282L175.203 282.031L175.235 282.06L176.586 280.586ZM176.586 283.414L178 284.828V284.828L176.586 283.414ZM161.866 290.537L159.926 290.052L159.926 290.052L161.866 290.537ZM160.869 294.525L158.929 294.04L160.869 294.525ZM161.475 295.131L161.961 297.072H161.961L161.475 295.131ZM165.463 294.134L164.978 292.194H164.978L165.463 294.134ZM160.834 295.167L159.42 296.581L159.42 296.581L160.834 295.167ZM165.982 293.967L164.996 292.227L164.996 292.227L165.982 293.967ZM176.586 280.586L178 279.172L177.97 279.141L177.938 279.111L176.586 280.586ZM162.033 290.019L160.293 289.033L160.293 289.033L162.033 290.019ZM163.806 291.022L174 280.828L171.172 278L160.978 288.194L163.806 291.022ZM174 280.828L175.172 282L178 279.172L176.829 278L174 280.828ZM175.172 282L164.978 292.194L167.806 295.022L178 284.828L175.172 282ZM159.926 290.052L158.929 294.04L162.809 295.01L163.806 291.022L159.926 290.052ZM161.961 297.072L165.948 296.075L164.978 292.194L160.99 293.191L161.961 297.072ZM158.929 294.04C158.9 294.155 158.818 294.463 158.79 294.749C158.759 295.059 158.732 295.893 159.42 296.581L162.248 293.752C162.514 294.018 162.666 294.334 162.733 294.626C162.792 294.881 162.777 295.076 162.771 295.138C162.764 295.206 162.755 295.237 162.764 295.196C162.772 295.159 162.785 295.108 162.809 295.01L158.929 294.04ZM160.99 293.191C160.892 293.215 160.842 293.228 160.804 293.236C160.763 293.245 160.795 293.236 160.862 293.23C160.924 293.224 161.119 293.208 161.374 293.267C161.667 293.334 161.982 293.487 162.248 293.752L159.42 296.581C160.107 297.268 160.941 297.241 161.251 297.211C161.537 297.183 161.845 297.1 161.961 297.072L160.99 293.191ZM164.978 292.194C164.953 292.219 164.932 292.24 164.912 292.259C164.893 292.279 164.877 292.295 164.863 292.308C164.849 292.321 164.839 292.331 164.832 292.338C164.828 292.342 164.826 292.344 164.824 292.346C164.822 292.347 164.821 292.348 164.821 292.348C164.821 292.348 164.822 292.347 164.824 292.346C164.826 292.344 164.829 292.341 164.833 292.338C164.841 292.331 164.853 292.322 164.869 292.31C164.885 292.298 164.904 292.284 164.926 292.27C164.948 292.255 164.972 292.241 164.996 292.227L166.967 295.708C167.376 295.476 167.687 295.142 167.806 295.022L164.978 292.194ZM165.948 296.075C166.112 296.034 166.558 295.939 166.967 295.708L164.996 292.227C165.021 292.213 165.046 292.2 165.069 292.189C165.093 292.177 165.115 292.168 165.133 292.16C165.151 292.153 165.166 292.148 165.176 292.144C165.181 292.142 165.184 292.141 165.187 292.14C165.189 292.14 165.191 292.139 165.191 292.139C165.191 292.139 165.19 292.139 165.187 292.14C165.185 292.141 165.181 292.142 165.176 292.143C165.167 292.146 165.153 292.15 165.134 292.154C165.116 292.159 165.094 292.165 165.067 292.172C165.041 292.178 165.012 292.186 164.978 292.194L165.948 296.075ZM175.235 282.06L175.235 282.06L177.938 279.111L177.938 279.111L175.235 282.06ZM175.172 282C175.344 282.172 175.47 282.298 175.574 282.408C175.679 282.518 175.727 282.575 175.746 282.601C175.765 282.625 175.723 282.576 175.678 282.468C175.626 282.343 175.586 282.181 175.586 282H179.586C179.586 281.18 179.229 280.571 178.926 280.174C178.659 279.824 178.294 279.465 178 279.172L175.172 282ZM178 284.828C178.294 284.535 178.659 284.176 178.926 283.826C179.229 283.429 179.586 282.82 179.586 282H175.586C175.586 281.819 175.626 281.657 175.678 281.532C175.723 281.424 175.765 281.375 175.746 281.399C175.727 281.425 175.679 281.482 175.574 281.592C175.47 281.702 175.344 281.828 175.172 282L178 284.828ZM174 280.828C174.172 280.657 174.299 280.53 174.408 280.426C174.518 280.321 174.576 280.274 174.601 280.254C174.626 280.236 174.577 280.277 174.468 280.323C174.344 280.375 174.181 280.414 174 280.414V276.414C173.18 276.414 172.571 276.772 172.175 277.074C171.825 277.341 171.465 277.707 171.172 278L174 280.828ZM176.829 278C176.535 277.707 176.176 277.341 175.826 277.074C175.43 276.772 174.821 276.414 174 276.414V280.414C173.819 280.414 173.657 280.375 173.533 280.323C173.424 280.277 173.375 280.236 173.4 280.254C173.425 280.274 173.482 280.321 173.592 280.426C173.702 280.53 173.828 280.657 174 280.828L176.829 278ZM160.978 288.194C160.858 288.314 160.524 288.624 160.293 289.033L163.773 291.004C163.759 291.029 163.745 291.052 163.73 291.074C163.716 291.096 163.702 291.115 163.69 291.131C163.679 291.147 163.669 291.159 163.662 291.167C163.659 291.171 163.656 291.174 163.655 291.176C163.653 291.178 163.652 291.179 163.652 291.179C163.652 291.179 163.653 291.178 163.655 291.176C163.656 291.175 163.659 291.172 163.662 291.168C163.669 291.161 163.679 291.151 163.692 291.137C163.706 291.123 163.722 291.107 163.741 291.088C163.76 291.068 163.782 291.047 163.806 291.022L160.978 288.194ZM163.806 291.022C163.815 290.989 163.822 290.96 163.829 290.933C163.835 290.906 163.841 290.885 163.846 290.866C163.851 290.847 163.854 290.834 163.857 290.824C163.858 290.819 163.859 290.816 163.86 290.813C163.861 290.811 163.861 290.81 163.861 290.81C163.861 290.81 163.861 290.811 163.86 290.814C163.859 290.816 163.858 290.82 163.856 290.825C163.853 290.834 163.847 290.849 163.84 290.867C163.833 290.886 163.823 290.907 163.812 290.931C163.8 290.955 163.788 290.979 163.773 291.004L160.293 289.033C160.061 289.442 159.967 289.888 159.926 290.052L163.806 291.022Z" fill="#223F80" mask="url(#path-68-outside-1_40_2706)"/>
<path d="M170.667 280L174.667 277.333L178.667 281.333L176 285.333L170.667 280Z" fill="#223F80"/>
<mask id="path-71-outside-2_40_2706" maskUnits="userSpaceOnUse" x="158.667" y="318" width="21" height="22" fill="black">
<rect fill="white" x="158.667" y="318" width="21" height="22"/>
<path d="M172.586 321.414L162.392 331.608C162.197 331.803 162.1 331.9 162.033 332.019C161.966 332.137 161.933 332.27 161.866 332.537L160.869 336.525C160.779 336.886 160.734 337.066 160.834 337.167C160.934 337.267 161.114 337.221 161.475 337.131L165.463 336.134C165.73 336.068 165.863 336.034 165.982 335.967C166.1 335.9 166.197 335.803 166.392 335.608L176.586 325.414C177.253 324.748 177.586 324.414 177.586 324C177.586 323.586 177.253 323.252 176.586 322.586L176.586 322.586L175.415 321.414C174.748 320.748 174.415 320.414 174 320.414C173.586 320.414 173.253 320.748 172.586 321.414Z"/>
</mask>
<path d="M162.392 331.608L163.806 333.022L163.806 333.022L162.392 331.608ZM172.586 321.414L174 322.828H174L172.586 321.414ZM175.415 321.414L176.829 320V320L175.415 321.414ZM176.586 322.586L175.172 324L175.203 324.031L175.235 324.06L176.586 322.586ZM176.586 325.414L178 326.828V326.828L176.586 325.414ZM161.866 332.537L159.926 332.052L159.926 332.052L161.866 332.537ZM160.869 336.525L158.929 336.04L160.869 336.525ZM161.475 337.131L161.961 339.072H161.961L161.475 337.131ZM165.463 336.134L164.978 334.194H164.978L165.463 336.134ZM160.834 337.167L159.42 338.581L159.42 338.581L160.834 337.167ZM165.982 335.967L164.996 334.227L164.996 334.227L165.982 335.967ZM176.586 322.586L178 321.172L177.97 321.141L177.938 321.111L176.586 322.586ZM162.033 332.019L160.293 331.033L160.293 331.033L162.033 332.019ZM163.806 333.022L174 322.828L171.172 320L160.978 330.194L163.806 333.022ZM174 322.828L175.172 324L178 321.172L176.829 320L174 322.828ZM175.172 324L164.978 334.194L167.806 337.022L178 326.828L175.172 324ZM159.926 332.052L158.929 336.04L162.809 337.01L163.806 333.022L159.926 332.052ZM161.961 339.072L165.948 338.075L164.978 334.194L160.99 335.191L161.961 339.072ZM158.929 336.04C158.9 336.155 158.818 336.463 158.79 336.749C158.759 337.059 158.732 337.893 159.42 338.581L162.248 335.752C162.514 336.018 162.666 336.334 162.733 336.626C162.792 336.881 162.777 337.076 162.771 337.138C162.764 337.206 162.755 337.237 162.764 337.196C162.772 337.159 162.785 337.108 162.809 337.01L158.929 336.04ZM160.99 335.191C160.892 335.215 160.842 335.228 160.804 335.236C160.763 335.245 160.795 335.236 160.862 335.23C160.924 335.224 161.119 335.208 161.374 335.267C161.667 335.334 161.982 335.487 162.248 335.752L159.42 338.581C160.107 339.268 160.941 339.241 161.251 339.211C161.537 339.183 161.845 339.1 161.961 339.072L160.99 335.191ZM164.978 334.194C164.953 334.219 164.932 334.24 164.912 334.259C164.893 334.279 164.877 334.295 164.863 334.308C164.849 334.321 164.839 334.331 164.832 334.338C164.828 334.342 164.826 334.344 164.824 334.346C164.822 334.347 164.821 334.348 164.821 334.348C164.821 334.348 164.822 334.347 164.824 334.346C164.826 334.344 164.829 334.341 164.833 334.338C164.841 334.331 164.853 334.322 164.869 334.31C164.885 334.298 164.904 334.284 164.926 334.27C164.948 334.255 164.972 334.241 164.996 334.227L166.967 337.708C167.376 337.476 167.687 337.142 167.806 337.022L164.978 334.194ZM165.948 338.075C166.112 338.034 166.558 337.939 166.967 337.708L164.996 334.227C165.021 334.213 165.046 334.2 165.069 334.189C165.093 334.177 165.115 334.168 165.133 334.16C165.151 334.153 165.166 334.148 165.176 334.144C165.181 334.142 165.184 334.141 165.187 334.14C165.189 334.14 165.191 334.139 165.191 334.139C165.191 334.139 165.19 334.139 165.187 334.14C165.185 334.141 165.181 334.142 165.176 334.143C165.167 334.146 165.153 334.15 165.134 334.154C165.116 334.159 165.094 334.165 165.067 334.172C165.041 334.178 165.012 334.186 164.978 334.194L165.948 338.075ZM175.235 324.06L175.235 324.06L177.938 321.111L177.938 321.111L175.235 324.06ZM175.172 324C175.344 324.172 175.47 324.298 175.574 324.408C175.679 324.518 175.727 324.575 175.746 324.601C175.765 324.625 175.723 324.576 175.678 324.468C175.626 324.343 175.586 324.181 175.586 324H179.586C179.586 323.18 179.229 322.571 178.926 322.174C178.659 321.824 178.294 321.465 178 321.172L175.172 324ZM178 326.828C178.294 326.535 178.659 326.176 178.926 325.826C179.229 325.429 179.586 324.82 179.586 324H175.586C175.586 323.819 175.626 323.657 175.678 323.532C175.723 323.424 175.765 323.375 175.746 323.399C175.727 323.425 175.679 323.482 175.574 323.592C175.47 323.702 175.344 323.828 175.172 324L178 326.828ZM174 322.828C174.172 322.657 174.299 322.53 174.408 322.426C174.518 322.321 174.576 322.274 174.601 322.254C174.626 322.236 174.577 322.277 174.468 322.323C174.344 322.375 174.181 322.414 174 322.414V318.414C173.18 318.414 172.571 318.772 172.175 319.074C171.825 319.341 171.465 319.707 171.172 320L174 322.828ZM176.829 320C176.535 319.707 176.176 319.341 175.826 319.074C175.43 318.772 174.821 318.414 174 318.414V322.414C173.819 322.414 173.657 322.375 173.533 322.323C173.424 322.277 173.375 322.236 173.4 322.254C173.425 322.274 173.482 322.321 173.592 322.426C173.702 322.53 173.828 322.657 174 322.828L176.829 320ZM160.978 330.194C160.858 330.314 160.524 330.624 160.293 331.033L163.773 333.004C163.759 333.029 163.745 333.052 163.73 333.074C163.716 333.096 163.702 333.115 163.69 333.131C163.679 333.147 163.669 333.159 163.662 333.167C163.659 333.171 163.656 333.174 163.655 333.176C163.653 333.178 163.652 333.179 163.652 333.179C163.652 333.179 163.653 333.178 163.655 333.176C163.656 333.175 163.659 333.172 163.662 333.168C163.669 333.161 163.679 333.151 163.692 333.137C163.706 333.123 163.722 333.107 163.741 333.088C163.76 333.068 163.782 333.047 163.806 333.022L160.978 330.194ZM163.806 333.022C163.815 332.989 163.822 332.96 163.829 332.933C163.835 332.906 163.841 332.885 163.846 332.866C163.851 332.847 163.854 332.834 163.857 332.824C163.858 332.819 163.859 332.816 163.86 332.813C163.861 332.811 163.861 332.81 163.861 332.81C163.861 332.81 163.861 332.811 163.86 332.814C163.859 332.816 163.858 332.82 163.856 332.825C163.853 332.834 163.847 332.849 163.84 332.867C163.833 332.886 163.823 332.907 163.812 332.931C163.8 332.955 163.788 332.979 163.773 333.004L160.293 331.033C160.061 331.442 159.967 331.888 159.926 332.052L163.806 333.022Z" fill="white" mask="url(#path-71-outside-2_40_2706)"/>
<path d="M170.667 322L174.667 319.333L178.667 323.333L176 327.333L170.667 322Z" fill="white"/>
<path d="M155.948 47.1129C157.029 44.4165 157.57 43.0684 158.5 43.0684C159.43 43.0684 159.971 44.4165 161.052 47.1129L161.103 47.2385C161.714 48.7618 162.019 49.5235 162.642 49.9864C163.265 50.4493 164.082 50.5226 165.717 50.669L166.012 50.6954C168.688 50.935 170.026 51.0548 170.312 51.9059C170.598 52.757 169.605 53.6609 167.618 55.4686L166.955 56.0719C165.949 56.987 165.446 57.4445 165.211 58.0442C165.168 58.1561 165.131 58.2707 165.103 58.3873C164.948 59.0125 165.096 59.6762 165.39 61.0037L165.482 61.4169C166.023 63.8567 166.294 65.0765 165.821 65.6027C165.645 65.7993 165.415 65.9409 165.16 66.0104C164.478 66.1966 163.509 65.4073 161.572 63.8286C160.3 62.7921 159.664 62.2738 158.934 62.1572C158.646 62.1113 158.354 62.1113 158.066 62.1572C157.336 62.2738 156.7 62.7921 155.428 63.8286C153.491 65.4073 152.522 66.1966 151.84 66.0104C151.585 65.9409 151.355 65.7993 151.179 65.6027C150.706 65.0765 150.977 63.8567 151.518 61.4169L151.61 61.0037C151.904 59.6762 152.052 59.0125 151.898 58.3873C151.869 58.2707 151.832 58.1561 151.789 58.0442C151.554 57.4445 151.051 56.987 150.046 56.0719L149.382 55.4686C147.396 53.6609 146.402 52.757 146.688 51.9059C146.975 51.0548 148.312 50.935 150.988 50.6954L151.283 50.669C152.918 50.5226 153.735 50.4493 154.358 49.9864C154.981 49.5235 155.286 48.7618 155.897 47.2385L155.948 47.1129Z" stroke="url(#paint30_linear_40_2706)" stroke-width="2"/>
<path d="M282.948 276.113C284.029 273.417 284.57 272.068 285.5 272.068C286.43 272.068 286.971 273.417 288.052 276.113L288.103 276.238C288.714 277.762 289.019 278.523 289.642 278.986C290.265 279.449 291.082 279.523 292.717 279.669L293.012 279.695C295.688 279.935 297.026 280.055 297.312 280.906C297.598 281.757 296.605 282.661 294.618 284.469L293.955 285.072C292.949 285.987 292.446 286.445 292.211 287.044C292.168 287.156 292.131 287.271 292.103 287.387C291.948 288.012 292.096 288.676 292.39 290.004L292.482 290.417C293.023 292.857 293.294 294.077 292.821 294.603C292.645 294.799 292.415 294.941 292.16 295.01C291.478 295.197 290.509 294.407 288.572 292.829C287.3 291.792 286.664 291.274 285.934 291.157C285.646 291.111 285.354 291.111 285.066 291.157C284.336 291.274 283.7 291.792 282.428 292.829C280.491 294.407 279.522 295.197 278.84 295.01C278.585 294.941 278.355 294.799 278.179 294.603C277.706 294.077 277.977 292.857 278.518 290.417L278.61 290.004C278.904 288.676 279.052 288.012 278.898 287.387C278.869 287.271 278.832 287.156 278.789 287.044C278.554 286.445 278.051 285.987 277.046 285.072L276.382 284.469C274.396 282.661 273.402 281.757 273.688 280.906C273.975 280.055 275.312 279.935 277.988 279.695L278.283 279.669C279.918 279.523 280.735 279.449 281.358 278.986C281.981 278.523 282.286 277.762 282.897 276.238L282.948 276.113Z" stroke="white" stroke-width="2"/>
<path d="M341.5 287.75V287.75C342.197 287.75 342.545 287.75 342.835 287.808C344.025 288.044 344.956 288.975 345.192 290.165C345.25 290.455 345.25 290.803 345.25 291.5L345.25 294.25C345.25 294.721 345.25 294.957 345.104 295.104C344.957 295.25 344.721 295.25 344.25 295.25L337.75 295.25M341.5 287.75V287.75C340.803 287.75 340.455 287.75 340.165 287.808C338.975 288.044 338.044 288.975 337.808 290.165C337.75 290.455 337.75 290.803 337.75 291.5L337.75 295.25M341.5 287.75L326.75 287.75C324.864 287.75 323.922 287.75 323.336 288.336C322.75 288.922 322.75 289.864 322.75 291.75L322.75 310.25H326.5L330.25 310.25L334 310.25L337.75 310.25L337.75 295.25" stroke="white" stroke-width="2"/>
<path d="M327.75 292.75L332.75 292.75" stroke="white" stroke-width="2" stroke-linecap="round"/>
<path d="M329 297.75H327.75" stroke="white" stroke-width="2" stroke-linecap="round"/>
<path d="M327.75 302.75L331.5 302.75" stroke="white" stroke-width="2" stroke-linecap="round"/>
<path d="M438 236L446 228L438 220" stroke="#AAAAAA" stroke-width="2"/>
<path d="M430 236L438 228L430 220" stroke="#AAAAAA" stroke-width="2"/>
<path d="M277 220L269 228L277 236" stroke="white" stroke-width="2"/>
<path d="M285 220L277 228L285 236" stroke="white" stroke-width="2"/>
<path d="M387 220L395 228L387 236" stroke="#AAAAAA" stroke-width="2"/>
<path d="M328 220L320 228L328 236" stroke="white" stroke-width="2"/>
<defs>
<linearGradient id="paint0_linear_40_2706" x1="67.7362" y1="96.7309" x2="51.0659" y2="74.4745" gradientUnits="userSpaceOnUse">
<stop stop-color="#205B45"/>
<stop offset="1" stop-color="#46B78D"/>
</linearGradient>
<linearGradient id="paint1_linear_40_2706" x1="67.9993" y1="90.3202" x2="93.7954" y2="80.0739" gradientUnits="userSpaceOnUse">
<stop stop-color="#205B45"/>
<stop offset="1" stop-color="#46B78D"/>
</linearGradient>
<linearGradient id="paint2_linear_40_2706" x1="65.9622" y1="93.4299" x2="76.9875" y2="67.8796" gradientUnits="userSpaceOnUse">
<stop stop-color="#205B45"/>
<stop offset="1" stop-color="#46B78D"/>
</linearGradient>
<linearGradient id="paint3_linear_40_2706" x1="316.378" y1="87.6216" x2="295.622" y2="109.243" gradientUnits="userSpaceOnUse">
<stop stop-color="#A43936"/>
<stop offset="0.515625" stop-color="#444584"/>
<stop offset="1" stop-color="#223F80"/>
</linearGradient>
<linearGradient id="paint4_linear_40_2706" x1="317.676" y1="80.7027" x2="292.595" y2="114" gradientUnits="userSpaceOnUse">
<stop stop-color="#A43936"/>
<stop offset="0.552662" stop-color="#444584"/>
<stop offset="1" stop-color="#223F80"/>
</linearGradient>
<linearGradient id="paint5_linear_40_2706" x1="253.727" y1="158.909" x2="239.636" y2="173.909" gradientUnits="userSpaceOnUse">
<stop stop-color="#A43936"/>
<stop offset="0.617161" stop-color="#444584"/>
<stop offset="1" stop-color="#223F80"/>
</linearGradient>
<linearGradient id="paint6_linear_40_2706" x1="250.545" y1="140.273" x2="237.364" y2="160.273" gradientUnits="userSpaceOnUse">
<stop stop-color="#A43936"/>
<stop offset="0.533821" stop-color="#444584"/>
<stop offset="1" stop-color="#223F80"/>
</linearGradient>
<linearGradient id="paint7_linear_40_2706" x1="321.257" y1="139.686" x2="292.914" y2="179.914" gradientUnits="userSpaceOnUse">
<stop offset="0.082798" stop-color="#A43936"/>
<stop offset="0.552083" stop-color="#444584"/>
<stop offset="1" stop-color="#223F80"/>
</linearGradient>
<linearGradient id="paint8_linear_40_2706" x1="161.5" y1="156.5" x2="170.5" y2="140" gradientUnits="userSpaceOnUse">
<stop stop-color="#223F80"/>
<stop offset="0.499547" stop-color="#444584"/>
<stop offset="1" stop-color="#A43936"/>
</linearGradient>
<linearGradient id="paint9_linear_40_2706" x1="171.5" y1="159" x2="180.5" y2="144" gradientUnits="userSpaceOnUse">
<stop stop-color="#223F80"/>
<stop offset="0.453125" stop-color="#444584"/>
<stop offset="1" stop-color="#A43936"/>
</linearGradient>
<linearGradient id="paint10_linear_40_2706" x1="155.5" y1="156" x2="162.5" y2="143" gradientUnits="userSpaceOnUse">
<stop stop-color="#223F80"/>
<stop offset="0.411458" stop-color="#444584"/>
<stop offset="1" stop-color="#A43936"/>
</linearGradient>
<linearGradient id="paint11_linear_40_2706" x1="173" y1="168.5" x2="181" y2="157" gradientUnits="userSpaceOnUse">
<stop stop-color="#223F80"/>
<stop offset="0.505208" stop-color="#444584"/>
<stop offset="1" stop-color="#A43936"/>
</linearGradient>
<linearGradient id="paint12_linear_40_2706" x1="154" y1="167.5" x2="164" y2="155" gradientUnits="userSpaceOnUse">
<stop stop-color="#223F80"/>
<stop offset="0.463542" stop-color="#444584"/>
<stop offset="1" stop-color="#A43936"/>
</linearGradient>
<linearGradient id="paint13_linear_40_2706" x1="161" y1="171" x2="172.5" y2="153" gradientUnits="userSpaceOnUse">
<stop stop-color="#223F80"/>
<stop offset="0.479167" stop-color="#444584"/>
<stop offset="1" stop-color="#A43936"/>
</linearGradient>
<linearGradient id="paint14_linear_40_2706" x1="257.8" y1="90.2727" x2="236.452" y2="120.772" gradientUnits="userSpaceOnUse">
<stop stop-color="#A43936"/>
<stop offset="0.520833" stop-color="#444584"/>
<stop offset="1" stop-color="#223F80"/>
</linearGradient>
<linearGradient id="paint15_linear_40_2706" x1="246.867" y1="79.3636" x2="235.517" y2="100.294" gradientUnits="userSpaceOnUse">
<stop stop-color="#A43936"/>
<stop offset="0.568151" stop-color="#444584"/>
<stop offset="1" stop-color="#223F80"/>
</linearGradient>
<linearGradient id="paint16_linear_40_2706" x1="372" y1="141.5" x2="348" y2="186.5" gradientUnits="userSpaceOnUse">
<stop stop-color="#A43936"/>
<stop offset="0.489583" stop-color="#444584"/>
<stop offset="0.968025" stop-color="#223F80"/>
</linearGradient>
<linearGradient id="paint17_linear_40_2706" x1="156" y1="113.5" x2="171.5" y2="88.5" gradientUnits="userSpaceOnUse">
<stop stop-color="#223F80"/>
<stop offset="0.479167" stop-color="#444584"/>
<stop offset="1" stop-color="#A43936"/>
</linearGradient>
<linearGradient id="paint18_linear_40_2706" x1="158" y1="97" x2="137" y2="86.5" gradientUnits="userSpaceOnUse">
<stop stop-color="#444584"/>
<stop offset="1" stop-color="#A43936"/>
</linearGradient>
<linearGradient id="paint19_linear_40_2706" x1="179.5" y1="90.5" x2="169.5" y2="104" gradientUnits="userSpaceOnUse">
<stop stop-color="#A43936"/>
<stop offset="1" stop-color="#444584"/>
</linearGradient>
<linearGradient id="paint20_linear_40_2706" x1="161" y1="108" x2="169" y2="94.5" gradientUnits="userSpaceOnUse">
<stop stop-color="#223F80"/>
<stop offset="0.447917" stop-color="#444584"/>
<stop offset="1" stop-color="#A43936"/>
</linearGradient>
<linearGradient id="paint21_linear_40_2706" x1="107.5" y1="127.5" x2="135" y2="84" gradientUnits="userSpaceOnUse">
<stop stop-color="#223F80"/>
<stop offset="0.541667" stop-color="#444584"/>
<stop offset="1" stop-color="#A43936"/>
</linearGradient>
<linearGradient id="paint22_linear_40_2706" x1="448" y1="85.1818" x2="439.727" y2="94.7273" gradientUnits="userSpaceOnUse">
<stop stop-color="#793F5A"/>
<stop offset="1" stop-color="#4C457E"/>
</linearGradient>
<linearGradient id="paint23_linear_40_2706" x1="432.091" y1="118.909" x2="457.545" y2="75.6364" gradientUnits="userSpaceOnUse">
<stop stop-color="#223F80"/>
<stop offset="0.473958" stop-color="#444584"/>
<stop offset="1" stop-color="#A43936"/>
</linearGradient>
<linearGradient id="paint24_linear_40_2706" x1="431.455" y1="111.273" x2="444.182" y2="92.8182" gradientUnits="userSpaceOnUse">
<stop stop-color="#223F80"/>
<stop offset="1" stop-color="#544478"/>
</linearGradient>
<linearGradient id="paint25_linear_40_2706" x1="425.095" y1="192.381" x2="451.286" y2="155.238" gradientUnits="userSpaceOnUse">
<stop stop-color="#223F80"/>
<stop offset="0.442708" stop-color="#444584"/>
<stop offset="1" stop-color="#A43936"/>
</linearGradient>
<linearGradient id="paint26_linear_40_2706" x1="357.5" y1="114" x2="389" y2="82.5" gradientUnits="userSpaceOnUse">
<stop stop-color="#223F80"/>
<stop offset="0.449135" stop-color="#444584"/>
<stop offset="1" stop-color="#A43936"/>
</linearGradient>
<linearGradient id="paint27_linear_40_2706" x1="367.5" y1="111" x2="377" y2="83.5" gradientUnits="userSpaceOnUse">
<stop offset="0.160518" stop-color="#223F80"/>
<stop offset="0.484375" stop-color="#444584"/>
<stop offset="1" stop-color="#A43936"/>
</linearGradient>
<linearGradient id="paint28_linear_40_2706" x1="357.5" y1="60" x2="389" y2="28.5" gradientUnits="userSpaceOnUse">
<stop stop-color="#223F80"/>
<stop offset="0.449135" stop-color="#444584"/>
<stop offset="1" stop-color="#A43936"/>
</linearGradient>
<linearGradient id="paint29_linear_40_2706" x1="367.5" y1="57" x2="377" y2="29.5" gradientUnits="userSpaceOnUse">
<stop offset="0.160518" stop-color="#223F80"/>
<stop offset="0.484375" stop-color="#444584"/>
<stop offset="1" stop-color="#A43936"/>
</linearGradient>
<linearGradient id="paint30_linear_40_2706" x1="164.5" y1="39.5" x2="148" y2="71" gradientUnits="userSpaceOnUse">
<stop stop-color="#A43936"/>
<stop offset="0.510417" stop-color="#444584"/>
<stop offset="1" stop-color="#223F80"/>
</linearGradient>
</defs>
</svg>
