<svg width="30" height="30" viewBox="0 0 30 30" fill="none" xmlns="http://www.w3.org/2000/svg">
<g id="Group">
<circle id="Ellipse 46" cx="16.0003" cy="10.6666" r="4.33333" stroke="white" stroke-width="1.5" stroke-linecap="round"/>
<path id="Ellipse 47" d="M20.0689 10.5C20.4667 9.81095 21.122 9.30815 21.8905 9.10222C22.6591 8.89629 23.4779 9.0041 24.167 9.40192C24.856 9.79975 25.3588 10.455 25.5648 11.2235C25.7707 11.9921 25.6629 12.8109 25.2651 13.5C24.8672 14.1891 24.212 14.6918 23.4434 14.8978C22.6749 15.1037 21.856 14.9959 21.167 14.5981C20.4779 14.2003 19.9751 13.545 19.7692 12.7765C19.5633 12.0079 19.6711 11.1891 20.0689 10.5L20.0689 10.5Z" stroke="white" stroke-width="1.5"/>
<path id="Ellipse 48" d="M6.73493 10.5C7.13276 9.81095 7.78801 9.30815 8.55655 9.10222C9.32509 8.89629 10.144 9.0041 10.833 9.40192C11.5221 9.79975 12.0249 10.455 12.2308 11.2235C12.4367 11.9921 12.3289 12.8109 11.9311 13.5C11.5333 14.1891 10.878 14.6918 10.1095 14.8978C9.34093 15.1037 8.52206 14.9959 7.83301 14.5981C7.14396 14.2003 6.64116 13.545 6.43523 12.7765C6.2293 12.0079 6.33711 11.1891 6.73493 10.5L6.73493 10.5Z" stroke="white" stroke-width="1.5"/>
<path id="Subtract" d="M22.5096 24.0001L21.5292 24.1975L21.6909 25.0001H22.5096V24.0001ZM27.7465 22.8991L28.7028 22.6067V22.6067L27.7465 22.8991ZM19.7085 19.6141L19.1036 18.8178L17.9471 19.6963L19.1804 20.4633L19.7085 19.6141ZM26.868 23.0001H22.5096V25.0001H26.868V23.0001ZM26.7902 23.1914C26.7855 23.1762 26.7814 23.1463 26.789 23.1098C26.7962 23.0753 26.8109 23.049 26.8249 23.0319C26.8521 22.9987 26.8748 23.0001 26.868 23.0001V25.0001C28.0301 25.0001 29.1066 23.9273 28.7028 22.6067L26.7902 23.1914ZM22.6674 19.6667C25.2598 19.6667 26.3392 21.7164 26.7902 23.1914L28.7028 22.6067C28.1989 20.9585 26.6797 17.6667 22.6674 17.6667V19.6667ZM20.3134 20.4105C20.883 19.9778 21.6361 19.6667 22.6674 19.6667V17.6667C21.1922 17.6667 20.0157 18.1251 19.1036 18.8178L20.3134 20.4105ZM19.1804 20.4633C20.6808 21.3965 21.2897 23.008 21.5292 24.1975L23.4899 23.8026C23.2066 22.3959 22.4264 20.1268 20.2366 18.765L19.1804 20.4633Z" fill="white"/>
<path id="Subtract_2" d="M12.2921 19.614L12.8203 20.4632L14.0536 19.6961L12.897 18.8176L12.2921 19.614ZM4.25415 22.8989L5.21044 23.1913L4.25415 22.8989ZM9.49104 24V25H10.3097L10.4714 24.1974L9.49104 24ZM9.33325 19.6666C10.3646 19.6666 11.1176 19.9776 11.6873 20.4103L12.897 18.8176C11.985 18.1249 10.8085 17.6666 9.33325 17.6666V19.6666ZM5.21044 23.1913C5.66145 21.7163 6.74088 19.6666 9.33325 19.6666V17.6666C5.32096 17.6666 3.80177 20.9584 3.29785 22.6065L5.21044 23.1913ZM5.13268 23C5.12589 23 5.14854 22.9985 5.17577 23.0318C5.18976 23.0489 5.20443 23.0752 5.21161 23.1096C5.21921 23.1461 5.21509 23.1761 5.21044 23.1913L3.29785 22.6065C2.89405 23.9272 3.97053 25 5.13268 25V23ZM9.49104 23H5.13268V25H9.49104V23ZM10.4714 24.1974C10.7109 23.0078 11.3198 21.3963 12.8203 20.4632L11.764 18.7648C9.57426 20.1267 8.79404 22.3958 8.51072 23.8025L10.4714 24.1974Z" fill="white"/>
<path id="Rectangle 4160" d="M15.9997 18.6667C21.0435 18.6667 22.2713 22.4828 22.5702 24.3406C22.6579 24.8859 22.2186 25.3334 21.6663 25.3334H10.333C9.78072 25.3334 9.34145 24.8859 9.42917 24.3406C9.72804 22.4828 10.9558 18.6667 15.9997 18.6667Z" stroke="white" stroke-width="1.5" stroke-linecap="round"/>
</g>
</svg>
